<svg xmlns="http://www.w3.org/2000/svg" xmlns:xlink="http://www.w3.org/1999/xlink" width="500" height="500" viewBox="0 0 375 375">
   <clipPath id="a">
      <path transform="scale(.24)" d="M0 0h1562.5v1562.5H0z" fill-rule="evenodd"/>
   </clipPath>
   <g clip-path="url(#a)">
      <path d="M0 0h375v375H0z" fill="none"/>
   </g>
   <clipPath id="b">
      <path transform="scale(.24)" d="M0 0h1562.5v1562.5H0z" fill-rule="evenodd"/>
   </clipPath>
   <g clip-path="url(#b)">
      <path d="M0 0h375v375H0z" fill="none"/>
   </g>
   <clipPath id="c">
      <path transform="scale(.24)" d="M0 0h1562.5v1562.5H0z" fill-rule="evenodd"/>
   </clipPath>
   <g data-name="H1" clip-path="url(#c)">
      <symbol id="d">
         <path d="M.395 0h-.12L0 .513h.204L.329.236l.123.277h.122L.697.236l.125.277h.204L.751 0h-.12L.513.265.395 0z"/>
      </symbol>
      <symbol id="e">
         <path d="M0 0v.513h.177V.439h.002a.098.098 0 0 0 .006.01.385.385 0 0 0 .052.048.17.17 0 0 0 .044.021c.018.007.036.01.055.01A.206.206 0 0 0 .434.504L.448.496.374.346a.138.138 0 0 1-.092.028A.104.104 0 0 1 .227.36.085.085 0 0 1 .194.326.26.26 0 0 1 .181.292.086.086 0 0 1 .177.27V0H0z"/>
      </symbol>
      <symbol id="f">
         <path d="M.031.799c.02.02.045.031.074.031C.134.83.158.82.179.799A.101.101 0 0 0 .21.725.101.101 0 0 0 .179.651.101.101 0 0 0 .105.62a.101.101 0 0 0-.074.031A.101.101 0 0 0 0 .725c0 .029.01.053.031.074M.014.513V0h.177v.513H.014z"/>
      </symbol>
      <symbol id="g">
         <path d="M.074.528v.191h.177V.528h.108V.393H.251V.23c0-.047.013-.071.04-.071a.082.082 0 0 1 .038.012l.006.004.044-.143A.261.261 0 0 0 .163.017a.137.137 0 0 0-.055.047.227.227 0 0 0-.026.062.296.296 0 0 0-.008.07v.197H0v.135h.074z"/>
      </symbol>
      <symbol id="h">
         <path d="M.556.247H.184c0-.036.012-.063.035-.08A.125.125 0 0 1 .295.141c.029 0 .051.004.068.011A.209.209 0 0 1 .42.198L.548.134C.495.044.406 0 .282 0A.278.278 0 0 0 0 .271C0 .346.028.41.083.463c.055.053.122.08.199.08A.278.278 0 0 0 .48.472C.531.425.557.358.557.271L.556.247M.189.345h.195a.092.092 0 0 1-.097.083.102.102 0 0 1-.07-.023.083.083 0 0 1-.028-.06z"/>
      </symbol>
      <symbol id="i">
         <path d="M.114.402A.108.108 0 0 0 .195.368.108.108 0 0 0 .229.287C.229.188.173.093.061 0L.01.042.027.06a.278.278 0 0 1 .031.049.23.23 0 0 1 .028.073.114.114 0 0 0-.062.037A.103.103 0 0 0 0 .287a.11.11 0 0 0 .033.081.11.11 0 0 0 .081.034z"/>
      </symbol>
      <use xlink:href="#d" transform="matrix(73.3425 0 0 -73.3425 26.958 138)"/>
      <use xlink:href="#e" transform="matrix(73.3425 0 0 -73.3425 101.467 138)"/>
      <use xlink:href="#f" transform="matrix(73.3425 0 0 -73.3425 133.295 138)"/>
      <use xlink:href="#g" transform="matrix(73.3425 0 0 -73.3425 149.575 139.1)"/>
      <use xlink:href="#h" transform="matrix(73.3425 0 0 -73.3425 175.389 139.1)"/>
      <use xlink:href="#i" transform="matrix(73.3425 0 0 -73.3425 218.657 151.788)"/>
      <symbol id="j">
         <path d="M0 0v.513h.177V.459h.002a.206.206 0 0 0 .147.069.286.286 0 0 0 .147-.041.174.174 0 0 0 .078-.149V0H.374v.29c0 .027-.009.05-.026.07a.082.082 0 0 1-.066.03.104.104 0 0 1-.073-.031A.094.094 0 0 1 .177.29V0H0z"/>
      </symbol>
      <symbol id="k">
         <path d="M0 0v.86h.177V.459h.002a.206.206 0 0 0 .147.069.286.286 0 0 0 .147-.041.174.174 0 0 0 .078-.149V0H.374v.29c0 .027-.009.05-.026.07a.082.082 0 0 1-.066.03.104.104 0 0 1-.073-.031A.094.094 0 0 1 .177.29V0H0z"/>
      </symbol>
      <symbol id="l">
         <path d="M.072.078A.276.276 0 0 0 0 .271c0 .076.024.14.072.193a.237.237 0 0 0 .183.079.231.231 0 0 0 .168-.064v.049H.6V.015H.425v.058H.423A.216.216 0 0 0 .255 0a.238.238 0 0 0-.183.078m.15.28A.118.118 0 0 1 .188.271.12.12 0 0 1 .221.184.118.118 0 0 1 .308.151a.117.117 0 0 1 .119.12.116.116 0 0 1-.035.087.114.114 0 0 1-.084.034.119.119 0 0 1-.086-.034z"/>
      </symbol>
      <symbol id="m">
         <path d="M.31.398A.116.116 0 0 1 .224.361.123.123 0 0 1 .188.272C.188.237.2.207.224.182A.116.116 0 0 1 .31.145a.163.163 0 0 1 .077.018l.009.006.06-.123a.37.37 0 0 0-.02-.013.321.321 0 0 0-.057-.02A.334.334 0 0 0 .284 0a.285.285 0 0 0-.199.079A.253.253 0 0 0 0 .27c0 .075.028.139.085.192a.282.282 0 0 0 .199.081.349.349 0 0 0 .155-.036L.456.495.396.374A.143.143 0 0 1 .31.398z"/>
      </symbol>
      <use xlink:href="#h" transform="matrix(73.3425 0 0 -73.3425 30.112 208.1)"/>
      <use xlink:href="#j" transform="matrix(73.3425 0 0 -73.3425 73.38 207)"/>
      <use xlink:href="#k" transform="matrix(73.3425 0 0 -73.3425 118.188 207)"/>
      <use xlink:href="#l" transform="matrix(73.3425 0 0 -73.3425 160.282 208.1)"/>
      <use xlink:href="#j" transform="matrix(73.3425 0 0 -73.3425 209.417 207)"/>
      <use xlink:href="#m" transform="matrix(73.3425 0 0 -73.3425 251.51 208.1)"/>
      <use xlink:href="#h" transform="matrix(73.3425 0 0 -73.3425 283.852 208.1)"/>
      <symbol id="n">
         <path d="M0 .232C0 .257.006.28.017.303a.21.21 0 0 0 .048.062.52.52 0 0 0 .063.049.967.967 0 0 0 .073.043C.146.527.118.587.118.64c0 .065.023.117.068.156.046.04.111.059.195.059A.241.241 0 0 0 .561.79.206.206 0 0 0 .626.64.153.153 0 0 0 .609.571.227.227 0 0 0 .568.514.44.44 0 0 0 .48.446L.463.437l.11-.114c.024.01.064.045.121.104L.81.313A.929.929 0 0 0 .693.2L.871.015H.634L.552.1a.78.78 0 0 0-.11-.068.263.263 0 0 0-.073-.025.442.442 0 0 0-.236.022.272.272 0 0 0-.067.042.192.192 0 0 0-.048.066A.239.239 0 0 0 0 .232m.381.49C.357.722.339.714.327.699A.093.093 0 0 1 .324.593c.01-.017.02-.03.03-.04L.369.539C.43.572.461.606.461.64c0 .055-.027.082-.08.082M.43.225.299.354a.111.111 0 0 1-.03-.016.124.124 0 0 1-.047-.051.092.092 0 0 1-.009-.04c0-.022.01-.039.028-.051A.118.118 0 0 1 .306.178a.202.202 0 0 1 .108.035L.43.225z"/>
      </symbol>
      <symbol id="o">
         <path d="M0 0z"/>
      </symbol>
      <use xlink:href="#n" transform="matrix(73.3425 0 0 -73.3425 30.552 277.1)" fill="#a8eb12"/>
      <use xlink:href="#o" transform="matrix(73.3425 0 0 -73.3425 85.847 276)" fill="#a8eb12"/>
      <symbol id="p">
         <path d="M.528.464A.276.276 0 0 0 .6.271.276.276 0 0 0 .528.078.238.238 0 0 0 .345 0a.216.216 0 0 0-.168.073H.175V.015H0v.86h.177V.479c.044.043.1.064.168.064A.237.237 0 0 0 .528.464M.379.184a.12.12 0 0 1 .033.087.116.116 0 0 1-.035.087.115.115 0 0 1-.085.034.117.117 0 0 1-.085-.034.118.118 0 0 1-.034-.087c0-.035.011-.063.033-.086A.117.117 0 0 1 .292.151c.036 0 .065.011.087.033z"/>
      </symbol>
      <symbol id="q">
         <path d="M.177.528V.284C.177.234.185.197.2.176.215.155.241.144.278.144s.063.01.078.032c.015.021.023.057.023.108v.244h.177V.241C.556.156.534.094.489.056.445.019.375 0 .278 0 .181 0 .111.019.066.056.022.094 0 .156 0 .241v.287h.177z"/>
      </symbol>
      <symbol id="r">
         <path d="M0 0v.86h.177V0H0z"/>
      </symbol>
      <symbol id="s">
         <path d="M.072.078A.276.276 0 0 0 0 .271c0 .076.024.14.072.193a.237.237 0 0 0 .183.079.231.231 0 0 0 .168-.064v.396H.6v-.86H.425v.058H.423A.216.216 0 0 0 .255 0a.238.238 0 0 0-.183.078m.15.28A.118.118 0 0 1 .188.271.12.12 0 0 1 .221.184.118.118 0 0 1 .308.151a.117.117 0 0 1 .119.12.116.116 0 0 1-.035.087.114.114 0 0 1-.084.034.119.119 0 0 1-.086-.034z"/>
      </symbol>
      <use xlink:href="#p" transform="matrix(73.3425 0 0 -73.3425 106.607 277.1)"/>
      <use xlink:href="#q" transform="matrix(73.3425 0 0 -73.3425 152.294 277.1)"/>
      <use xlink:href="#f" transform="matrix(73.3425 0 0 -73.3425 196.442 276)"/>
      <use xlink:href="#r" transform="matrix(73.3425 0 0 -73.3425 215.95 276)"/>
      <use xlink:href="#s" transform="matrix(73.3425 0 0 -73.3425 231.35 277.1)"/>
      <symbol id="t">
         <path d="M.114.229A.108.108 0 0 0 .195.195.108.108 0 0 0 .229.114.11.11 0 0 0 .195.033.11.11 0 0 0 .114 0 .112.112 0 0 0 0 .114a.11.11 0 0 0 .033.081.11.11 0 0 0 .081.034z"/>
      </symbol>
      <use xlink:href="#t" transform="matrix(73.3425 0 0 -73.3425 280.49 277.1)" fill="#a8eb12"/>
   </g>
   <clipPath id="u">
      <path transform="scale(.24)" d="M1018.648 310.565h340.625V663.69h-340.625z" fill-rule="evenodd"/>
   </clipPath>
   <g clip-path="url(#u)">
      <path d="M289.303 159.285c-2.151 0-6.245-.276-8.632-1.396-1.445-.678-2.179-4.406-2.712-13.755-.038-.675.18-1.276.644-1.788 1.188-1.3 3.89-1.933 9.027-2.11 5.112-.18 11.344.257 11.967 3.31.336 1.653-.322 6.877-1.087 12.541l-.125.927c-.114.86-.835 1.742-8.07 2.244a15.25 15.25 0 0 1-1.012.027zm.149-17.634c-.561 0-1.154.01-1.77.031-1.663.059-6.72.232-8.005 1.636a.94.94 0 0 0-.267.726c.585 10.228 1.434 12.24 1.888 12.53 2.445 1.149 7.305 1.346 8.92 1.235 5.34-.37 6.515-.944 6.747-1.11l.11-.809c.496-3.672 1.42-10.508 1.102-12.06-.232-1.128-3.024-2.18-8.725-2.18zm-1.794-.692z"/>
      <path d="M278.845 147.401a.724.724 0 0 1-.326-1.373c7.4-3.706 19.613-1.33 20.13-1.23.394.079.647.46.567.85a.73.73 0 0 1-.852.57c-.12-.024-12.241-2.378-19.193 1.104a.706.706 0 0 1-.326.08zM282.188 150.472a.728.728 0 0 1-.686-.488.72.72 0 0 1 .45-.92c6.734-2.32 16.274-.702 16.679-.632.395.069.658.442.592.836a.727.727 0 0 1-.838.592c-.097-.018-9.577-1.622-15.954.574a.903.903 0 0 1-.243.038zM298.205 153.608a.787.787 0 0 1-.215-.031c-.08-.024-4.86-1.439-11.105-.346a.726.726 0 1 1-.253-1.428c6.63-1.158 11.576.325 11.784.39.385.118.6.523.482.907a.73.73 0 0 1-.693.508zM295.867 141.758c-1.14-3.8.54-7.645 2.147-10.204.808-1.283 1.729-2.496 2.62-3.672 1.114-1.47 2.264-2.991 3.158-4.606a19.196 19.196 0 0 0 2.151-12.271c-.568-3.562-2.185-6.92-4.551-9.447-3.831-4.094-9.893-6.29-16.222-5.878-2.985.193-7.284 1.044-10.796 3.976-3.402 2.843-5.508 7.362-5.633 12.096-.117 4.45 1.434 9.028 4.372 12.89.859 1.13 1.843 2.21 2.795 3.254 1.188 1.303 2.418 2.648 3.45 4.139 2.29 3.299 3.066 6.84 2.123 9.716l-1.378-.45c.8-2.44.093-5.518-1.936-8.44-.98-1.41-2.176-2.721-3.333-3.987-.973-1.068-1.981-2.171-2.878-3.354-3.135-4.121-4.794-9.024-4.666-13.803.142-5.145 2.442-10.066 6.159-13.17 3.813-3.185 8.43-4.102 11.635-4.313 6.754-.439 13.253 1.926 17.378 6.335 2.56 2.739 4.31 6.362 4.922 10.207.72 4.513-.1 9.202-2.314 13.202-.945 1.708-2.126 3.268-3.273 4.779-.873 1.151-1.777 2.34-2.55 3.568-1.447 2.303-2.968 5.737-1.988 9.018l-1.392.415z"/>
      <path d="M290.425 141.481c-.88-3.253-.582-9.121 1.008-12.945-.817-.139-1.562-.377-2.106-.689-.087-.048-.17-.1-.25-.148a7.796 7.796 0 0 1-3.567.86h-.038c1.257 3.846 1.5 8.213.693 12.812l-1.431-.25c.807-4.612.51-8.958-.856-12.724-1.42-.287-2.708-.958-3.671-1.933-.333-.335-.766-.86-.735-1.563.025-.498.295-.947.749-1.23a2.033 2.033 0 0 1 1.815-.16c.8.336 1.756 1.207 2.133 1.94.274.533.527 1.079.756 1.636.19.017.377.02.571.024a6.46 6.46 0 0 0 2.293-.422c-.935-.94-1.475-2.068-1.507-3.212-.027-1.103.572-2.251 1.531-2.925.81-.571 1.753-.713 2.588-.391 1.188.456 1.967 1.753 1.895 3.153-.073 1.373-.863 2.455-1.514 3.12a6.766 6.766 0 0 1-.36.342c.464.186 1.056.321 1.683.394.409-.688.88-1.252 1.41-1.653 1.004-.757 2.134-.778 2.802-.46.485.228.783.654.8 1.13.028.754-.353 1.411-1.07 1.844-.776.466-1.916.66-3.09.646-1.503 3.282-2.03 9.132-1.14 12.428l-1.392.376zm4.97-15.172c-.259 0-.626.08-.997.36a3.3 3.3 0 0 0-.537.521c.572-.058 1.084-.186 1.441-.404.277-.166.35-.325.367-.44a.873.873 0 0 0-.273-.037zm-14.097-1.494a.607.607 0 0 0-.305.08c-.042.027-.073.058-.073.072 0 .035.018.173.319.477a5.48 5.48 0 0 0 1.926 1.242c-.09-.194-.187-.384-.284-.574-.225-.436-.922-1.062-1.406-1.266a.473.473 0 0 0-.177-.031zm8.202-3.375c-.356 0-.665.17-.841.298-.565.397-.932 1.082-.915 1.704.02.885.53 1.781 1.396 2.514.222-.162.426-.342.617-.536.672-.688 1.063-1.466 1.101-2.185.038-.757-.377-1.497-.966-1.726a1.17 1.17 0 0 0-.392-.069zM316.179 120.79c.447-.387 1.053-.252 1.562-.097 2.432.747 4.867 1.494 7.298 2.237.444.135.932.315 1.105.778.077.204.08.44.066.671-.069 1.273-.96 3.472-3.401 2.773-1.046-.297-9.758-3.658-6.63-6.362zM298.648 87.063c-.311-.429-.149-1.023.028-1.525.842-2.396 1.683-4.789 2.522-7.185.152-.436.346-.916.772-1.096.187-.08.399-.087.6-.083 1.125.034 4.024 1.829 2.819 3.713-.582.92-4.565 9.17-6.74 6.176zM280.075 82.43c.045.58.087 1.175-.083 1.732-.17.557-.6 1.072-1.174 1.172-.52.09-1.053-.176-1.414-.563-.36-.388-.578-.879-.793-1.363-.654-1.476-1.306-2.953-1.96-4.433-.482-1.085-.939-2.434-.219-3.381.354-.467.929-.716 1.5-.854.762-.187 1.597-.205 2.304.13 2.089.993 1.683 5.644 1.84 7.56zM317.693 100.296c-.562.073-1.137.145-1.712.038-.574-.107-1.146-.432-1.337-.903-.173-.425.004-.885.326-1.206.322-.322.769-.536 1.205-.74l4.025-1.899c.988-.466 2.235-.926 3.277-.387.516.266.852.726 1.081 1.19.305.622.457 1.31.242 1.919-.633 1.79-5.254 1.742-7.107 1.988zM264.148 93.754c-.45 1.003-2.03.453-3.051.225a60.012 60.012 0 0 1-6.499-1.847c-.526-.183-1.143-.484-1.233-1.127-.052-.363.087-.723.236-1.048 1.101-2.455 1.905-2.974 4.16-1.891 1.985.961 7.295 3.672 6.387 5.688zM257.148 109.345c-.004 1.01-4.382 1.774-6.973 1.902-.935.048-3.474.124-4.208-.453-.738-.581-1.49-3.527-.475-4.101 1.853-1.044 11.663-1.044 11.656 2.652zM258.672 130.939c-.676.626-1.358 1.262-2.175 1.684-.818.425-2.22.86-3.062-.1-.676-.772-.752-2.055-.087-2.694 2.206-2.127 4.766-3.42 6.9-3.766 4.427-.712-.51 3.887-1.576 4.876z"/>
   </g>
</svg>