<svg xmlns="http://www.w3.org/2000/svg" xmlns:xlink="http://www.w3.org/1999/xlink" width="500" height="500" viewBox="0 0 375 375">
   <clipPath id="a">
      <path transform="scale(.24)" d="M0 0h1562.5v1562.5H0z" fill-rule="evenodd"/>
   </clipPath>
   <g clip-path="url(#a)">
      <path d="M0 0h375v375H0z" fill="none"/>
   </g>
   <clipPath id="b">
      <path transform="scale(.24)" d="M0 0h1562.5v1562.5H0z" fill-rule="evenodd"/>
   </clipPath>
   <g clip-path="url(#b)">
      <path d="M0 0h375v375H0z" fill="none"/>
   </g>
   <clipPath id="c">
      <path transform="scale(.24)" d="M0 0h1562.5v1562.5H0z" fill-rule="evenodd"/>
   </clipPath>
   <g data-name="H1" clip-path="url(#c)">
      <symbol id="d">
         <path d="M.31.398A.116.116 0 0 1 .224.361.123.123 0 0 1 .188.272C.188.237.2.207.224.182A.116.116 0 0 1 .31.145a.163.163 0 0 1 .077.018l.009.006.06-.123a.37.37 0 0 0-.02-.013.321.321 0 0 0-.057-.02A.334.334 0 0 0 .284 0a.285.285 0 0 0-.199.079A.253.253 0 0 0 0 .27c0 .075.028.139.085.192a.282.282 0 0 0 .199.081.349.349 0 0 0 .155-.036L.456.495.396.374A.143.143 0 0 1 .31.398z"/>
      </symbol>
      <symbol id="e">
         <path d="M.177.528V.284C.177.234.185.197.2.176.215.155.241.144.278.144s.063.01.078.032c.015.021.023.057.023.108v.244h.177V.241C.556.156.534.094.489.056.445.019.375 0 .278 0 .181 0 .111.019.066.056.022.094 0 .156 0 .241v.287h.177z"/>
      </symbol>
      <symbol id="f">
         <path d="M0 0v.513h.177V.439h.002a.098.098 0 0 0 .006.01.385.385 0 0 0 .052.048.17.17 0 0 0 .044.021c.018.007.036.01.055.01A.206.206 0 0 0 .434.504L.448.496.374.346a.138.138 0 0 1-.092.028A.104.104 0 0 1 .227.36.085.085 0 0 1 .194.326.26.26 0 0 1 .181.292.086.086 0 0 1 .177.27V0H0z"/>
      </symbol>
      <symbol id="g">
         <path d="M.031.799c.02.02.045.031.074.031C.134.83.158.82.179.799A.101.101 0 0 0 .21.725.101.101 0 0 0 .179.651.101.101 0 0 0 .105.62a.101.101 0 0 0-.074.031A.101.101 0 0 0 0 .725c0 .029.01.053.031.074M.014.513V0h.177v.513H.014z"/>
      </symbol>
      <symbol id="h">
         <path d="M.085.076A.25.25 0 0 0 0 .271c0 .08.03.144.089.195.06.051.133.077.22.077A.318.318 0 0 0 .526.466.247.247 0 0 0 .615.271.25.25 0 0 0 .528.076.318.318 0 0 0 .309 0a.326.326 0 0 0-.224.076m.137.282A.118.118 0 0 1 .188.271.12.12 0 0 1 .221.184.118.118 0 0 1 .308.151a.117.117 0 0 1 .119.12.116.116 0 0 1-.035.087.114.114 0 0 1-.084.034.119.119 0 0 1-.086-.034z"/>
      </symbol>
      <symbol id="i">
         <path d="M.26.543a.383.383 0 0 0 .151-.03l.021-.01L.374.387A.243.243 0 0 1 .26.419.097.097 0 0 1 .217.412C.209.408.205.4.205.388L.206.38C.206.377.208.375.21.372A.04.04 0 0 0 .215.366.089.089 0 0 1 .224.361.089.089 0 0 0 .233.356.123.123 0 0 0 .257.347.356.356 0 0 0 .339.319a.28.28 0 0 0 .048-.03.127.127 0 0 0 .04-.048.15.15 0 0 0 .014-.066C.441.058.36 0 .198 0a.324.324 0 0 0-.176.051L0 .069.072.19A.443.443 0 0 1 .093.173.437.437 0 0 1 .14.147.143.143 0 0 1 .199.131c.037 0 .055.012.055.037A.03.03 0 0 1 .24.194a.208.208 0 0 1-.048.022.435.435 0 0 0-.052.022.268.268 0 0 0-.076.056.123.123 0 0 0-.028.084c0 .052.02.092.06.121.04.03.095.044.164.044z"/>
      </symbol>
      <symbol id="j">
         <path d="M.074.528v.191h.177V.528h.108V.393H.251V.23c0-.047.013-.071.04-.071a.082.082 0 0 1 .038.012l.006.004.044-.143A.261.261 0 0 0 .163.017a.137.137 0 0 0-.055.047.227.227 0 0 0-.026.062.296.296 0 0 0-.008.07v.197H0v.135h.074z"/>
      </symbol>
      <symbol id="k">
         <path d="M.469.773h.204L.27 0H.066l.177.34L0 .773h.204L.347.51l.122.263z"/>
      </symbol>
      <symbol id="l">
         <path d="M.114.402A.108.108 0 0 0 .195.368.108.108 0 0 0 .229.287C.229.188.173.093.061 0L.01.042.027.06a.278.278 0 0 1 .031.049.23.23 0 0 1 .028.073.114.114 0 0 0-.062.037A.103.103 0 0 0 0 .287a.11.11 0 0 0 .033.081.11.11 0 0 0 .081.034z"/>
      </symbol>
      <use xlink:href="#d" transform="matrix(69.1575 0 0 -69.1575 39.09 163.006)"/>
      <use xlink:href="#e" transform="matrix(69.1575 0 0 -69.1575 71.454 163.006)"/>
      <use xlink:href="#f" transform="matrix(69.1575 0 0 -69.1575 114.051 161.968)"/>
      <use xlink:href="#g" transform="matrix(69.1575 0 0 -69.1575 144.063 161.968)"/>
      <use xlink:href="#h" transform="matrix(69.1575 0 0 -69.1575 159.898 163.006)"/>
      <use xlink:href="#i" transform="matrix(69.1575 0 0 -69.1575 202.15 163.006)"/>
      <use xlink:href="#g" transform="matrix(69.1575 0 0 -69.1575 234.306 161.968)"/>
      <use xlink:href="#j" transform="matrix(69.1575 0 0 -69.1575 249.657 163.006)"/>
      <use xlink:href="#k" transform="matrix(69.1575 0 0 -69.1575 271.024 179.95)"/>
      <use xlink:href="#l" transform="matrix(69.1575 0 0 -69.1575 316.872 174.97)"/>
      <symbol id="m">
         <path d="M0 0v.86h.177V0H0z"/>
      </symbol>
      <symbol id="n">
         <path d="M.072.078A.276.276 0 0 0 0 .271c0 .076.024.14.072.193a.237.237 0 0 0 .183.079.231.231 0 0 0 .168-.064v.049H.6V.015H.425v.058H.423A.216.216 0 0 0 .255 0a.238.238 0 0 0-.183.078m.15.28A.118.118 0 0 1 .188.271.12.12 0 0 1 .221.184.118.118 0 0 1 .308.151a.117.117 0 0 1 .119.12.116.116 0 0 1-.035.087.114.114 0 0 1-.084.034.119.119 0 0 1-.086-.034z"/>
      </symbol>
      <use xlink:href="#d" transform="matrix(69.1575 0 0 -69.1575 39.09 228.256)"/>
      <use xlink:href="#m" transform="matrix(69.1575 0 0 -69.1575 72.145 227.218)"/>
      <use xlink:href="#n" transform="matrix(69.1575 0 0 -69.1575 86.667 228.256)"/>
      <use xlink:href="#f" transform="matrix(69.1575 0 0 -69.1575 132.999 227.218)"/>
      <use xlink:href="#g" transform="matrix(69.1575 0 0 -69.1575 163.01 227.218)"/>
      <use xlink:href="#j" transform="matrix(69.1575 0 0 -69.1575 178.362 228.256)"/>
      <use xlink:href="#k" transform="matrix(69.1575 0 0 -69.1575 199.73 245.2)"/>
      <symbol id="o">
         <path d="M.114.229A.108.108 0 0 0 .195.195.108.108 0 0 0 .229.114.11.11 0 0 0 .195.033.11.11 0 0 0 .114 0 .112.112 0 0 0 0 .114a.11.11 0 0 0 .033.081.11.11 0 0 0 .081.034z"/>
      </symbol>
      <use xlink:href="#o" transform="matrix(69.1575 0 0 -69.1575 245.58 228.256)" fill="#a8eb12"/>
   </g>
   <clipPath id="p">
      <path transform="scale(.24)" d="M979.356 42.926h515.625V377.3H979.356z" fill-rule="evenodd"/>
   </clipPath>
   <g clip-path="url(#p)" fill="#040606" fill-rule="evenodd">
      <path d="M250.522 60.939c.435 1.119.876 1.736 1.401 2.617.271.456.463.91.746 1.308.566.794 1.167 1.773 1.774 2.337.679.628 1.743 1.099 2.708 1.587.962.487 1.968.9 2.989 1.31 2.253.9 4.879 1.273 7.284 1.401 2.145.114 3.216-.39 4.483-1.028 1.515-.762 2.506-1.508 3.642-2.71 1.296-1.37 1.759-2.223 2.522-3.832.718-1.514 1.776-3.113 2.054-4.765.175-1.037.07-2.02.655-2.243.627-.24 1.463.615 2.333.934 2.64.967 6.027.268 7.846-.747 2.49-1.392 4.944-4.519 5.509-7.57.316-1.7.082-3.131-.373-4.111-.398-.857-.623-1.176-1.12-1.776-1.292-1.556-1.991-2.41-4.016-3.083-.809-.27-1.434-.226-1.494-.842-.07-.704.735-.877 1.12-1.121 1.345-.855 1.723-1.334 2.522-2.616.747-1.201 1.258-2.564 1.68-4.019.227-.781.41-1.622.468-2.336.17-2.083-.13-3.569-.749-4.953-.827-1.855-1.595-2.847-2.988-3.925-.93-.72-1.574-1.138-2.801-1.495-1.664-.484-5.87-.66-7.564-.28-.777.173-1.824.473-2.335.746-.868.465-2.06 1.827-2.99 1.776-.059-.003-.742-.278-.745-.28-.688-.396-.867-1.414-1.308-1.962-.868-1.08-2.125-2.118-3.362-2.99-1.15-.812-2.77-1.902-4.015-2.337-1.529-.534-4.046-.621-6.445-.373-1.071.11-1.902.522-2.708.84-.485.191-1.017.28-1.401.468-.226.11-.515.452-.84.654-.37.23-.743.346-1.027.56-.62.47-1.215 1.217-1.868 1.87-1.656 1.657-3.852 5.109-4.016 7.475-.079 1.141.731 2.944.28 3.551-.386.52-1.597.249-2.614.374-.368.046-.825.235-1.308.374-1.305.377-1.85.676-2.801 1.308-.55.366-1.23.614-1.495.842-.473.401-1.069 1.197-1.494 1.868-1.83 2.887-2.388 7.797-1.401 12.055.703 3.032 1.775 4.896 3.456 6.729 1.373 1.496 2.112 2.31 4.015 3.177 1.489.68 2.304 1.115 4.296.935.899 1.351.95 2.901 1.495 4.298zm57.434 4.206c.475 1.629 1.05 2.648 1.96 3.924.617.863 1.223 1.856 1.774 2.43.577.599 1.368 1.165 2.056 1.775.735.653 1.52 1.03 2.427 1.495 2.433 1.25 5.085 2.126 8.405 2.337 2.016.128 3.363-.48 5.138-.934 3.588-.922 5.682-2.505 7.656-4.86 1.066-1.27 2.6-2.792 2.802-4.766.159-1.554-.319-3.133.562-3.364.535-.141 1.252.483 1.492.56 1.311.42 3.157.484 4.577.375 2.396-.186 3.793-1.45 5.23-2.524.71-.53 1.458-.93 1.867-1.401.808-.931 1.298-1.996 1.775-3.178.16-.4.423-.812.56-1.215.786-2.32 1.212-5.396.56-7.943-.167-.655-.203-1.403-.373-1.962-.142-.466-.541-.929-.84-1.496-.257-.484-.41-1.093-.655-1.495-.516-.848-1.709-2.218-2.334-2.71-.557-.438-1.444-.612-1.4-1.402.025-.485.608-.66.933-1.027.621-.702 1.174-2.03 1.307-3.271.122-1.132.012-2.86-.467-3.551-.383-.553-1.312-.53-1.588-1.402-.073-.232.028-.755 0-1.027-.247-2.364-1.116-4.502-2.24-6.262-1.103-1.724-2.552-2.946-4.297-4.298-3.04-2.357-7.488-4.635-11.954-5.233-5.013-.673-9.09.748-12.326 2.242-1.48.683-2.524 1.153-3.363 2.43-.238.363-.442 1.106-1.027 1.12-.638.017-2.412-2.184-2.894-2.522-.567-.397-1.1-.744-1.59-1.121-.533-.41-1.022-.908-1.493-1.216-1.362-.886-3.961-1.535-5.79-1.682-1.243-.098-2.496-.037-3.734.094-.805.085-1.734.76-2.522 1.215a14.421 14.421 0 0 0-3.175 2.43c-1.193 1.192-1.849 2.03-2.242 4.112 1.101.952 2.06 2.05 2.708 3.456.592.156 1.192.304 1.215 1.029.145.49-.627.06-.561.467.78.867 1.788 1.628 2.614 2.337.306.262.938.347.748.934-1.332.237-1.776-1.21-2.801-1.589.009.49.153.842.093 1.402 1.027.864 2.173 1.654 3.174 2.43.338.26.932.577.841 1.121-.74.328-1.495-.526-2.148-1.028-.5-.385-.956-.893-1.4-1.215-.029-.02-.463-.389-.467-.092.073.384-.143.478-.093.84 1.207 1.162 2.555 2.24 3.828 3.27.402.326 1.105.661 1.12 1.309-.51.451-1.07-.197-1.4-.467-1.272-1.039-2.495-2.19-3.736-3.084a15.135 15.135 0 0 1-.373 1.495c1.649 1.16 3.296 2.637 4.856 3.831.486.372 1.486.765 1.215 1.589-.7.146-1.123-.58-1.589-.935-1.605-1.219-3.16-2.539-4.762-3.644-.127.529-.341.967-.467 1.495a70.483 70.483 0 0 0 5.324 4.766c.54.439 1.662.936 1.4 1.869-.477.122-.735-.333-1.027-.561-1.548-1.203-3.047-2.444-4.39-3.737-.551-.532-1.077-1.128-1.775-1.495-.13.583-.52.913-.746 1.4 1.614.757 3.087 2.16 4.482 3.366 1.067.921 2.234 1.756 3.176 2.71.253.256.978.742.467 1.214-.508.2-.772-.403-1.028-.654-1.013-.993-2.117-1.813-3.174-2.71-1.41-1.194-2.794-2.457-4.39-3.364-.08.293-.232.516-.468.654.669.759 1.524 1.389 2.335 2.056 2.021 1.665 4.2 3.347 6.165 4.953.332.273 1.12.583.84 1.215-.644.29-1.01-.423-1.401-.748-.402-.334-.898-.73-1.307-1.028a87.406 87.406 0 0 1-5.231-4.111c-.64-.544-1.848-2.154-2.614-1.122 2.69.89 4.056 3.105 5.416 5.326-.009-.289.282-.278.561-.28 1.826 1.15 3.687 2.645 5.323 3.925.483.378 1.558.747 1.306 1.589-.78.148-1.273-.63-1.773-1.028-1.684-1.34-3.455-2.57-5.23-3.738.331.697.537 1.517.468 2.616.01.18.311-.11.559 0 1.442 1.112 2.995 2.44 4.389 3.551.41.328 1.426.686 1.028 1.495-.686.018-1.121-.653-1.588-1.028-1.233-.989-2.502-2.064-3.736-2.896-.22-.148-.688-.558-.746-.28-.121.688-.165 1.455-.374 2.055 1.764 1.63 3.95 3.312 5.603 5.046.466.49 1.55 1.352 1.12 2.056-.858-.164-1.229-1.036-1.773-1.588a63.92 63.92 0 0 0-4.576-4.206c-.187-.153-.497-.422-.748-.373-.081.323-.163.647-.373.84.894.978 2.097 1.923 3.175 2.898a84.1 84.1 0 0 0 1.587 1.401c.44.378 1.527.855 1.028 1.682-.715-.122-1.11-.798-1.587-1.215-1.552-1.348-3.002-2.668-4.67-3.83-.64 1.445-1.713 2.459-2.708 3.55.537.81.822 1.725 1.401 2.43.506.619 1.186.927 1.867 1.401.408.284.7.674 1.028.842 1.435.736 4.899 1.072 7.191.84.815-.082 1.703-.659 2.333.094.128 1.16.213 1.65.469 2.524zM353.06 38.79c1.649 1.269 2.771 2.855 3.83 4.86.714 1.354 1.517 3.581 1.68 5.607.224 2.763-.409 5.029-1.12 7.102-1.052 3.066-2.378 4.865-4.762 6.635-1.243.922-2.557 1.9-4.297 2.336-1.978.496-4.388.203-6.63-.28-.014 2.99-1.272 4.838-2.803 6.635-1.999 2.35-4.335 4.582-7.656 5.606-.82.253-1.769.434-2.616.654-.924.242-1.839.495-2.708.561-3.162.244-6.674-.677-9.245-1.868-1.264-.586-2.49-1.144-3.55-1.963-1.893-1.466-3.272-2.996-4.669-5.046-1.13-1.657-1.888-3.475-2.336-5.888-6.743.976-11.863-1.264-13.633-5.887-.359-.143-.531.3-.841.467-1.783.966-4.383 1.736-7.657 1.309-.775-.1-1.611-.53-2.335-.747-.406 2.234-1.587 3.949-2.429 5.886-.877 2.023-2.33 3.664-3.921 5.14-.622.576-1.367 1.07-2.241 1.496-.817.397-1.676.982-2.428 1.215-.959.293-2.536.34-3.643.28-2.479-.138-5.203-.509-7.47-1.402-1.019-.401-2.012-.906-2.99-1.402-.994-.504-2.077-1.01-2.8-1.589-.786-.627-1.36-1.656-2.055-2.616-1.526-2.104-2.86-4.582-3.456-7.663-1.154 0-2.349-.468-3.456-.935-1.137-.48-2.465-1.04-3.362-1.775-.477-.392-.902-1.048-1.401-1.588-1.173-1.279-2.243-2.573-3.08-4.299-1.202-2.476-1.937-6.951-1.589-10.186.298-2.763 1.011-4.658 2.241-6.541.505-.772 1.009-1.665 1.588-2.15.384-.32 1.056-.594 1.588-.934 1.52-.975 3.561-1.883 6.07-1.963-.496-2.147-.078-3.756.654-5.42 1.445-3.283 3.679-6.322 6.63-8.13 1.06-.649 1.95-1.048 3.362-1.588 1.742-.667 4.828-.862 7.565-.561 1.42.156 2.655.867 3.736 1.494a33.86 33.86 0 0 1 4.108 2.804c1.145.92 2.037 2.143 2.99 3.365.855-.168 1.48-.902 2.24-1.31 3.543-1.89 10.115-1.402 13.26.282.923-2.996 3.271-5.14 5.884-6.729 1.55-.94 2.698-1.412 4.763-1.588 1.816-.155 2.953.15 4.484.467 1.628.338 3.236.772 4.389 1.495.462.29.923.86 1.494 1.308.97.762 1.725.974 2.709 1.87.319.29.735.935.838.934.283-.004.635-.813.749-.935 1.276-1.369 3.608-2.3 5.883-3.083 2.922-1.007 5.82-1.595 9.806-1.309 3.121.224 6.027 1.558 8.592 2.71 1.36.611 2.516 1.254 3.641 2.056 1.492 1.063 2.914 2.155 4.11 3.458 1.913 2.084 3.163 4.426 3.829 7.943.09.479.07 1.173.28 1.588.233.465 1.054.772 1.4 1.402 1.408 2.553.443 6.527-1.214 8.41"/>
      <path d="M309.916 15.898c-.594.359-1.093-.287-1.588-.561-.499-.277-1.212-.657-1.774-.748-1.3-.212-2.942-.13-4.109 0-2.381.265-4.187 1.656-5.323 2.803-.302.236-.39.942-.934.654-.343-.678.348-1.238.84-1.682 1.265-1.139 3.268-2.359 5.417-2.616 2.27-.272 4.622-.006 6.07.747.23.12.619.39.84.562.305.234.734.393.56.84M337.185 15.617c-.98.312-1.785-.539-2.895-.748-2.02-.38-5.57-.057-7.378.28-.424.08-.923.087-1.307.188-1.201.315-2.125 1.255-3.175 1.12-.097-.623.68-.969 1.214-1.214.955-.436 1.846-.587 3.175-.842.336-.064.634-.24.934-.28.774-.1 1.853-.095 2.614-.186 1.717-.206 3.567.047 4.95.466.795.242 1.905.381 1.868 1.216M268.919 18.7c-.926-.028-1.631-1.031-2.242-1.682-1.717-1.217-4.321-1.72-6.91-1.027-2.008.536-4.253 2.016-5.416 3.363-.776.898-1.238 2.01-1.776 3.272-.15.352-.455.71-.559 1.028-.182.554.085 1.463-.748 1.682-.476-.177-.254-1.138-.093-1.682.2-.684.763-1.808 1.12-2.524.882-1.767 1.59-2.615 3.176-3.83.601-.463 1.41-.988 2.054-1.309 1.276-.635 2.354-.874 4.11-1.028 2.37-.208 4.811.449 5.976 2.055.52.425 1.573.78 1.308 1.683M340.174 16.27c.056.46-.09.72-.56.654-.446-.366.044-1.026.56-.654M312.531 17.86c.028.37-.18.506-.561.467-.041-.084-.082-.168-.187-.187-.175-.613.648-.732.748-.28M349.887 36.082c-.42-.437-.197-1.25-.187-1.87.034-2.291-.265-3.993-.655-5.887-.505-2.456-1.226-4.43-2.614-6.073-.66-.781-1.328-1.684-1.775-2.617v-.187c.788-.457 1.155.713 1.681 1.4.58.76 1.185 1.364 1.683 2.244.86 1.531 1.547 3.481 1.96 5.701.351 1.902.618 3.184.56 5.607-.016.702.106 1.67-.653 1.682M271.067 20.008v.468c-.125.133-.53.133-.654 0-.222-.421.3-.858.654-.468M289.278 22.251c-.707.24-1.014-.451-1.494-.654-1.035-.436-3.283-.746-4.95-.56-1.529.17-3.187.783-4.297 1.401-1.033.577-1.53 1.492-2.147 2.15-.106.364-.356 1.073-.748.84-.616-.217-.07-.933.094-1.214 1.414-2.435 4.772-4.232 9.34-3.925.819.055 1.93.194 2.708.467.602.211 1.708.67 1.494 1.495M290.21 22.812c.356-.044.584.04.655.28-.016.393-.33.542-.655.374-.132-.124-.132-.529 0-.654M292.266 25.335c.198.219.28.744 0 .935-.737.12-.9-1.114 0-.935M293.853 28.7c.504.865.301 2.071.187 2.99-.155 1.251-.592 2.285-1.121 3.177-.295.498-.56.675-.934 1.122-.523.626-.818 1.137-1.587 1.682-.373.264-.83.774-1.308.28.251-.777 1.064-.991 1.59-1.495.2-.195.441-.497.652-.748 1.24-1.485 2.17-3.58 2.054-6.634-.068-.256.186-.19.188-.374h.28M246.32 29.914c-.282.658-1.035.9-1.589 1.215-1.645.936-3.109 2.296-4.388 3.738-.472 1.275-1.343 2.646-1.495 4.392-.066.761.303 2.088-.374 2.616-.735-.25-.538-1.405-.467-2.336.11-1.448.6-2.737 1.12-3.831.182-.38.287-.808.468-1.121.561-.974 1.713-2.014 2.615-2.71 1.115-.862 2.266-1.457 3.268-2.056.182-.11.642-.433.841.093M349.7 38.605h-.469c-.55-1.02 1.187-.77.47 0M352.034 56.08c-.102-.979.487-1.798.747-2.71.447-1.563.85-3.23.654-5.514-.27-3.133-2.332-5.21-3.829-7.008a.438.438 0 0 0 .094-.28c.615-.343 1.2.439 1.774 1.214 1.095 1.478 2.511 3.43 2.708 5.7.276 3.17-.35 5.528-1.214 7.664-.182.448-.265 1.184-.934.934M287.596 40.942c.461-.056.72.09.654.56-.234.135-.366.226-.654.093-.133-.124-.133-.53 0-.653M283.207 55.52c.29-.866 1.44-.155 1.962-.094.822.096 1.57-.03 2.147-.28 1.819-.792 4.217-2.355 4.95-4.393.274-.763.569-2.725.373-3.831-.154-.873-1.082-2.385-1.68-2.99-.423-.428-1.096-.495-1.401-1.028.28-.904 1.509-.033 2.053.56.708.77 1.07 1.45 1.496 2.43.504 1.16.439 3.729-.095 5.14-.474 1.254-1.628 2.576-2.614 3.27-.362.256-.904.4-1.308.655-.97.613-1.859 1.391-3.548 1.308-.46-.022-.895-.174-1.308-.28-.314-.081-.985.071-1.027-.468M350.166 44.586c.045.356-.038.583-.28.654-1.019.033-.391-1.423.28-.654M239.315 46.175v.467c-.32.229-.888.06-.748-.467.252-.2.497-.2.748 0"/>
      <path d="M289.09 46.642c-.207.195-.62.072-.747-.094-.108-.724.97-.73.747.094M350.82 46.267c.52-.004.676.741.84 1.216.345.996.683 2.533.467 4.112-.152 1.118-1.15 2.845-1.775 3.831-.878 1.39-1.85 2.245-3.548 2.897-1.51.578-3.43 1.006-5.51 1.215-.411.04-1.162.307-1.4-.28.325-.782 1.324-.502 1.867-.562 1.977-.214 4.022-.666 5.696-1.495 1.013-.5 1.57-1.275 2.242-2.336.867-1.37 1.99-2.91 1.681-5.42-.122-1-.67-1.654-.842-2.897-.025-.15.09-.16.095-.28h.187M289.184 47.95c.52.86.3 2.176-.094 2.99-.228.473-1.358 1.752-1.868 2.15-.992.775-2.476.85-4.296 1.028-.917.089-2.57.461-2.707-.654.556-.29 1.26-.078 1.868-.094 1.687-.046 3.59-.178 4.576-.934 1.184-.91 2.068-2.008 2.053-4.113-.067-.255.187-.187.187-.373h.28M246.506 54.118c-.369.367-.93.157-1.308 0-.99-.412-2.747-1.658-3.455-2.337-.366-.35-.742-.903-1.027-1.308-.31-.44-.742-.898-.655-1.402-.05-.207.18-.133.186-.28.11-.016.168.02.188.094.75.651 1.196 1.605 1.868 2.336.74.388 1.293 1.035 2.054 1.495.701.422 1.782.562 2.149 1.402M278.818 53.464c.03.37-.179.505-.56.467-.041-.084-.083-.168-.187-.188-.176-.613.646-.732.747-.28M277.51 54.211c.686 1.418-.055 3.06-.467 4.392-.42 1.36-.917 2.796-1.587 3.831-.818 1.265-3.322 3.298-4.857 4.019a9.05 9.05 0 0 1-1.68.56c-.522.11-1.44.36-1.775-.28.261-.842.925-.383 1.4-.467 2.131-.38 4.665-2.314 6.072-4.019.521-.632 1.011-2 1.4-3.083.349-.97.816-2.096.934-3.084.067-.556-.124-1.116.093-1.682.08-.14.236-.2.468-.187M301.699 60.285c-.702.1-1.19-.621-1.683-1.028a78.265 78.265 0 0 1-3.081-2.71c-.48-.441-1.209-.874-1.307-1.588.075-.08.255-.056.279-.188.11-.015.167.021.188.094 1.118.643 1.973 1.729 2.988 2.616.459.402 1.098.8 1.589 1.215.438.374 1.255.838 1.027 1.589M279.004 55.613c.249 0 .534-.036.654.093.014.23.015.45-.093.561-.553.107-.778-.257-.56-.654M299.83 61.127c-.673.35-1.01-.509-1.401-.842-.432-.368-.871-.685-1.307-1.121-.306-.307-.765-.775-1.215-1.215-.536-.525-1.244-.756-1.213-1.495a.436.436 0 0 1 .28-.094c1.421.536 2.271 2.047 3.362 2.99.584.506 1.609.832 1.494 1.777M262.289 68.228c-.254.48-.788.004-1.028-.093-1.565-.631-3.219-1.507-4.483-2.617-1.127-.99-2.023-1.82-2.988-3.084-1.201-1.57-2.28-3.334-2.988-5.513a.665.665 0 0 0 .186-.28h.187c.6.337.782 1.072 1.028 1.588 1.522 3.2 3.75 6.106 6.816 7.85.783.445 1.506.783 2.335 1.215.334.173 1.188.347.935.934"/>
      <path d="M279.191 57.295c.248 2.088-.515 4.276-1.4 5.887-.118.214-.387.38-.561.654-.302.476-.52 1.107-.934 1.495-.27.252-.738.459-1.12.748-.345.26-.696.639-1.028.84-.65.398-1.579.613-2.334 1.03-.658.36-1.51 1.386-2.241.56.134-.526.806-.628 1.214-.841.405-.214.807-.557 1.213-.748.424-.198.906-.249 1.308-.467.396-.214.82-.55 1.214-.841 1.077-.8 1.903-1.589 2.614-2.897.82-1.505 1.279-3.036 1.308-5.046.08.017.089-.037.093-.094a.439.439 0 0 0 .094-.28h.56M350.82 58.79c.029.371-.179.506-.56.467-.042-.083-.083-.167-.187-.187-.176-.613.647-.733.747-.28M346.523 60.566c-.332.866-2.305.404-2.988.186-.011-.23-.014-.45.093-.56.74-.013 2.487-.253 2.895.374M335.97 61.78c.46-.055.721.09.656.56-.235.136-.368.227-.656.094-.131-.124-.131-.529 0-.654M335.037 62.808c.622.175.17.724.095 1.028-.345 1.373-1.268 2.528-2.336 3.738-.492.559-1.154 1.063-1.774 1.589-1.197 1.013-2.405 1.801-4.39 2.243-.845.188-1.712.442-2.427.467-.934.031-1.908-.304-2.802-.561-.833-.24-2.03-.238-2.149-1.214.547-.348 1.173.108 1.682.28.929.313 1.926.716 3.362.653 3.452-.148 5.863-1.828 7.751-3.924 1.235-1.371 2.24-2.814 2.614-4.205.026-.085.35-.314.374-.094M310.01 62.808c.647.944.858 2.105 1.4 3.084 1.162 2.094 2.62 3.403 4.482 4.953.93.772 1.95 1.59 2.896 2.056.488.24 1.463.208 1.307.934-.132.557-.729.09-1.028 0-1.664-.725-3.352-1.977-4.762-3.177-1.46-1.244-2.383-2.393-3.455-4.3-.537-.954-1.589-2.624-1.12-3.55h.28M338.4 65.425c-.113 1.518-1.034 2.695-1.774 3.738-.638.894-1.095 1.419-2.056 2.149-.47.358-.99.57-1.494.84-.347.187-.618.489-.933.655-.342.18-.813.202-1.216.374-.336.144-.623.42-.933.56-.64.29-1.676.787-2.24.188.094-.683.814-.513 1.212-.655 2.278-.807 4.466-2.122 6.258-3.457.78-1.493 2.083-2.463 2.427-4.392.035-.123.165-.147.187-.28.362-.082.334.228.561.28M265.09 67.948c.044.356-.04.583-.28.654-.34-.003-.412-.274-.375-.654.126-.133.53-.133.655 0M255.47 76.825c-.18-.441-1.133-1.713-1.493-1.962-1.174-.811-3.315-.475-4.39.28-.348.246-1.103 1-1.214 1.496-.208.935.258 2.268.841 2.896 1.107 1.195 3.18 1.441 5.323 1.122.535-.08 1.015-.34 1.307-.654-.083-1.337.015-2.23-.373-3.178zm-4.762 5.234c-.777-.47-1.78-.766-2.428-1.402-.733-.718-1.718-2.758-1.308-4.579.323-1.431 2.85-2.916 4.576-3.084 2.182-.213 3.244.658 4.202 1.869.412.52.905.998 1.122 1.59.299.812.724 2.86.28 4.11-.698 1.97-4.175 1.469-6.444 1.496M345.123 83.273c1.017-.895 1.674-1.746 2.428-2.803.667-.934.91-1.283.841-2.803-.077-1.637-.54-3.031-2.149-2.804-1.11.158-2.802 1.308-3.64 2.243-.777.865-1.849 3.444-1.589 5.233.059.41.423.757.466 1.121.04.325-.25.492-.093.842 1.746.519 2.657-.08 3.736-1.029zm1.307-9.812c.384-.028 1.316.074 1.776.374.893.586 1.411 1.766 1.586 3.458.217 2.078-.333 3.083-1.307 4.392-.846 1.138-1.696 1.986-2.802 2.897-1.11.915-2.16 1.673-4.203 1.215-.349-.079-1.17-.364-1.4-.748-.256-.428-.01-.883-.094-1.401-.074-.472-.333-.802-.372-1.122-.21-1.723.385-3.84 1.12-5.233.762-1.448 2.737-2.981 4.202-3.551.526-.205.984-.242 1.494-.28M323.176 74.116c-.073.435-.616.589-.932.28-.18-.823.783-.747.932-.28M349.14 88.32c.284.213.467.529.746.747 1.269-.14 1.898-1.785 1.309-3.177-1.455.039-2.143.846-2.055 2.43zm-.561 2.055c-.534-1.026-1.112-1.99-.84-3.364.318-1.597 2.226-3.077 4.015-2.43.978.354 1.331 2.16 1.028 3.552-.125.573-.807 1.547-1.122 1.775-.748.544-2.012.619-3.081.467M245.759 86.357c.003.775.376 1.18.933 1.402.278-.251.697-.362 1.028-.56-.219-.723-1.24-1.469-1.961-.842zm-.188 2.804c-1.002-.81-1.664-2.875-.84-3.832 1.347-1.563 5.145.05 4.296 2.43-.283.793-2.19 1.76-3.456 1.402"/>
   </g>
   <clipPath id="q">
      <path transform="scale(.24)" d="M156.25 1092.135h250v315.625h-250z" fill-rule="evenodd"/>
   </clipPath>
   <g clip-path="url(#q)" fill="#040606" fill-rule="evenodd">
      <path d="M69.97 262.73c-.325.497-.92.323-1.356.43-.815.198-1.558.616-2.355.856-1.404.421-2.775.921-3.995 1.57-.869.463-1.742 1.24-2.57 1.928-.68.567-1.317 1.034-1.997 1.713-.192.192-.36.385-.57.571-.907.797-1.714 1.967-2.426 3.07-.29.45-.55.929-.785 1.427-.171.364-.261 1.132-.856 1.143-.4-.299.15-1.067.356-1.5.248-.519.541-1.05.785-1.427.28-.376.577-.896.928-1.357.544-.716.896-1.197 1.57-1.785.836-.73 1.648-1.61 2.568-2.355.278-.224.575-.43.856-.643.583-.439 1.15-.964 1.713-1.285.364-.208.894-.356 1.355-.57.438-.205.851-.477 1.284-.643.72-.276 1.53-.341 2.284-.642.456-.183.9-.474 1.57-.643.667-.169 1.402-.455 1.64.143M57.484 309.274c-.627.362-1.095 1.142-1.713 1.642-.46.374-1.042.685-1.57 1.071-1.259.922-2.158 1.96-3.21 3.07-.577.607-1.25 1.127-1.927 1.712-1.275 1.104-2.402 2.408-3.639 3.57-1.238 1.164-2.33 2.505-3.282 3.926-.733 1.095-1.488 2.223-2.069 3.355-.409.797-1.021 1.924-1.141 2.784-.359 2.565.656 4.105 1.854 5.212.79.729 1.485 1.196 2.998 1.07 1.247-.103 2.049-.975 2.782-1.499.32-.228.678-.367.927-.57.687-.563 1.321-1.352 1.999-2.071.159-.17.413-.26.57-.428.17-.181.28-.45.428-.643 1.482-1.914 3.14-4.127 4.353-5.925-1.417-.616-2.095-2.381-2.64-3.855-.12-.323-.608-.91 0-1.07.609.433.646 1.422 1.07 2.212.3.56.907 1.711 1.427 1.928.168.07.417 0 .57.143a130.659 130.659 0 0 0 3.854-5.925c.183-.3.44-.568.57-.857.139-.307.144-.7.286-1 .384-.81 1.169-1.41 1.213-2.355-.002.196-.337.17-.428.071-.233-.407-.253-.801-.5-1.213-.317-.532-1.206-.903-.856-1.57.571.128.926.64 1.213 1.07.304.455.528 1.007.713 1.57.361-.829.677-1.702 1.07-2.498-1.963-.653-3.482-1.751-4.922-2.927zm7.492 1.785c.545.098 1.153-.623 1.497-1.071-.874-.458-1.95-.713-2.782-1.213.26.634.777 2.192 1.285 2.284zm-2.355-1.142c.272.56.765 1.281 1.142 1.356.146.03.33.036.499-.072-.561-.77-1.112-1.552-1.213-2.784-.461-.063-.852-.573-1.141-.571.205.484.35 1.322.713 2.07zm-5.137-4.926c-.266.988.02 1.704.285 2.356.426 1.046.869 1.433 1.641 1.999.483.353.918.781 1.356.784-.233-.223-.4-.638-.571-.998-.16-.338-.532-.806-.214-1.142.612.067.736.846.999 1.356.415.804.757 1.75 1.64 1.641-.54-.863-1.082-1.724-1.212-2.997.052-.186.289-.187.428-.286a18.706 18.706 0 0 1-3.853-3.784c-.059.482-.41.735-.499 1.071zm14.627-37.478c-1.229.231-2.358.401-3.425.714-1.541.452-3.088 1.112-4.424 1.713-.475.214-1.005.405-1.427.643-.223.126-.43.379-.714.57-.28.191-.613.304-.856.5-.218.177-.418.457-.642.643-.268.222-.585.366-.785.572-.356.368-.64.915-.999 1.356-.362.445-.763.844-1.07 1.284-.301.432-.549.993-.856 1.5-.306.502-.725.96-.928 1.428-.275.633-.267 1.296-.499 1.855-.262.632-.653 1.268-.785 1.785-.461 1.805-.48 4.288-.57 6.283-.054 1.164-.243 2.205-.215 3.211.062 2.243.8 3.735 1.57 5.283.747 1.503 1.432 3.224 2.283 4.568.472.746.85 1.412 1.356 2.07.516.675.936 1.368 1.498 1.857.63.548 1.262 1.022 1.927 1.499 1.309.939 2.853 1.461 4.637 2.213.813.343 1.577.682 2.498.857 3.858.728 9.059.411 12.343-.571.865-.259 1.645-.611 2.498-.929.412-.153.88-.245 1.284-.427.393-.18.76-.384 1.141-.572.763-.375 1.544-.78 2.14-1.285.398-.335.54-.625.857-1.07.546-.768 1.12-1.574 1.57-2.356.674-1.174 1.38-2.148 1.926-3.355.278-.615.538-1.196.785-1.857.694-1.858 1.575-3.992 1.784-6.14.265-2.728.273-5.207.07-7.922-.183-2.484-1.062-4.467-2.068-6.212-.53-.918-1.05-1.621-1.784-2.355-1.017-1.018-2.034-2.216-3.14-3.07-1.162-.897-2.389-1.886-3.638-2.57-2.25-1.23-5.946-2.239-9.347-1.927-1.47.135-2.797-.01-3.995.214zm17.98.143c-.023-.623-.518-1.663-.786-1.855-1.056-.764-2.272.24-2.925.784-.53.443-1.16.883-1.284 1.357 1.712.596 2.872 1.743 4.282 2.64.073-.926.751-1.902.713-2.926zm.143 3.498c2.067 2.324 4.282 4.033 5.565 6.924.132.298.222.655.356 1 1.24 3.164 1.346 8.029.928 12.492-.134 1.437-.633 2.98-1.142 4.498-.473 1.412-.985 2.932-1.57 4.069-.66 1.287-1.435 2.323-2.14 3.497-.71 1.186-1.487 2.512-2.354 3.284-.76.676-2.01 1.142-3.069 1.714-.385.207-.649.539-.926.642-.42.156-.898.118-1.356.286-.857.313-1.622.745-2.498.999-.93.27-1.919.355-2.997.5-3.764.502-8.143.597-11.344-.571-1.05.925-1.965 1.984-4.067 1.855-.693 1.257-1.216 2.74-1.927 4.07-.216.405-.515.795-.713 1.213-.17.36-.186.788-.357 1.142-.187.39-.58.763-.856 1.215-.753 1.23-1.51 2.483-2.355 3.711-.557.81-1.116 1.602-1.641 2.427-1.054 1.659-2.238 3.11-3.425 4.712-1.433 1.934-2.998 3.766-4.994 5.211-.677.49-1.524 1.204-2.355 1.499-.832.296-1.328.244-2.212.143-.39-.045-.75-.003-.999-.071-.835-.23-2.07-1.428-2.64-2.142-1.027-1.289-1.646-2.823-1.355-5.069.06-.459.304-1.04.5-1.57.502-1.365 1.45-2.668 2.14-3.855.52-.895.972-1.678 1.57-2.427 1.229-1.54 2.427-2.786 3.852-4.212 1.345-1.344 2.798-2.513 4.139-3.855 1.099-1.1 1.954-2.112 3.21-3.07.834-.634 1.818-1.218 2.569-1.998.383-.398.71-.838 1.213-1.07-.129-.594-.546-1.174-.642-1.857-.202-1.435.456-2.705.999-3.57-.898-1.411-1.69-3.169-2.497-4.854-1.142-2.384-2.266-4.46-1.998-8.28.093-1.324.265-2.793.357-4.212.09-1.406.171-2.836.5-3.998.16-.568.549-1.142.784-1.784.232-.634.288-1.415.57-2 .15-.308.419-.636.643-.998.986-1.592 2.112-3.367 3.425-4.712.267-.274.628-.45.927-.714.435-.383.685-.756 1.213-1.07.09-.054.193-.017.285-.072.076-.044.088-.177.143-.214.77-.52 1.816-.927 2.783-1.357.643-.285 1.322-.52 1.997-.785 1.38-.54 2.625-.896 4.425-1.214.796-.14 1.583-.363 2.354-.428.925-.078 1.929-.027 2.925-.071 2.954-.13 5.434.349 7.635 1.214.516-.2.812-.728 1.213-1.07 1.008-.865 3.038-2.737 4.995-1.357.581.41 1.221 1.958 1.141 3.068-.04.548-.262 1.085-.428 1.642-.166.557-.14 1.188-.5 1.5"/>
      <path d="M66.473 267.157c.005.576-.607.304-.999.357-1.313.175-2.594.682-3.638 1.142-.703.31-1.324.732-1.855 1.142-.8.617-1.249 1.387-2.141 1.999-.21.144-.527.579-.856.214.05-.656.774-.8 1.213-1.213.486-.458.832-1.091 1.356-1.5.679-.531 1.708-1.049 2.71-1.428 1.05-.395 2.125-.817 3.14-.927.33-.036.809-.307 1.07.214M89.734 268.584c-.542-.219-.837-.685-1.141-1.142-.052-.196.141-.144.142-.286.63.119 1.369.772.999 1.428M89.377 269.94c-.622.004-.713-.523-.999-.855-.299-.178-.627-.326-.785-.644-.02-.115.067-.122.072-.214.712-.23 1.94.999 1.712 1.713M89.091 276.65c-.861-1.185-2.443-2.348-3.78-3.14-1.496-.885-3.267-1.672-4.995-2.284-.474-.168-.966-.245-1.5-.357-1.08-.229-2.11-.585-3.21-.5-1.235.096-2.632.204-3.781.429-.635.123-1.292.439-1.927.642-.696.222-1.334.444-1.926.714-2.508 1.146-4.623 2.262-6.28 4.14-.393.447-.688 1.001-1.069 1.5-.394.513-.81.975-1.142 1.498a22.042 22.042 0 0 0-.999 1.714c-.284.554-.638 1.222-.856 1.855-1.04 3.029-.49 7.476.071 10.494.406 2.18.858 3.872 1.641 5.354.452.854.96 1.434 1.499 2.07.565.668.792.964 1.427 1.428.686.502 1.222.782 1.998 1.214.416.232.813.493 1.212.714 1.628.897 2.834 1.366 4.71 1.856.691.18 1.439.432 2.14.5 1.751.169 3.157-.122 4.567-.286 1.229-.143 2.474-.169 3.425-.428 1.02-.28 1.513-.55 2.354-.928.449-.203.932-.324 1.427-.5.433-.155.845-.44 1.284-.642.576-.265 1.15-.483 1.499-.715 1.234-.824 1.793-1.725 2.498-2.926.644-1.102 1.134-2.344 1.711-3.426.304-.57.72-1.063.928-1.643.377-1.056.576-2.42.713-3.712.147-1.386.36-2.805.214-4.212-.115-1.117-.551-2.216-.927-3.212-.205-.54-.315-1.03-.5-1.57-.157-.46-.536-.874-.5-1.428-.59-1.498-1.044-2.999-1.926-4.212zm-13.77-7.28c.15-.008.954-.122 1.498-.071 1.869.171 3.85.874 5.637 1.57.825.32 1.655.708 2.426 1.142 1.912 1.077 3.281 1.903 4.709 3.57.588.685.732 1.103 1.213 1.998.371.69.642 1.34.999 2.213.168.413.215.792.357 1.214.125.376.378.726.499 1.141.12.416.136.877.285 1.286.296.805.656 1.552.856 2.355.412 1.652.289 3.521.073 5.355-.202 1.696-.477 3.352-1.072 4.71-.305.7-.752 1.44-1.14 2.213-1.086 2.16-2.134 4.471-4.068 5.783-1.119.76-2.761 1.337-4.21 1.928-1.113.453-2.452 1.111-3.852 1.356-.73.127-1.611.035-2.497.143-1.4.17-2.756.49-4.424.357-.836-.067-1.703-.353-2.569-.572-.858-.217-1.76-.362-2.498-.642-.56-.213-1.118-.63-1.712-.928-.309-.156-.633-.194-.927-.357-.252-.139-.448-.411-.714-.571-.58-.348-1.17-.581-1.712-.928-.26-.166-.526-.319-.785-.5-.264-.185-.565-.315-.785-.5-.447-.377-.827-1.02-1.284-1.57a10.373 10.373 0 0 1-1.142-1.642c-.687-1.258-1.083-2.636-1.427-4.14-.697-3.051-1.426-6.406-1.07-10.137.118-1.234.541-2.455.999-3.426.623-1.325 1.154-2.521 1.926-3.57.301-.409.604-.774.928-1.213 1.23-1.672 2.719-3.128 4.566-4.212a31.12 31.12 0 0 1 3.639-1.785c2.14-.87 4.061-1.427 7.135-1.57.048-.003.095.002.143 0"/>
      <path d="M72.324 270.94c.545.354.558 1.33.786 2.07.206.672.8 1.598.213 2.07-.516-.123-.362-.666-.499-1.142-.12-.411-.295-.86-.428-1.356-.17-.628-.533-1.211-.214-1.642h.142M74.679 271.083c.246.526.318 1.203.5 1.856.148.536.604 1.27.141 1.714-.458.027-.405-.541-.499-.857-.201-.684-.475-1.578-.642-2.427-.051-.195.142-.144.143-.286h.357M76.32 271.083c.174.68.635 1.78.713 2.641.03.316.16.947-.285 1.071-.457-.055-.234-.536-.285-.786-.179-.86-.464-1.829-.643-2.64-.009-.129.087-.15.072-.286h.428M70.826 271.368c.568.332.539 1.177.714 1.856.17.66.565 1.374.428 2-.627.209-.748-.824-.928-1.5-.086-.322-.117-.713-.214-1.07-.156-.575-.466-.915-.143-1.286h.143M78.032 271.511c.278.537.265 1.216.428 1.856.15.59.507 1.225.286 1.713-.51.14-.537-.443-.643-.785a19.686 19.686 0 0 1-.57-2.499c-.052-.193.141-.143.143-.285h.356M69.399 271.94c.394.05.344.636.428.999.17.738.346 1.49.5 2.356.06.346.28.793-.143.928-.518-.17-.495-1.069-.643-1.856-.14-.75-.545-1.651-.428-2.142.029-.119.032-.276.286-.285M79.674 272.225c.257.173.156.509.214.857.108.656.43 1.603 0 1.998-.723-.265-.436-1.736-.643-2.57.146-.092.13-.346.429-.285M67.972 272.939c.356.124.268.55.356.857.206.712.56 1.545.5 2.213-.083-.012-.127.015-.142.071-.561-.1-.52-.76-.643-1.213-.156-.577-.449-1.227-.428-1.856.106 0 .292-.265.357-.072M80.6 272.939c.212.37.201.942.286 1.499.074.48.347 1.152-.07 1.428-.534.004-.473-1.161-.572-1.857-.067-.47-.276-.939.143-1.141.115-.02.123.067.213.07M82.527 273.082c.032.317-.04.531-.356.5-.002-.07-.088-.056-.143-.071-.138-.434.217-.642.5-.429M67.33 276.937c-.555.051-.65-.705-.785-1.213-.194-.732-.451-1.48-.286-2.357.267-.007.204-.08.429 0 .142.63.198 1.316.357 1.928.15.577.567 1.129.285 1.642M81.814 274.224c.078.426.616 1.886-.285 1.784-.055-.45-.653-1.85.285-1.784M82.813 274.438c-.066.842.586 1.813.143 2.356-.435.15-.34-.312-.429-.57-.127-.374-.303-.892-.214-1.572-.02-.115.068-.123.071-.214h.429M64.904 274.652c.236.568.285 1.233.428 1.856.142.62.432 1.248.285 1.856-.656.137-.656-.797-.785-1.285-.187-.71-.347-1.347-.357-2.213-.02-.115.068-.122.072-.214h.357M85.453 275.723c-.064.032-.128.063-.143.143-1.292.017.043-1.505.143-.143M83.812 275.58c.167.213.267.494.357.785.176-.01.344-.01.428.072.033.271-.03.446-.215.5-.369-.107-.321-.31-.713-.286-.113-.268-.296-.465-.285-.857.116-.098.176-.252.428-.215M63.548 275.866c.174.526.137 1.08.286 1.642.202.768.76 1.587.356 2.213-.621-.125-.585-1.074-.784-1.713-.197-.63-.437-1.32-.357-2.07.178-.104.28-.174.5-.072M90.947 283.29c-.575-.208-.418-.916-.5-1.285-.36-1.634-1.287-2.635-2.212-3.784-.321-.4-.64-.704-1.07-1.07.037-.177.174-.255.286-.357.083-.012.127.016.142.07.676.175.887.78 1.356 1.357.257.317.63.558.856.857.121.16.153.43.286.642.113.181.336.327.428.5.275.522.374 1.244.5 1.856.073.363.486 1.014-.072 1.213M85.595 278.15c-.602.08-.58-.466-.856-.714.247-.816 1.176.118.856.714M62.193 277.222c.212.797.27 1.731.5 2.57.132.486.55 1.12.07 1.5-.463-.084-.51-.79-.642-1.286-.2-.75-.393-1.537-.357-2.57.025-.093.126-.112.143-.214h.286M60.908 278.864c.255.282.106.67.143 1 .107.964.564 1.86.5 2.712-.469.132-.654-.484-.785-.928-.208-.7-.364-1.756-.286-2.57-.02-.115.068-.123.072-.214h.356"/>
      <path d="M89.378 280.363c-.042.69-.155 1.627-.786 1.5-.256-.413.209-1.049.286-1.572.19.001.407-.027.5.072M60.195 281.362c.202.324.136.682.214 1.071.15.745.656 1.479.428 2.07-.536.051-.841-.965-.999-1.642-.117-.503-.201-1.207 0-1.499h.357M89.805 281.791c.291.605-.307 2.096-1.07 1.642.164-.62.566-1.005.713-1.642h.357M90.377 283.646c-.227.463-.358 1.326-1 1.143.012.297.025.596-.142.713-.617.02-.435-.422-.428-.927.903.127.82-1.796 1.57-.929M60.195 286.217c-.592.065-.707-.564-.857-.928-.167-.41-.373-.875-.356-1.356.057-.062.195-.044.214-.144a.329.329 0 0 0 .214.071c.258.753.838 1.527.785 2.357M90.804 284.432c.05.43-.029.732-.5.642-.357-.358.064-1.116.5-.642M90.304 285.502c.086.2.079.494.072.786.115.106.343-.047.5.143-.02.757.324 1.15.428 1.785-.064.03-.128.062-.143.143-.718-.068-.726-.845-.857-1.5-.007-.137-.238.084-.428 0-.238-.376-.284-1.728.428-1.357M91.732 286.074c.343.116.345.717.142 1-.71.225-.634-1.034-.142-1M89.591 286.86v.357c-.173.116-.346.181-.57.07.204.704.931 1.25.784 2.071-.612.08-.682-.582-.856-.928-.191-.381-.55-.766-.571-1.213.13-.18.441-.18.571 0-.124-.526.406-.586.642-.358M59.482 287.073c.201.144.26.899-.144.857-.439.027-.421-1.05.144-.857M88.021 288.073c.465.287.598.922.856 1.428.236.46.742.908.642 1.427-.682.207-1.03-.92-1.355-1.57-.203-.406-.588-.71-.357-1.285h.214M59.553 289.428c.351.379.3 1.69-.215 1.857-.526-.172-.213-1.522 0-1.857h.215M60.623 292.285c.21.751.114 1.965.214 3.069.048.53.425 1.105 0 1.428h-.143c-.396-.309-.452-1.081-.5-1.785-.018-.28.015-.643 0-.928-.053-.14-.227.194-.5.071-.29-.294-.572-1.275-.141-1.642.644-.121.314.734.499 1.071.246-.372-.253-1.49.571-1.284M61.622 293.57c.462.12.277.698.285 1.07.03 1.459.258 2.997.286 4.14-.596.141-.566-.568-.643-.998-.19-1.076-.27-2.622-.214-3.998.026-.095.126-.113.143-.215h.143M62.977 300.28c-.593.41-1.37-.728-.57-.857.275.2.588.364.57.856M95.584 303.778h.357c.194.947-.637 1.445-1.142 1.927-.86.926-1.878 1.822-2.925 2.713-1.005.855-2.21 1.495-3.425 2.141-2.445 1.303-4.932 2.767-8.063 3.07-.862.083-1.926 0-2.996 0-.976 0-2.04.071-2.925 0-.547-.044-1.118-.201-1.641-.286-.46-.073-1.207.036-1.285-.57.464-.445 1.053-.002 1.57.07 1.202.171 2.692.144 4.28.144 1.752-.001 3.297.052 4.71-.286.568-.136 1.188-.361 1.784-.571.55-.194 1.18-.417 1.64-.642.437-.213.868-.599 1.357-.858 1.362-.721 2.956-1.405 4.137-2.355.743-.597 1.541-1.301 2.355-2 .935-.799 1.768-1.618 2.212-2.497M76.32 305.49v.358c-.146.11-.64.11-.785 0-.185-.575.568-.615.785-.357M96.511 307.775c.207.607-.478.928-.855 1.214-.85.644-1.665 1.144-2.64 1.713-.446.26-.85.611-1.284.857-1.34.754-2.967 1.391-4.424 2.141-.765.393-1.398.67-2.284.929-.514.149-1.016.277-1.854.213-.264-.02-.776.118-.786-.285.244-.527 1.15-.235 1.57-.285.372-.045.773-.31 1.213-.429.198-.053.403-.016.571-.071.646-.21 1.239-.677 1.926-1 .334-.156.724-.26 1.07-.428.871-.422 1.97-.909 2.855-1.428.397-.232.743-.555 1.141-.785.404-.233.849-.41 1.213-.642.87-.557 1.54-1.191 2.212-1.785.202-.059.185.1.356.071M64.975 309.488c.123.398.81 1.059.285 1.428-.535-.178-.669-.758-.785-1.356.093-.098.31-.071.5-.072M61.408 313.914c-.374-.006-.365-.397-.5-.642-.161-.316-.662-.805-.285-1.214.202-.058.185.1.357.072.13.53 1.008 1.232.428 1.784M93.159 312.701c-.072.44-.597.582-.928.857-.643.533-1.201 1.007-1.998 1.499-.307.189-.776.66-1.142.143.007-.375.366-.397.642-.5a39.69 39.69 0 0 0 2.926-2.214c.271-.033.445.03.5.215M59.695 315.556c-.092.099-.31.07-.5.071-.57-.59.66-.967.5-.071M58.839 316.342c-.095.102-.404.102-.5 0a.298.298 0 0 1 .5 0M58.411 317.484c-.092.099-.31.07-.5.071-.19-.333-.425-.621-.5-1.07.515-.56.93.443 1 .999M57.198 317.412c.158.54.794.956.57 1.642-.65.013-.951-.994-1.07-1.57.093-.099.31-.071.5-.072M55.985 318.269c.3.389.453.888.714 1.284.19.29.473.452.57.786-.988.676-1.362-1.238-1.783-1.784-.01-.129.087-.15.07-.286h.429M54.844 318.911c.287.568.422 1.134.713 1.642.286.5.749.866.928 1.428-.54.4-1.035-.415-1.356-.928-.388-.62-.81-1.49-.642-2.142h.357M55.486 323.41c-.654-.186-1.021-.87-1.356-1.357-.346-.505-.776-1.091-.785-1.856.107 0 .292-.266.357-.072.31.175.354.562.5.857.139.284.303.581.499.856.336.472 1.104.942.785 1.571M50.705 321.695c.446.115.32.57.428.857.473 1.265 1.352 2.34 2.07 3.355.205.008.467-.039.57.072.073.381-.098.52-.285.642-.737-.05-1.23-.911-1.712-1.642-.443-.67-.985-1.492-1.213-2.142-.135-.38-.227-.888 0-1.142h.142M51.99 328.049c-.506.25-.86-.29-1.07-.643-.46-.768-.786-1.497-1.213-2.355-.195-.391-.537-.817-.429-1.214-.053-.159.263-.294.286-.143.533.44.691 1.154.999 1.785.295.606.752 1.17.998 1.785.124.287.662.356.429.785M48.85 326.264c.486.188.523.723.785 1.142.366.585 1.192 1.07 1.07 1.856-.658-.06-.979-.73-1.284-1.142a5.882 5.882 0 0 1-.856-1.57c-.052-.196.141-.144.143-.286h.142M49.707 330.762c-.807.068-1.235-.823-1.57-1.429-.36-.65-.824-1.38-.856-2.212.106.001.291-.266.356-.072.315.241.343.668.5 1a9.219 9.219 0 0 0 1.141 1.856c.19.233.598.485.429.857M48.493 332.19c-.548.165-.72-.508-.927-.858-.642-1.082-1.436-2.428-1.926-3.712.46-.894.817.39 1.07.929a30.39 30.39 0 0 0 1.284 2.426c.235.41.733.745.5 1.214M44.997 328.335c.23.273.118.635.214.927.12.362.394.64.571 1 .169.343.273.738.428 1.07.304.653.915 1.242.857 2-.515.106-.66-.465-.857-.786-.433-.706-.646-1.37-1.07-2.213-.306-.61-.688-.855-.57-1.784-.021-.116.066-.123.07-.214h.357M46.139 334.331c-.477-.015-.825-.51-1.07-.857-.536-.757-.9-1.62-1.356-2.499-.221-.425-.595-.797-.5-1.284-.01-.201.175-.206.357-.214.685 1.177 1.235 2.56 2.07 3.711.232.321.83.68.499 1.143M42.928 331.119c.388.129.326.64.428.927.112.316.277.648.428.929.31.57.916 1.013.856 1.641-.448.304-.597-.245-.784-.5-.505-.682-1.265-1.759-1.214-2.784-.021-.188.15-.183.286-.213M41.93 332.403c.44.254.504.9.712 1.357.2.439.672.871.5 1.356-.34.179-.757-.414-.999-.928-.29-.615-.807-1.558-.214-1.785"/>
      <path d="M81.1 303.135c-.045.477-.15.896-.214 1.356.401-.075.679-.273 1.07-.356-.046-.453.095-1.094-.07-1.428-.18.224-.62.189-.786.428zm-.999-.072c.001-.093.126-.064.143-.142-.134-.008-.05-.237-.213-.214.038.103-.084.368.07.356zm-9.132-.498c-.004.312.028.588.143.784-.072-.383.332-.664.142-.928-.01.132-.241.044-.285.144zm11.63-.144c.047.43-.094 1.046.071 1.357.388-.303.816-.565 1.213-.857.13-.606-.203-.749-.428-1-.143.31-.318.586-.855.5zm-8.491 0c-.045-.24.235-.52.072-.642-.093.192-.364.465-.072.642zm-2.854-.642c.199.114.198-.309.072-.286.005.125-.016.221-.072.286zm6.493.07c.195-.2.079-.556-.071-.784.045.24-.092.663.071.785zm6.992-.713c-.153.3-.35.934-.142 1.357.278-.246.56-.487.856-.714-.046-.287.093-.76-.072-.928-.094.214-.279.338-.642.285zm-1.64-.071c.154-.087.228-.623.07-.786.07.311-.26.593-.07.786zm-7.635-.143c.165.049.19.237.357.285.143-.321-.025-.725-.143-.999-.086.224-.143.477-.214.714zm5.78.214c.083-.215.304-.846 0-1 .1.39-.188.763 0 1zm3.068-.57c-.018-.213.183-.572.07-.643-.046.148-.266.488-.07.642zm-5.138.713c.417-.302.583-1.12.214-1.642-.203.528-.586 1.119-.214 1.642zm3.71-1.5c.209-.017.247.136.357.215.042-.495-.093-.81-.285-1.07-.005.303-.12.498-.072.856zm6.065-4.782c.009-.093.01-.516-.071-.286-.01.094-.011.517.07.286zm-19.978 8.995c.16-.518-.216-1.116-.215-1.714-.543.227-.197.975-.57 1.285-.664-.192-.615-1.098-.784-1.784-.271.205-.102.85-.643.786.1.212.085.436-.142.498-.701-.024-.56-.953-.786-1.498-.256-.624-.758-1.683-.713-2.713-.23.748.153 1.417.071 1.999-1.034 0-1.037-1.62-1.213-2.714-.1.137-.22.257-.356.358.029.63.471 1.387.214 1.856-.747 0-.653-1.028-.785-1.642-.244-1.133-.644-2.414-.357-3.927h.428c.14.67.039 1.58.143 2.286.18-.154.134-.533.5-.5.184.149.26.404.213.785-.034.18.328-.173.358.07.257-.027.179-.39.57-.284.278.293.086 1.056.143 1.57.617-.167-.077-1.647.57-1.785.47.08.249.627.286.929.162 1.299.435 2.868.642 4.14.508-.742.5-2.271.5-3.712 0-.46-.242-1.364.427-1.357.43.771.134 1.855.215 2.856.064.8.295 1.566.356 2.212.682-.756.397-1.856.143-3.14-.116-.586-.665-1.44.072-1.713.407.112.226.46.285.714.151.642.241 1.468.428 2.141.05.177.188.331.214.5.082.544-.108 1.079.143 1.57.173-.555.624-1.029.713-1.713.128-.988-.476-2.094-.285-3.07.796.006.625 1.012.714 1.642.094.68.293 1.406.285 1.999.546-.748.204-2.146.143-3.284-.018-.318-.272-.91.285-.928.423.125.243.604.285.928.129 1.004.25 2.277.428 3.213.271-.253.222-.825.357-1.214 1.203.157.045 1.434.071 2.142.314.164.493-.343.857-.358-.117-1.646-.918-2.982-.928-4.497.583-.16.524.49.643.857.186.582.483 1.146.57 1.927.057.06.294-.004.428.144-.02.43.057.96-.071 1.284.183.108.3-.457.784-.285-.057-1.634-.725-3.033-.641-4.57.617-.071.584.444.641 1 .077.732.44 1.668.43 2.356.192-.116.274-.343.498-.428-.147-.442-.192-1.024-.285-1.571-.082-.48-.396-1.07 0-1.356h.142c.401.271.406.956.5 1.5.097.559.18 1.144.286 1.641.107-.177.174-.396.5-.357.356.52-.019 1.362-.144 1.856.035.203.373.103.285.428.84-1.082.31-2.892 0-4.282-.13-.592-.698-1.415-.07-1.786.456.216.39.848.499 1.286.318 1.282.718 2.83.998 4.21.224-.333.377-.766.5-1.141.121-.37.358-.857.357-1.214-.002-.498-.368-1.173-.57-1.642-.231-.53-.595-.964-.643-1.5.453-.317.685.22.856.501.486.803.834 2.09 1.142 3.141.267-.16-.019-.874.356-.928.497-.01.36.53.357.786-.007.548-.394 1.304-.285 1.856.453-.471.56-1.414.499-2.07-.064-.709-.49-1.524-.714-2.285-.116-.398-.181-.833-.285-1.213-.089-.329-.459-.832 0-1.071.496.16.57.864.714 1.355.157.536.29 1.142.428 1.642.038.2.344.133.5.215-.05 1.328.29 2.335.641 3.427.088-1.09.462-2.118.357-3.07-.073-.667-.586-1.367-.856-1.999-.128-.302-.326-.664-.428-1-.08-.262-.325-.77.071-.999.503.188.59.873.785 1.357.21.518.392 1.066.642 1.499.058.18.294.182.428.285-.016.373.002.713.072 1 .131-.273.03-.78.499-.715.434.423.118 1.597.214 2.357.077.185.592-.069.499.285.157-.343.127-.874.429-1.07.216-2.55-.792-3.873-1.855-5.14-.205-.176-.612-.15-.5-.643.496-.3.804.16 1.07.428.613.615 1.16 1.476 1.499 2.427.273-.034.455.02.57.143-.096.912-.102 1.829.428 2.284.359-2.382-.81-3.691-1.569-5.354-.142-.31-.522-.89-.072-1.213.38.003.455.466.572.714.37.785.719 1.716 1.142 2.498.029.132.339-.24.499 0 .03 1.09.258 1.978.57 2.784.133-.727-.083-1.725 0-2.641.126-.063.091-.29.357-.214-.565-.992-1.254-2.056-1.927-3.07-.182-.276-.629-.617-.356-.999.424-.108.718.406.927.714.67.979 1.395 2.198 1.998 3.283.208-.268-.135-1.087.429-.999.365.04.266.543.285.928.09-.17.15-.372.5-.285.239.522.278 1.244.356 1.927.273-.417.27-1.11.57-1.499-.46-.253-.59-.837-.57-1.57-.417-.012-.521.287-.856.356-.753-.886-1.154-2.038-1.856-2.998-.21-.287-.594-.579-.57-1 .76-.207 1.268.83 1.57 1.357.37.648.772 1.354.999 2 .24 0 .317-.376.57-.144.049-.266.244-.666.571-.428-.142-.66-.63-1.299-.428-2.07.101.006.202.011.214-.072.453.155.367.782.5 1.214.122.399.48.812.285 1.213-.092.1-.31.07-.5.071.071.358.168.689.143 1.142.394-.7.544-1.645.713-2.568-.03-.161-.378-.003-.427-.144-.167-.813-.713-1.612-.571-2.498.932.074.708 1.516 1.07 2.141.384-.33-.183-1.61.428-1.713.43.115.346 1.098.286 1.642-.04.353-.126.809-.214 1.214-.147.666-.47 1.332-.643 1.999-.098.381-.041.795-.142 1.142-.083.278-.264.56-.357.856-.22.7-.388 2.06-1.284 2.142-.188-.24-.013-.594.143-.714-.217-.356-.238-.905-.286-1.428-.242.067-.523.095-.785.144-.21-.196-.333-.477-.428-.786-.166.43-.025 1.165-.072 1.713.243.12.321-.534.714-.5.339.257.214 1.133.214 1.857 0 .619.23 1.7-.5 1.57-.159-.507-.028-1.304-.07-1.927-.699.371-1.009 1.132-.857 2.355.245.176.153-.48.642-.285.324.355-.02 1-.57.928-.142.097.022.498-.215.5-.783.044-.289-1.186-.428-1.786-.248.229-.878.693-.714 1.571.006.108.467-.114.572.071-.013.655-.602.731-.714 1.286-.484-.121-.463.167-.785.428-.318.258-.64.305-.714.786-.218.05-.26-.074-.428-.073-.739.397-1.718 1.262-2.782 1.428-.318.05-1.09.119-1.356-.213-.068-.378.3-.32.5-.429-.056-.34.111-.46.071-.786-.128-.1-.47.193-.642.286.045.495-.225.9-.642.714-.142-.14-.046-.408 0-.571-.148-.096-.612.1-.928.072-.185.456-.097 1.187-.856 1.07-.223-.434.221-.634.214-1.07-.44-.154-.198.372-.357.499-.38 0-.717-.044-.927-.214-.026-.395.158-.617-.071-.857h-.357c-.188.455-.335.95-.928 1-.2-.133-.135-.53-.142-.856-.52-.021-.09.909-.5.998-.782-.073-.441-1.271-.785-1.784-.478.235-.106 1.32-.927 1.214-.403-.452.19-.884.214-1.357-.104-.075-.33.335-.5.429.089.337.21 1.166-.214 1.213-.416.012-.364-.444-.357-.857-.149.328-.599.732-.999.572-.243.005-.21-.265-.213-.5-.144-.119-.434-.09-.5-.286.235-.47.5-1.074.286-1.784-.41.82-.999 1.74-.429 2.783.608.08 1.34.341 2.07.43.62.073 1.333-.198 1.783.213-.082.668-1.256.482-1.712.429-.348-.042-.567-.15-1.07-.215-.761-.097-1.167-.339-1.785-.571-.21-.079-.488-.057-.713-.143-.194-.074-.36-.274-.57-.356-.854-.335-2.354-.092-2.07-1.143 1.121.282 2.271.536 3.211 1"/>
   </g>
</svg>