<svg version="1.2" xmlns="http://www.w3.org/2000/svg" viewBox="0 0 375 375" width="500" height="500">
	<title>cover2-svg</title>
	<defs>
		<clipPath clipPathUnits="userSpaceOnUse" id="cp1">
			<path d="m0 0h375v375h-375z"/>
		</clipPath>
		<clipPath clipPathUnits="userSpaceOnUse" id="cp2">
			<path d="m0 0h375v375h-375z"/>
		</clipPath>
		<clipPath clipPathUnits="userSpaceOnUse" id="cp3">
			<path d="m0 0h375v375h-375z"/>
		</clipPath>
		<clipPath clipPathUnits="userSpaceOnUse" id="cp4">
			<path d="m244.48 74.54h81.75v84.75h-81.75z"/>
		</clipPath>
	</defs>
	<style>
		.s0 { fill: none } 
		.s1 { fill: #ffffff } 
		.s2 { fill: #a8eb12 } 
	</style>
	<g id="Clip-Path" clip-path="url(#cp1)">
		<g>
			<path fill-rule="evenodd" class="s0" d="m0 0h375v375h-375z"/>
		</g>
	</g>
	<g id="Clip-Path" clip-path="url(#cp2)">
		<g>
			<path fill-rule="evenodd" class="s0" d="m0 0h375v375h-375z"/>
		</g>
	</g>
	<g id="Clip-Path: H1" clip-path="url(#cp3)">
		<g id="H1">
			<g id="d">
			</g>
			<g id="e">
			</g>
			<g id="f">
			</g>
			<g id="g">
			</g>
			<g id="h">
			</g>
			<g id="i">
				<path fill-rule="evenodd" class="s1" d="m55.9 138h-8.8l-20.1-37.6h14.9l9.2 20.3 9-20.3h9l9 20.3 9.1-20.3h27.2v5.4h0.2q0-0.1 0.1-0.2 0-0.1 0.1-0.2 0.1-0.1 0.1-0.2 0.1 0 0.1-0.1 0.5-0.5 0.9-1 0.5-0.4 1-0.9 0.4-0.4 0.9-0.8 0.5-0.5 1-0.9 0.4-0.2 0.8-0.4 0.4-0.2 0.8-0.4 0.4-0.2 0.8-0.4 0.4-0.2 0.9-0.3c1.3-0.5 2.6-0.7 4-0.7q0.9 0 1.9 0.1 0.9 0.1 1.8 0.3 0.9 0.2 1.8 0.6 0.9 0.3 1.7 0.7l1 0.6-5.4 11q-0.7-0.5-1.5-0.9-0.8-0.4-1.7-0.7-0.9-0.3-1.8-0.4-0.8-0.1-1.8 0-0.5 0-1 0-0.5 0.1-1 0.2-0.6 0.1-1 0.3-0.5 0.2-1 0.5-0.4 0.2-0.7 0.5-0.4 0.3-0.7 0.6-0.3 0.3-0.5 0.6-0.3 0.4-0.5 0.8-0.1 0.3-0.3 0.6-0.1 0.3-0.2 0.6-0.1 0.3-0.3 0.6-0.1 0.4-0.2 0.7 0 0.2-0.1 0.4 0 0.2-0.1 0.4 0 0.2 0 0.4 0 0.2-0.1 0.4v19.8h-12.9v-36.2l-19.5 36.2h-8.8l-8.6-19.4zm78.4-36.4v-1.3h13v37.7h-13v-36.4zm1.2-22.2c1.5-1.5 3.3-2.3 5.5-2.3 2.1 0 3.8 0.7 5.4 2.3q0.5 0.5 1 1.1 0.4 0.6 0.7 1.3 0.3 0.7 0.4 1.5 0.2 0.7 0.2 1.5 0 0.8-0.2 1.5-0.1 0.7-0.4 1.4-0.3 0.7-0.7 1.4-0.5 0.6-1 1.1-0.5 0.6-1.2 1-0.6 0.4-1.3 0.7-0.7 0.3-1.4 0.5-0.8 0.1-1.5 0.1-0.8 0-1.6-0.1-0.7-0.2-1.4-0.5-0.7-0.3-1.3-0.7-0.6-0.4-1.2-1-0.5-0.5-1-1.1-0.4-0.7-0.7-1.4-0.3-0.7-0.4-1.4-0.2-0.7-0.1-1.5c0-2.1 0.7-3.9 2.2-5.4zm19.5 20.9v-14h12.9v14h8v9.9h-8v12c0 3.4 1 5.2 3 5.2q0.3 0 0.7-0.1 0.4-0.1 0.7-0.2 0.4-0.1 0.7-0.2 0.3-0.2 0.7-0.4l0.4-0.3 3.2 10.5q-1.8 1-3.8 1.6-1.9 0.5-4 0.7-2 0.1-4.1-0.2-2-0.3-3.9-1-0.6-0.3-1.2-0.6-0.6-0.4-1.1-0.8-0.5-0.5-0.9-1-0.5-0.5-0.8-1-0.4-0.6-0.6-1.1-0.3-0.6-0.6-1.1-0.2-0.6-0.4-1.2-0.2-0.6-0.4-1.2-0.1-0.6-0.2-1.2-0.1-0.7-0.2-1.3-0.1-0.7-0.1-1.3 0-0.7 0-1.3v-14.5h-5.5v-9.9zm61.2 20.7h-27.3c0 2.6 0.9 4.6 2.6 5.8q0.6 0.5 1.2 0.8 0.7 0.4 1.4 0.6 0.7 0.3 1.5 0.4 0.7 0.1 1.5 0.1c2.1 0 3.7-0.3 4.9-0.8q0.6-0.3 1.2-0.7 0.6-0.4 1.1-0.8 0.5-0.4 1-0.9 0.5-0.4 0.9-1l9.4 4.7c-3.9 6.6-10.4 9.9-19.5 9.9-2.7 0-5.3-0.5-7.8-1.5-2.4-0.9-4.7-2.4-6.6-4.2-1.9-1.9-3.5-4.1-4.6-6.5-1-2.4-1.6-5.1-1.7-7.7 0-5.5 2.1-10.2 6.1-14.1 4-3.9 9-5.9 14.6-5.9q2 0 3.9 0.3 2 0.2 3.9 0.9 1.8 0.7 3.5 1.7 1.7 1 3.2 2.3c3.8 3.5 5.7 8.4 5.7 14.8zm-26.9-7.2h14.3q-0.2-1.3-0.8-2.5-0.6-1.1-1.6-2-1-0.8-2.2-1.2-1.3-0.5-2.6-0.4-0.7 0-1.3 0.1-0.7 0.1-1.4 0.3-0.6 0.2-1.2 0.5-0.7 0.4-1.2 0.8-0.5 0.4-0.8 0.9-0.4 0.5-0.7 1.1-0.2 0.6-0.4 1.2-0.1 0.6-0.1 1.2zm37.7 8.5q0.9 0 1.7 0.1 0.8 0.2 1.6 0.5 0.7 0.3 1.4 0.8 0.7 0.5 1.3 1.1 0.6 0.6 1 1.3 0.5 0.6 0.8 1.4 0.4 0.8 0.5 1.6 0.2 0.8 0.2 1.6c0 7.3-4.2 14.3-12.4 21.1l-3.7-3.1 1.2-1.3q0.4-0.4 0.7-0.9 0.3-0.4 0.6-0.8 0.3-0.5 0.5-1 0.3-0.4 0.5-0.9 0.4-0.6 0.7-1.3 0.3-0.6 0.6-1.3 0.2-0.7 0.4-1.4 0.2-0.6 0.4-1.4-0.7-0.1-1.3-0.3-0.6-0.3-1.2-0.6-0.6-0.4-1.1-0.8-0.5-0.5-1-1-0.4-0.5-0.7-1.1-0.4-0.6-0.6-1.2-0.2-0.6-0.3-1.3-0.2-0.7-0.1-1.4-0.1-0.8 0.1-1.6 0.1-0.8 0.5-1.6 0.3-0.7 0.7-1.4 0.5-0.7 1.1-1.3 0.6-0.6 1.2-1.1 0.7-0.4 1.5-0.8 0.8-0.3 1.6-0.4 0.8-0.2 1.6-0.2z"/>
			</g>
			<g id="h">
			</g>
			<g id="j">
			</g>
			<g id="k">
			</g>
			<g id="l">
			</g>
			<g id="j">
			</g>
			<g id="m">
			</g>
			<g id="h">
				<path fill-rule="evenodd" class="s1" d="m70.9 190h-27.3c0 2.6 0.9 4.6 2.6 5.9q0.6 0.4 1.2 0.8 0.7 0.3 1.4 0.6 0.7 0.2 1.5 0.3 0.7 0.2 1.4 0.2c2.2 0 3.8-0.3 5-0.8q0.6-0.4 1.2-0.7 0.5-0.4 1.1-0.9 0.5-0.4 1-0.8 0.5-0.5 0.9-1l9.4 4.7c-3.9 6.6-10.4 9.8-19.5 9.8-2.7 0-5.3-0.4-7.8-1.4-2.5-1-4.7-2.4-6.6-4.3-2-1.8-3.5-4-4.6-6.5-1-2.4-1.6-5-1.7-7.7 0-5.5 2.1-10.2 6.1-14.1 4-3.8 8.9-5.8 14.6-5.8q2-0.1 3.9 0.2 2 0.3 3.9 1 1.8 0.6 3.5 1.6 1.7 1.1 3.2 2.4c3.8 3.4 5.7 8.3 5.7 14.7zm-27-7.2h14.3q-0.1-1.3-0.7-2.4-0.6-1.2-1.6-2-1-0.9-2.2-1.3-1.3-0.4-2.6-0.4-0.7 0-1.3 0.1-0.7 0.1-1.4 0.3-0.6 0.2-1.3 0.6-0.6 0.3-1.1 0.7-0.5 0.5-0.8 1-0.4 0.5-0.7 1-0.2 0.6-0.4 1.2-0.1 0.6-0.2 1.2zm29.5 24.2v-37.6h12.9v4h0.2q1-1.2 2.2-2.1 1.3-0.9 2.7-1.6 1.3-0.6 2.8-1 1.5-0.3 3.1-0.4 1.4 0 2.8 0.2 1.4 0.2 2.8 0.6 1.3 0.4 2.6 0.9 1.3 0.6 2.5 1.3 1.4 0.9 2.5 2.1 1.1 1.2 1.8 2.6 0.8 1.5 1.1 3.1 0.4 1.5 0.4 3.2v24.7h-13v-21.2c0-2-0.7-3.7-1.9-5.2q-0.5-0.5-1-0.9-0.6-0.4-1.2-0.7-0.6-0.3-1.3-0.4-0.7-0.2-1.4-0.2-0.7 0-1.4 0.2-0.8 0.2-1.5 0.4-0.7 0.3-1.3 0.8-0.6 0.4-1.1 0.9-0.6 0.5-1 1.1-0.4 0.5-0.7 1.2-0.3 0.6-0.5 1.3-0.2 0.8-0.2 1.5v21.2zm44.8 0v-63h13v29.4h0.2q1-1.2 2.2-2.1 1.3-0.9 2.6-1.6 1.4-0.6 2.9-1 1.5-0.3 3.1-0.4 1.4 0 2.8 0.2 1.4 0.2 2.7 0.6 1.4 0.4 2.7 0.9 1.3 0.6 2.5 1.3 1.4 0.9 2.5 2.1 1.1 1.2 1.8 2.6 0.8 1.5 1.1 3.1 0.4 1.5 0.4 3.2v24.7h-13v-21.2c0-2-0.7-3.7-1.9-5.2q-0.5-0.5-1-0.9-0.6-0.4-1.2-0.7-0.6-0.3-1.3-0.4-0.7-0.2-1.4-0.2-0.7 0-1.5 0.2-0.7 0.2-1.4 0.4-0.7 0.3-1.3 0.8-0.6 0.4-1.1 0.9-0.6 0.5-1 1.1-0.4 0.5-0.7 1.2-0.3 0.6-0.5 1.3-0.2 0.8-0.2 1.5v21.2zm47.4-4.6q-1.3-1.4-2.3-3.1-1-1.6-1.7-3.4-0.7-1.9-1-3.8-0.3-1.9-0.3-3.8c0-5.6 1.8-10.3 5.3-14.2q1.3-1.4 2.8-2.5 1.5-1.1 3.3-1.9 1.7-0.7 3.6-1.1 1.8-0.3 3.7-0.3 1.7 0 3.4 0.2 1.7 0.3 3.3 0.9 1.5 0.6 3 1.5 1.4 0.9 2.6 2.1v-3.6h13v37.6h-12.8v-4.2h-0.2q-1.1 1.3-2.5 2.3-1.4 1-3 1.7-1.6 0.7-3.3 1.1-1.7 0.3-3.5 0.2-1.9 0.1-3.7-0.3-1.9-0.3-3.6-1.1-1.8-0.7-3.3-1.8-1.5-1.1-2.8-2.5zm11-20.5q-0.6 0.6-1.1 1.4-0.5 0.7-0.8 1.5-0.3 0.8-0.5 1.7-0.1 0.9-0.1 1.8 0 0.8 0.1 1.7 0.2 0.9 0.5 1.7 0.3 0.8 0.8 1.6 0.4 0.7 1 1.3 0.7 0.7 1.4 1.1 0.7 0.5 1.6 0.8 0.8 0.3 1.7 0.5 0.8 0.1 1.7 0.1c1.2 0 2.3-0.2 3.4-0.7 1.1-0.4 2-1.1 2.9-1.9 0.8-0.8 1.4-1.8 1.8-2.9 0.5-1 0.7-2.2 0.6-3.3q0.1-0.9-0.1-1.8-0.1-0.9-0.5-1.7-0.3-0.8-0.8-1.6-0.5-0.7-1.1-1.3-0.6-0.6-1.3-1.1-0.8-0.5-1.6-0.8-0.7-0.3-1.6-0.5-0.8-0.1-1.7-0.1-0.9 0-1.7 0.1-0.9 0.2-1.7 0.5-0.8 0.3-1.5 0.8-0.8 0.5-1.4 1.1zm32.9 25.1v-37.6h12.9v4h0.2q1-1.2 2.2-2.1 1.3-0.9 2.7-1.6 1.3-0.6 2.8-1 1.5-0.3 3.1-0.4 1.4 0 2.8 0.2 1.4 0.2 2.8 0.6 1.3 0.4 2.6 0.9 1.3 0.6 2.5 1.3 1.4 0.9 2.5 2.1 1.1 1.2 1.8 2.6 0.8 1.5 1.1 3.1 0.4 1.5 0.4 3.2v24.7h-13v-21.2c0-2-0.7-3.7-1.9-5.2q-0.5-0.5-1-0.9-0.6-0.4-1.2-0.7-0.6-0.3-1.3-0.4-0.7-0.2-1.4-0.2-0.7 0-1.4 0.2-0.8 0.2-1.5 0.4-0.7 0.3-1.3 0.8-0.6 0.4-1.1 0.9-0.6 0.5-1 1.1-0.4 0.5-0.7 1.2-0.3 0.6-0.5 1.3-0.2 0.8-0.2 1.5v21.2zm64.9-28.1q-0.9 0-1.8 0.2-0.9 0.2-1.7 0.5-0.8 0.4-1.5 0.9-0.7 0.5-1.3 1.2-0.7 0.6-1.2 1.4-0.5 0.7-0.8 1.6-0.4 0.8-0.5 1.7-0.2 0.9-0.2 1.8 0 3.8 2.7 6.6 0.6 0.6 1.3 1.2 0.7 0.5 1.5 0.8 0.8 0.4 1.7 0.5 0.9 0.2 1.8 0.2 0.7 0 1.4-0.1 0.8 0 1.5-0.2 0.7-0.2 1.4-0.4 0.7-0.3 1.3-0.6l0.7-0.5 4.4 9.1q-0.2 0.1-0.4 0.2-0.2 0.1-0.4 0.3-0.1 0.1-0.3 0.2-0.2 0.1-0.4 0.2-0.5 0.3-1 0.5-0.5 0.2-1.1 0.4-0.5 0.1-1 0.3-0.5 0.2-1.1 0.3-0.8 0.2-1.7 0.4-0.9 0.2-1.7 0.3-0.9 0.1-1.8 0.2-0.9 0-1.7 0-2.1 0.1-4-0.3-2-0.4-3.9-1.1-1.9-0.8-3.6-1.9-1.7-1.1-3.1-2.5-1.5-1.3-2.7-2.9-1.2-1.6-2-3.4-0.8-1.8-1.2-3.7-0.4-2-0.4-4c0-5.5 2.1-10.2 6.3-14q1.4-1.5 3.1-2.6 1.7-1.1 3.6-1.9 1.8-0.7 3.8-1.1 2-0.4 4.1-0.4 1.4 0 2.9 0.2 1.5 0.1 2.9 0.5 1.4 0.3 2.8 0.8 1.4 0.5 2.7 1.2l1.3 0.8-4.4 8.9q-0.7-0.5-1.5-0.8-0.7-0.4-1.5-0.6-0.8-0.2-1.7-0.3-0.8-0.1-1.6-0.1zm50.3 11.1h-27.2c0 2.7 0.8 4.6 2.5 5.9q0.6 0.5 1.3 0.8 0.7 0.4 1.4 0.6 0.7 0.2 1.4 0.4 0.8 0.1 1.5 0.1c2.1 0 3.7-0.3 5-0.8q0.6-0.3 1.1-0.7 0.6-0.4 1.1-0.8 0.6-0.4 1-0.9 0.5-0.5 1-1l9.4 4.7c-3.9 6.6-10.5 9.8-19.5 9.8-2.7 0.1-5.3-0.4-7.8-1.4-2.5-1-4.8-2.4-6.7-4.2-1.9-1.9-3.4-4.1-4.5-6.5-1.1-2.5-1.7-5.1-1.7-7.7 0-5.5 2-10.2 6.1-14.1 4-3.9 8.9-5.9 14.6-5.9q1.9-0.1 3.9 0.2 2 0.3 3.8 1 1.9 0.7 3.6 1.7 1.7 1 3.2 2.3c3.7 3.5 5.6 8.4 5.6 14.8zm-26.9-7.2h14.3q-0.1-1.3-0.7-2.5-0.6-1.1-1.6-2-1-0.9-2.3-1.3-1.2-0.4-2.5-0.3-0.7 0-1.4 0-0.7 0.1-1.3 0.4-0.7 0.2-1.3 0.5-0.6 0.3-1.1 0.8-0.5 0.4-0.9 0.9-0.4 0.5-0.6 1.1-0.3 0.5-0.4 1.1-0.2 0.7-0.2 1.3z"/>
			</g>
			<g id="n">
				<path fill-rule="evenodd" class="s2" d="m30.6 260.1c0-1.8 0.4-3.5 1.2-5.2q0.3-0.7 0.7-1.3 0.4-0.6 0.8-1.2 0.5-0.5 1-1.1 0.5-0.5 1-1 0.6-0.5 1.1-0.9 0.6-0.5 1.2-1 0.5-0.4 1.1-0.8 0.6-0.5 1.2-0.9 0.7-0.4 1.4-0.8 0.6-0.4 1.3-0.8 0.7-0.4 1.3-0.8 0.7-0.4 1.4-0.7c-4-5.2-6.1-9.6-6.1-13.4 0-4.8 1.7-8.6 5-11.5 3.4-2.9 8.1-4.3 14.3-4.3q1.8-0.1 3.6 0.1 1.8 0.3 3.5 0.9 1.7 0.6 3.2 1.6 1.6 0.9 2.9 2.2 1.1 1 2 2.3 0.9 1.2 1.5 2.7 0.6 1.4 0.9 2.9 0.4 1.5 0.4 3.1 0 0.6-0.1 1.3-0.1 0.6-0.3 1.3-0.1 0.6-0.3 1.2-0.3 0.6-0.6 1.2-0.3 0.6-0.6 1.2-0.3 0.5-0.7 1-0.4 0.6-0.8 1-0.4 0.5-0.9 1-0.7 0.7-1.5 1.4-0.7 0.7-1.6 1.3-0.8 0.6-1.6 1.2-0.9 0.6-1.7 1.1l-1.3 0.6 8.1 8.4c1.7-0.7 4.7-3.3 8.9-7.6l8.5 8.3q-1 1.2-2 2.3-1.1 1-2.1 2.1-1.1 1-2.2 2-1.2 1-2.3 1.9l13 13.6h-17.3l-6.1-6.2q-0.9 0.7-1.9 1.3-1 0.7-2 1.3-1 0.7-2 1.2-1.1 0.6-2.1 1.2-0.7 0.3-1.3 0.6-0.7 0.2-1.3 0.5-0.7 0.2-1.4 0.4-0.7 0.2-1.4 0.3-2.2 0.4-4.4 0.5-2.2 0.1-4.3-0.1-2.2-0.2-4.4-0.7-2.1-0.5-4.2-1.3-0.7-0.3-1.3-0.7-0.6-0.3-1.3-0.7-0.6-0.4-1.2-0.8-0.6-0.4-1.1-0.9-0.6-0.5-1.1-1.1-0.5-0.5-0.9-1.1-0.5-0.6-0.8-1.3-0.4-0.7-0.7-1.3-0.4-0.9-0.6-1.7-0.3-0.9-0.4-1.8-0.2-0.8-0.3-1.7-0.1-0.9 0-1.8zm27.9-36c-1.8 0-3.1 0.6-4 1.7q-0.6 0.9-0.9 1.9-0.4 0.9-0.4 2 0 1 0.3 2 0.2 1 0.8 1.9c0.7 1.3 1.5 2.2 2.2 2.9l1.1 1.1c4.5-2.5 6.8-4.9 6.8-7.4 0-4.1-2-6.1-5.9-6.1zm3.6 36.5l-9.6-9.5q-0.3 0.1-0.6 0.3-0.3 0.1-0.6 0.2-0.2 0.2-0.5 0.4-0.3 0.1-0.5 0.3-0.6 0.3-1.1 0.8-0.5 0.4-0.9 0.8-0.4 0.5-0.8 1-0.4 0.6-0.7 1.2-0.1 0.3-0.3 0.7-0.1 0.3-0.2 0.7 0 0.4-0.1 0.7 0 0.4 0 0.8c0 1.6 0.7 2.8 2 3.7q0.6 0.4 1.1 0.6 0.6 0.3 1.2 0.4 0.6 0.2 1.2 0.3 0.7 0.1 1.3 0 1.1 0 2.1-0.2 1-0.1 2-0.5 1-0.3 2-0.8 0.9-0.4 1.8-1z"/>
			</g>
			<g id="o">
				<path class="s2" d=""/>
			</g>
			<g id="p">
			</g>
			<g id="q">
			</g>
			<g id="f">
			</g>
			<g id="r">
			</g>
			<g id="s">
				<path fill-rule="evenodd" class="s1" d="m145.3 243.1q1.3 1.4 2.4 3.1 1 1.6 1.6 3.4 0.7 1.9 1 3.8 0.4 1.9 0.3 3.8 0.1 2-0.3 3.9-0.3 1.9-1 3.7-0.6 1.8-1.6 3.5-1.1 1.6-2.4 3.1-1.2 1.4-2.8 2.5-1.5 1.1-3.3 1.8-1.7 0.7-3.5 1.1-1.9 0.4-3.8 0.3-1.7 0-3.4-0.3-1.7-0.3-3.3-1-1.6-0.7-3.1-1.7-1.4-1-2.5-2.4h-0.2v4.3h-12.8v-63.1h13v29.1c3.2-3.2 7.3-4.7 12.3-4.7q1.9-0.1 3.8 0.3 1.8 0.3 3.6 1.1 1.7 0.7 3.2 1.9 1.6 1.1 2.8 2.5zm-10.9 20.5q0.6-0.6 1.1-1.4 0.4-0.7 0.8-1.5 0.3-0.9 0.4-1.7 0.2-0.9 0.1-1.8 0.1-0.9-0.1-1.7-0.2-0.9-0.5-1.7-0.3-0.9-0.8-1.6-0.5-0.7-1.1-1.4-0.7-0.6-1.4-1.1-0.7-0.4-1.5-0.8-0.8-0.3-1.7-0.4-0.8-0.2-1.7-0.2-0.8 0-1.7 0.2-0.8 0.1-1.6 0.5-0.9 0.3-1.6 0.8-0.7 0.4-1.3 1-0.6 0.7-1.1 1.4-0.5 0.8-0.8 1.6-0.3 0.8-0.5 1.7-0.1 0.8-0.1 1.7c0 2.6 0.8 4.6 2.4 6.3q0.6 0.6 1.4 1.1 0.7 0.5 1.5 0.8 0.8 0.3 1.7 0.5 0.8 0.2 1.7 0.1 4 0 6.4-2.4zm30.9-25.2v17.9c0 3.6 0.6 6.4 1.7 7.9 1.1 1.5 3 2.3 5.7 2.3 2.7 0 4.6-0.7 5.7-2.3 1.1-1.5 1.7-4.2 1.7-7.9v-17.9h13v21c0 6.3-1.6 10.8-4.9 13.6-3.3 2.7-8.4 4.1-15.5 4.1-7.1 0-12.3-1.4-15.6-4.1-3.2-2.8-4.8-7.3-4.8-13.6v-21zm33.4-21c1.5-1.5 3.3-2.3 5.5-2.3 2.1 0 3.8 0.8 5.4 2.3q0.5 0.5 1 1.2 0.4 0.6 0.7 1.3 0.3 0.7 0.4 1.4 0.2 0.8 0.2 1.5 0 0.8-0.2 1.5-0.1 0.8-0.4 1.5-0.3 0.7-0.7 1.3-0.5 0.6-1 1.2-0.5 0.5-1.2 0.9-0.6 0.5-1.3 0.8-0.7 0.2-1.4 0.4-0.8 0.1-1.5 0.1-0.8 0-1.5-0.1-0.8-0.2-1.5-0.4-0.7-0.3-1.3-0.8-0.6-0.4-1.2-0.9-0.5-0.6-0.9-1.2-0.5-0.6-0.8-1.3-0.3-0.7-0.4-1.5-0.1-0.7-0.1-1.5c0-2.1 0.7-3.9 2.2-5.4zm11.8 21v37.6h-13v-37.6zm5.5 37.6v-63.1h13v63.1zm20.6-4.6q-1.3-1.5-2.3-3.1-1-1.7-1.7-3.5-0.6-1.8-1-3.7-0.3-1.9-0.2-3.9c0-5.5 1.7-10.2 5.2-14.1q1.3-1.4 2.8-2.5 1.6-1.2 3.3-1.9 1.8-0.8 3.6-1.1 1.9-0.4 3.8-0.3 1.7-0.1 3.3 0.2 1.7 0.3 3.3 0.9 1.6 0.6 3 1.5 1.5 0.9 2.7 2.1v-29.1h13v63.1h-12.9v-4.3h-0.1q-1.2 1.4-2.6 2.4-1.4 1-3 1.7-1.6 0.7-3.3 1-1.7 0.3-3.4 0.3-1.9 0.1-3.8-0.3-1.8-0.4-3.6-1.1-1.7-0.7-3.2-1.8-1.6-1.1-2.9-2.5zm11.1-20.6q-0.7 0.7-1.2 1.4-0.4 0.8-0.8 1.6-0.3 0.8-0.4 1.7-0.2 0.8-0.1 1.7-0.1 0.9 0.1 1.8 0.1 0.8 0.4 1.7 0.3 0.8 0.8 1.5 0.5 0.8 1.1 1.4 0.6 0.6 1.4 1.1 0.7 0.5 1.5 0.8 0.8 0.3 1.7 0.4 0.9 0.2 1.8 0.1c1.1 0 2.3-0.2 3.3-0.6 1.1-0.4 2.1-1.1 2.9-1.9 0.8-0.8 1.5-1.8 1.9-2.9 0.4-1.1 0.6-2.2 0.6-3.4q0-0.9-0.1-1.7-0.2-0.9-0.5-1.7-0.4-0.9-0.9-1.6-0.4-0.7-1.1-1.4-0.6-0.6-1.3-1-0.7-0.5-1.5-0.8-0.8-0.4-1.6-0.5-0.9-0.2-1.7-0.2-0.9 0-1.8 0.2-0.8 0.1-1.6 0.5-0.9 0.3-1.6 0.8-0.7 0.4-1.3 1z"/>
			</g>
			<g id="t">
				<path class="s2" d="m288.9 260.3q0.8 0 1.6 0.1 0.8 0.2 1.6 0.5 0.8 0.3 1.4 0.8 0.7 0.5 1.3 1.1 0.6 0.6 1.1 1.3 0.4 0.6 0.8 1.4 0.3 0.8 0.4 1.6 0.2 0.8 0.2 1.6 0 0.9-0.2 1.7-0.1 0.8-0.4 1.6-0.4 0.7-0.8 1.4-0.5 0.7-1.1 1.3-0.6 0.6-1.3 1-0.7 0.5-1.4 0.8-0.8 0.3-1.6 0.5-0.8 0.1-1.6 0.1c-1.2 0-2.2-0.2-3.3-0.6-1-0.4-1.9-1-2.7-1.8-0.8-0.8-1.4-1.7-1.8-2.7-0.4-1.1-0.6-2.2-0.6-3.3q0-0.8 0.1-1.6 0.2-0.8 0.5-1.6 0.3-0.7 0.8-1.4 0.4-0.7 1-1.3 0.6-0.6 1.3-1.1 0.7-0.4 1.4-0.8 0.8-0.3 1.6-0.4 0.8-0.2 1.7-0.2z"/>
			</g>
		</g>
	</g>
	<g id="Clip-Path" clip-path="url(#cp4)">
		<g>
			<path fill-rule="evenodd" class="s1" d="m289.3 159.3c-2.1 0-6.2-0.3-8.6-1.4-1.3-0.6-2.1-3.7-2.6-11.1q0-0.1 0-0.2-0.1-1.1-0.1-2.5-0.1-1 0.6-1.8 0.5-0.6 1.6-1h-0.1c0.8-2.4 0.1-5.5-1.9-8.4-1-1.4-2.2-2.8-3.4-4-0.9-1.1-1.9-2.2-2.8-3.4-3.2-4.1-4.8-9-4.7-13.8 0.1-5.1 2.4-10 6.1-13.2 3.9-3.1 8.5-4.1 11.7-4.3 6.7-0.4 13.2 2 17.4 6.4 2.5 2.7 4.3 6.3 4.9 10.2 0.7 4.5-0.1 9.2-2.3 13.2-1 1.7-2.2 3.2-3.3 4.8-0.9 1.1-1.8 2.3-2.6 3.5-1.4 2.3-2.9 5.7-2 8.9 1.3 0.6 2.2 1.3 2.4 2.3 0.3 1.4-0.1 5.1-0.7 9.4q0 0.1 0 0.1-0.2 1.5-0.4 3.1l-0.1 0.9c-0.1 0.9-0.8 1.8-8.1 2.3q-0.1 0-0.2 0-0.2 0-0.3 0-0.1 0-0.2 0-0.2 0-0.3 0zm-1.7-19.1q1.3 0 2.6 0c-0.6-3.4-0.2-8.3 1.2-11.7-0.8-0.1-1.5-0.3-2.1-0.7q-0.1 0-0.2-0.1-0.4 0.2-0.9 0.4-0.4 0.1-0.9 0.2-0.4 0.2-0.9 0.2-0.4 0.1-0.9 0.1c1.1 3.5 1.4 7.5 0.8 11.7q0.7 0 1.3-0.1zm8 0.6c-0.6-3.5 0.9-6.9 2.4-9.2 0.8-1.3 1.7-2.5 2.6-3.7 1.1-1.5 2.3-3 3.2-4.6q0.8-1.4 1.3-2.9 0.5-1.5 0.8-3.1 0.3-1.5 0.3-3.1 0-1.6-0.3-3.2c-0.5-3.6-2.1-6.9-4.5-9.4-3.8-4.1-9.9-6.3-16.2-5.9-3 0.2-7.3 1-10.8 4-3.4 2.8-5.5 7.3-5.7 12.1-0.1 4.4 1.5 9 4.4 12.8 0.9 1.2 1.9 2.3 2.8 3.3 1.2 1.3 2.4 2.6 3.5 4.1 2 3 2.8 6.2 2.3 8.9q1.3-0.3 3.2-0.5c0.6-4.3 0.3-8.4-1-12-1.4-0.3-2.7-1-3.7-1.9-0.3-0.4-0.8-0.9-0.7-1.6 0-0.5 0.3-0.9 0.7-1.2q0.2-0.2 0.4-0.2 0.3-0.1 0.5-0.1 0.2 0 0.5 0 0.2 0 0.4 0.1c0.8 0.3 1.8 1.2 2.2 2q0.4 0.8 0.7 1.6 0.3 0 0.6 0 0.3 0 0.6 0 0.3 0 0.6-0.1 0.3 0 0.5-0.1 0.3-0.1 0.6-0.2c-0.9-1-1.5-2.1-1.5-3.2 0-1.1 0.6-2.3 1.5-2.9 0.8-0.6 1.8-0.8 2.6-0.4 1.2 0.4 2 1.7 1.9 3.1-0.1 1.4-0.9 2.5-1.5 3.1q-0.1 0.1-0.1 0.1 0 0.1-0.1 0.1 0 0.1-0.1 0.1 0 0-0.1 0.1c0.5 0.2 1.1 0.3 1.7 0.4q0.6-1.1 1.4-1.7c1-0.7 2.1-0.8 2.8-0.4 0.5 0.2 0.8 0.6 0.8 1.1 0 0.7-0.3 1.4-1.1 1.8-0.7 0.5-1.9 0.7-3 0.7-1.4 3-2 8.2-1.4 11.6 1.4 0 2.8 0.2 4 0.5zm-6.1 0.9q-0.9 0-1.8 0c-1.7 0-6.7 0.2-8 1.6q-0.1 0.1-0.1 0.2-0.1 0.1-0.1 0.2-0.1 0-0.1 0.1 0 0.1 0 0.2 0.1 0.8 0.1 1.6c6.8-2.8 16.6-1.3 18.7-0.9q0-0.6 0-0.9c-0.3-1.1-3-2.2-8.7-2.1zm-8.2 14.9c2.4 1.1 7.3 1.3 8.9 1.2 5.4-0.4 6.5-0.9 6.8-1.1l0.1-0.8c0.1-0.7 0.2-1.6 0.3-2.5-1.5-0.3-5.5-1-10.5-0.2q-0.3 0.1-0.6-0.1-0.2-0.1-0.3-0.5 0-0.3 0.1-0.5 0.2-0.3 0.5-0.3c5.2-0.9 9.3-0.2 11 0.2q0.1-1.1 0.3-2.2c-2.1-0.3-10-1.3-15.5 0.6q0 0 0 0-0.1 0.1-0.1 0.1 0 0-0.1 0 0 0 0 0-0.1 0-0.2-0.1-0.1 0-0.2-0.1-0.1 0-0.2-0.1-0.1-0.1-0.1-0.2 0-0.2 0-0.3 0-0.1 0-0.3 0.1-0.1 0.2-0.2 0.1-0.1 0.3-0.1c5.8-2 13.7-1.1 16-0.8q0.1-1.1 0.2-2.1c-1.5-0.3-12.1-2-18.6 0.9 0.6 7.6 1.3 9.2 1.7 9.5zm14.1-30.3c-0.3 0-0.6 0.1-1 0.4q-0.1 0-0.1 0.1-0.1 0-0.2 0.1-0.1 0.1-0.1 0.1-0.1 0.1-0.1 0.2c0.5-0.1 1-0.2 1.4-0.4 0.3-0.2 0.4-0.3 0.4-0.5q-0.1 0-0.1 0 0 0-0.1 0 0 0 0 0-0.1 0-0.1 0zm-14.1-1.5q0 0-0.1 0 0 0-0.1 0 0 0 0 0.1-0.1 0-0.1 0-0.1 0-0.1 0.1c0 0 0 0.1 0.3 0.4q0.2 0.2 0.5 0.4 0.2 0.2 0.4 0.4 0.3 0.1 0.5 0.3 0.3 0.1 0.6 0.2-0.2-0.3-0.3-0.6c-0.2-0.4-0.9-1-1.4-1.3q0 0-0.1 0 0 0 0 0 0 0-0.1 0 0 0 0 0zm8.2-3.4c-0.4 0-0.7 0.2-0.8 0.3-0.6 0.4-1 1.1-1 1.7 0.1 0.9 0.6 1.8 1.4 2.6q0.4-0.3 0.7-0.6c0.6-0.7 1-1.4 1.1-2.2 0-0.7-0.4-1.5-1-1.7q-0.1 0-0.1 0-0.1 0-0.1 0-0.1-0.1-0.1-0.1 0 0-0.1 0zm26.7-0.6c0.4-0.4 1-0.3 1.5-0.1q3.7 1.1 7.3 2.2c0.5 0.2 1 0.3 1.1 0.8 0.1 0.2 0.1 0.4 0.1 0.7-0.1 1.3-1 3.5-3.4 2.8-1-0.3-9.7-3.7-6.6-6.4zm-17.6-33.7c-0.3-0.5-0.1-1.1 0.1-1.6q1.2-3.6 2.5-7.1c0.2-0.5 0.3-1 0.8-1.1 0.2-0.1 0.4-0.1 0.6-0.1 1.1 0 4 1.8 2.8 3.7-0.6 0.9-4.6 9.2-6.8 6.2zm-18.5-4.7c0 0.6 0.1 1.2-0.1 1.8-0.2 0.5-0.6 1-1.2 1.1-0.5 0.1-1-0.1-1.4-0.5-0.4-0.4-0.6-0.9-0.8-1.4q-1-2.2-1.9-4.4c-0.5-1.1-1-2.5-0.3-3.4 0.4-0.5 1-0.7 1.5-0.9 0.8-0.1 1.6-0.2 2.3 0.2 2.1 1 1.7 5.6 1.9 7.5zm37.6 17.9c-0.6 0.1-1.1 0.1-1.7 0-0.6-0.1-1.2-0.4-1.4-0.9-0.1-0.4 0-0.9 0.4-1.2 0.3-0.3 0.7-0.5 1.2-0.7l4-1.9c1-0.5 2.2-0.9 3.3-0.4 0.5 0.3 0.8 0.7 1.1 1.2 0.3 0.6 0.4 1.3 0.2 1.9-0.6 1.8-5.3 1.7-7.1 2zm-53.6-6.5c-0.4 1-2 0.4-3 0.2q-0.8-0.2-1.6-0.4-0.9-0.2-1.7-0.5-0.8-0.2-1.6-0.4-0.8-0.3-1.6-0.6c-0.5-0.2-1.1-0.5-1.2-1.1-0.1-0.4 0.1-0.7 0.2-1 1.1-2.5 1.9-3 4.2-1.9 1.9 0.9 7.3 3.6 6.3 5.7zm-7 15.5c0 1.1-4.3 1.8-6.9 1.9-1 0.1-3.5 0.2-4.2-0.4-0.8-0.6-1.5-3.5-0.5-4.1 1.8-1.1 11.7-1.1 11.6 2.6zm1.6 21.6c-0.7 0.7-1.4 1.3-2.2 1.7-0.8 0.4-2.2 0.9-3.1-0.1-0.6-0.7-0.7-2-0.1-2.7 2.3-2.1 4.8-3.4 6.9-3.7 4.5-0.7-0.5 3.8-1.5 4.8z"/>
		</g>
	</g>
</svg>
