<svg version="1.2" xmlns="http://www.w3.org/2000/svg" viewBox="0 0 375 375" width="500" height="500">
	<title>cover-svg</title>
	<defs>
		<clipPath clipPathUnits="userSpaceOnUse" id="cp1">
			<path d="m0 0h375v375h-375z"/>
		</clipPath>
		<clipPath clipPathUnits="userSpaceOnUse" id="cp2">
			<path d="m0 0h375v375h-375z"/>
		</clipPath>
		<clipPath clipPathUnits="userSpaceOnUse" id="cp3">
			<path d="m0 0h375v375h-375z"/>
		</clipPath>
		<clipPath clipPathUnits="userSpaceOnUse" id="cp4">
			<path d="m235.05 10.3h123.75v80.25h-123.75z"/>
		</clipPath>
		<clipPath clipPathUnits="userSpaceOnUse" id="cp5">
			<path d="m37.5 262.11h60v75.75h-60z"/>
		</clipPath>
	</defs>
	<style>
		.s0 { fill: none } 
		.s1 { fill: #ffffff } 
		.s2 { fill: #a8eb12 } 
	</style>
	<g id="Clip-Path" clip-path="url(#cp1)">
		<g>
			<path fill-rule="evenodd" class="s0" d="m0 0h375v375h-375z"/>
		</g>
	</g>
	<g id="Clip-Path" clip-path="url(#cp2)">
		<g>
			<path fill-rule="evenodd" class="s0" d="m0 0h375v375h-375z"/>
		</g>
	</g>
	<g id="Clip-Path: H1" clip-path="url(#cp3)">
		<g id="H1">
			<g id="d">
			</g>
			<g id="e">
			</g>
			<g id="f">
			</g>
			<g id="g">
			</g>
			<g id="h">
				<path fill-rule="evenodd" class="s1" d="m60.5 135.5q-0.8 0-1.6 0.1-0.8 0.2-1.6 0.5-0.8 0.4-1.5 0.8-0.6 0.5-1.2 1.1-0.6 0.6-1.1 1.4-0.5 0.7-0.8 1.5-0.3 0.8-0.5 1.6-0.1 0.8-0.1 1.7 0 3.6 2.5 6.2 0.6 0.6 1.2 1.1 0.7 0.5 1.5 0.8 0.8 0.4 1.6 0.5 0.8 0.2 1.6 0.2 0.7 0 1.4-0.1 0.7-0.1 1.4-0.2 0.6-0.2 1.3-0.4 0.6-0.3 1.3-0.6l0.6-0.4 4.1 8.5q-0.1 0.1-0.3 0.3-0.2 0.1-0.4 0.2-0.1 0.1-0.3 0.2-0.2 0.1-0.4 0.2-0.4 0.2-0.9 0.4-0.5 0.2-1 0.4-0.5 0.2-1 0.3-0.5 0.2-1 0.3-0.8 0.2-1.6 0.4-0.8 0.2-1.7 0.3-0.8 0.1-1.6 0.2-0.8 0-1.7 0-1.9 0-3.7-0.3-1.9-0.4-3.7-1.1-1.8-0.7-3.4-1.7-1.6-1-2.9-2.4-1.4-1.2-2.5-2.7-1.1-1.5-1.9-3.2-0.8-1.7-1.1-3.6-0.4-1.8-0.4-3.7c0-5.2 1.9-9.6 5.9-13.2q1.3-1.4 2.9-2.4 1.6-1.1 3.4-1.8 1.8-0.7 3.6-1.1 1.9-0.4 3.8-0.3 1.4 0 2.8 0.1 1.4 0.2 2.7 0.5 1.4 0.3 2.7 0.8 1.3 0.4 2.6 1l1.1 0.9-4.1 8.3q-0.7-0.4-1.4-0.7-0.7-0.4-1.5-0.6-0.7-0.2-1.5-0.3-0.8-0.1-1.6 0zm23.2-9v16.9c0 3.4 0.5 6 1.6 7.4 1 1.5 2.8 2.2 5.4 2.2 2.5 0 4.3-0.6 5.4-2.2 1-1.4 1.6-3.9 1.6-7.4v-16.9h12.2v19.8c0 5.9-1.5 10.2-4.6 12.8-3.1 2.6-7.9 3.9-14.6 3.9-6.7 0-11.6-1.3-14.7-3.9-3-2.6-4.5-6.9-4.5-12.8v-19.8zm30.3 35.5v-35.5h12.3v5.1h0.1q0-0.1 0.1-0.2 0-0.1 0.1-0.1 0-0.1 0.1-0.2 0-0.1 0.1-0.2 0.4-0.4 0.8-0.9 0.5-0.4 0.9-0.8 0.5-0.4 0.9-0.8 0.5-0.4 1-0.8 0.4-0.2 0.7-0.4 0.4-0.3 0.8-0.4 0.4-0.2 0.7-0.4 0.4-0.1 0.8-0.3c1.3-0.4 2.5-0.6 3.8-0.6q0.9-0.1 1.8 0 0.9 0.2 1.7 0.4 0.9 0.2 1.7 0.5 0.8 0.3 1.6 0.7l1 0.6-5.1 10.3q-0.7-0.5-1.5-0.9-0.7-0.4-1.5-0.6-0.8-0.2-1.7-0.3-0.8-0.1-1.7-0.1-0.5 0-1 0-0.5 0.1-1 0.2-0.4 0.1-0.9 0.3-0.5 0.2-0.9 0.5-0.4 0.2-0.7 0.4-0.3 0.3-0.6 0.6-0.3 0.3-0.5 0.6-0.3 0.4-0.5 0.7-0.1 0.3-0.2 0.6-0.2 0.3-0.3 0.6-0.1 0.3-0.2 0.6-0.1 0.3-0.2 0.6 0 0.2-0.1 0.3 0 0.2-0.1 0.4 0 0.2 0 0.4 0 0.2 0 0.4v18.7zm30.9-34.3v-1.2h12.3v35.5h-12.3v-34.3zm1.2-21c1.4-1.4 3.1-2.1 5.1-2.1 2 0 3.7 0.7 5.1 2.1q0.6 0.5 1 1.1 0.4 0.6 0.6 1.2 0.3 0.7 0.5 1.4 0.1 0.7 0.1 1.4 0 0.7-0.1 1.4-0.2 0.8-0.5 1.4-0.2 0.7-0.6 1.3-0.4 0.6-1 1-0.5 0.6-1 1-0.6 0.4-1.3 0.6-0.7 0.3-1.4 0.5-0.7 0.1-1.4 0.1-0.7 0-1.4-0.1-0.7-0.2-1.4-0.5-0.6-0.2-1.2-0.6-0.6-0.4-1.1-1-0.5-0.4-0.9-1-0.4-0.6-0.7-1.3-0.3-0.6-0.4-1.4-0.1-0.7-0.1-1.4c0-2 0.7-3.6 2.1-5.1zm19.6 51.1q-1.5-1.3-2.6-2.8-1.1-1.6-1.9-3.3-0.7-1.8-1.1-3.7-0.4-1.8-0.3-3.7c0-5.6 2.1-10 6.2-13.5 4.1-3.5 9.2-5.3 15.2-5.3q2-0.1 4 0.2 2 0.3 4 1 1.9 0.7 3.7 1.7 1.7 1 3.3 2.4 1.5 1.2 2.6 2.7 1.2 1.6 2 3.3 0.8 1.8 1.2 3.7 0.4 1.8 0.3 3.8 0.1 1.9-0.3 3.8-0.4 1.8-1.2 3.6-0.7 1.7-1.9 3.3-1.1 1.5-2.6 2.8-1.5 1.3-3.3 2.3-1.8 1-3.8 1.7-1.9 0.7-3.9 1-2.1 0.3-4.1 0.2-2.1 0.1-4.2-0.2-2.1-0.3-4.1-1-2-0.6-3.8-1.7-1.8-1-3.4-2.3zm9.5-19.6q-0.6 0.6-1.1 1.3-0.4 0.7-0.7 1.5-0.3 0.8-0.5 1.6-0.1 0.8-0.1 1.7 0 0.8 0.1 1.6 0.1 0.8 0.4 1.6 0.3 0.8 0.8 1.5 0.4 0.7 1 1.3 0.6 0.6 1.3 1 0.7 0.4 1.5 0.7 0.7 0.3 1.6 0.5 0.8 0.1 1.6 0.1c1.1 0 2.2-0.2 3.2-0.6 1-0.4 1.9-1.1 2.7-1.8 0.8-0.8 1.4-1.7 1.8-2.7 0.4-1.1 0.6-2.1 0.5-3.2q0.1-0.9-0.1-1.7-0.1-0.8-0.4-1.6-0.4-0.8-0.8-1.5-0.5-0.7-1.1-1.3-0.6-0.5-1.2-1-0.7-0.4-1.5-0.7-0.7-0.3-1.5-0.5-0.8-0.1-1.6-0.1-0.8 0-1.6 0.1-0.8 0.2-1.6 0.5-0.8 0.3-1.5 0.7-0.7 0.5-1.2 1z"/>
			</g>
			<g id="i">
			</g>
			<g id="g">
			</g>
			<g id="j">
			</g>
			<g id="k">
			</g>
			<g id="l">
				<path fill-rule="evenodd" class="s1" d="m220.1 125.5q1.4-0.1 2.7 0.1 1.3 0.1 2.7 0.4 1.3 0.2 2.6 0.6 1.2 0.4 2.5 0.9l1.4 0.7-4 8q-0.9-0.5-1.8-0.9-1-0.4-2-0.7-1-0.2-2-0.4-1-0.1-2.1-0.2-0.3 0-0.7 0-0.4 0-0.8 0.1-0.4 0.1-0.7 0.2-0.4 0.1-0.7 0.2-0.9 0.4-0.9 1.7l0.1 0.5c0 0.2 0.1 0.4 0.3 0.6q0 0 0.1 0.1 0 0 0.1 0.1 0 0 0 0.1 0.1 0 0.1 0.1 0.1 0 0.2 0.1 0 0 0.1 0.1 0.1 0 0.2 0.1 0.1 0 0.1 0 0.1 0.1 0.2 0.1 0.1 0.1 0.2 0.1 0 0 0.1 0.1 0.1 0 0.2 0.1 0.2 0 0.4 0.1 0.2 0.1 0.4 0.2 0.2 0 0.4 0.1 0.2 0.1 0.4 0.2 0.8 0.2 1.5 0.4 0.7 0.2 1.4 0.4 0.7 0.2 1.4 0.5 0.7 0.3 1.4 0.6 0.4 0.3 0.9 0.5 0.4 0.2 0.8 0.5 0.4 0.3 0.8 0.5 0.4 0.3 0.8 0.6 0.5 0.3 0.9 0.7 0.4 0.4 0.7 0.8 0.4 0.4 0.6 0.9 0.3 0.4 0.6 0.9 0.2 0.6 0.4 1.1 0.2 0.6 0.3 1.2 0.1 0.5 0.2 1.1 0.1 0.6 0 1.2c0 8.1-5.6 12.1-16.8 12.1q-1.6 0-3.2-0.2-1.6-0.2-3.1-0.7-1.5-0.4-3-1.1-1.5-0.7-2.8-1.5l-1.5-1.3 4.9-8.3q0.2 0.1 0.4 0.3 0.2 0.1 0.3 0.3 0.2 0.1 0.4 0.3 0.2 0.1 0.4 0.2 0.4 0.3 0.8 0.5 0.4 0.3 0.8 0.5 0.4 0.2 0.8 0.4 0.4 0.2 0.8 0.4 0.5 0.3 1 0.5 0.5 0.2 1 0.3 0.5 0.2 1.1 0.2 0.5 0.1 1 0.1c2.6 0 3.8-0.8 3.8-2.5q0-0.3 0-0.5-0.1-0.3-0.2-0.5-0.2-0.3-0.3-0.5-0.2-0.2-0.5-0.3-0.3-0.3-0.7-0.5-0.4-0.2-0.9-0.4-0.4-0.2-0.8-0.3-0.4-0.2-0.9-0.3-0.4-0.2-0.9-0.4-0.4-0.1-0.9-0.3-0.4-0.2-0.9-0.4-0.4-0.2-0.9-0.5-0.7-0.3-1.4-0.7-0.7-0.5-1.4-1-0.6-0.4-1.2-1-0.7-0.5-1.2-1.1-0.5-0.6-0.9-1.3-0.4-0.7-0.6-1.5-0.3-0.7-0.4-1.5-0.1-0.8-0.1-1.5c0-3.6 1.4-6.4 4.2-8.4 2.8-2.1 6.6-3 11.3-3zm16.3-18.8c1.4-1.4 3.2-2.1 5.2-2.1 2 0 3.6 0.7 5.1 2.1q0.5 0.5 0.9 1.1 0.4 0.6 0.7 1.2 0.3 0.7 0.4 1.4 0.1 0.7 0.1 1.4 0 0.7-0.1 1.4-0.1 0.7-0.4 1.4-0.3 0.7-0.7 1.3-0.4 0.6-0.9 1-0.5 0.6-1.1 1-0.6 0.4-1.3 0.6-0.6 0.3-1.3 0.5-0.7 0.1-1.4 0.1-0.7 0-1.5-0.1-0.7-0.2-1.3-0.5-0.7-0.2-1.3-0.6-0.6-0.4-1.1-1-0.5-0.4-0.9-1-0.4-0.6-0.7-1.3-0.2-0.7-0.4-1.4-0.1-0.7-0.1-1.4c0-2 0.7-3.6 2.1-5.1zm11.1 19.8v35.5h-12.2v-35.5zm7.2 0v-13.2h12.3v13.2h7.4 10.7l9.9 18.2 8.4-18.2h14.1l-27.8 53.4h-14.2l12.3-23.5-13.4-23.7v3.1h-7.4v11.3c0 3.3 0.9 4.9 2.7 4.9q0.4 0 0.7-0.1 0.4 0 0.7-0.1 0.3-0.1 0.7-0.3 0.3-0.1 0.6-0.3l0.4-0.3 3 9.9q-1.7 0.9-3.5 1.5-1.9 0.5-3.8 0.6-2 0.2-3.9-0.1-1.9-0.3-3.7-1-0.6-0.2-1.1-0.6-0.5-0.3-1-0.7-0.5-0.5-0.9-0.9-0.5-0.5-0.8-1-0.3-0.5-0.6-1-0.2-0.6-0.5-1.1-0.2-0.5-0.4-1.1-0.2-0.5-0.3-1.1-0.2-0.6-0.3-1.2-0.1-0.6-0.1-1.2-0.1-0.6-0.1-1.2-0.1-0.6-0.1-1.2v-13.7h-5.1v-9.3zm70 20.7q0.8 0 1.6 0.1 0.7 0.1 1.4 0.4 0.8 0.4 1.4 0.8 0.7 0.4 1.2 1 0.6 0.6 1 1.2 0.5 0.6 0.8 1.4 0.3 0.7 0.4 1.5 0.2 0.7 0.2 1.5c0 6.9-3.9 13.4-11.7 19.9l-3.5-2.9 1.2-1.3q0.3-0.4 0.6-0.8 0.3-0.4 0.5-0.8 0.3-0.4 0.6-0.9 0.2-0.4 0.4-0.9 0.4-0.6 0.7-1.2 0.3-0.6 0.5-1.2 0.3-0.6 0.4-1.3 0.2-0.7 0.4-1.3-0.7-0.2-1.3-0.4-0.5-0.2-1.1-0.5-0.5-0.4-1-0.8-0.5-0.4-0.9-0.9-0.4-0.5-0.8-1-0.3-0.6-0.5-1.2-0.2-0.6-0.3-1.2-0.1-0.6-0.1-1.3 0-0.8 0.1-1.5 0.2-0.8 0.5-1.5 0.3-0.7 0.7-1.4 0.4-0.6 1-1.2 0.5-0.5 1.2-1 0.6-0.4 1.4-0.7 0.7-0.3 1.4-0.5 0.8-0.1 1.6-0.1z"/>
			</g>
			<g id="d">
			</g>
			<g id="m">
			</g>
			<g id="n">
			</g>
			<g id="f">
				<path fill-rule="evenodd" class="s1" d="m60.5 200.7q-0.8 0-1.6 0.2-0.8 0.2-1.6 0.5-0.8 0.3-1.5 0.8-0.6 0.5-1.2 1.1-0.6 0.6-1.1 1.3-0.5 0.7-0.8 1.5-0.3 0.8-0.5 1.6-0.1 0.9-0.1 1.7 0 3.7 2.5 6.3 0.6 0.6 1.2 1.1 0.7 0.4 1.5 0.8 0.8 0.3 1.6 0.5 0.8 0.1 1.6 0.1 0.7 0 1.4 0 0.7-0.1 1.4-0.3 0.6-0.1 1.3-0.4 0.6-0.2 1.3-0.5l0.6-0.4 4.1 8.5q-0.1 0.1-0.3 0.2-0.2 0.1-0.4 0.2-0.1 0.1-0.3 0.3-0.2 0.1-0.4 0.2-0.4 0.2-0.9 0.4-0.5 0.2-1 0.4-0.5 0.1-1 0.3-0.5 0.1-1 0.3-0.8 0.2-1.6 0.4-0.8 0.1-1.7 0.2-0.8 0.2-1.6 0.2-0.8 0.1-1.7 0.1-1.9 0-3.7-0.4-1.9-0.3-3.7-1-1.8-0.7-3.4-1.8-1.6-1-2.9-2.3-1.4-1.2-2.5-2.8-1.1-1.5-1.9-3.2-0.8-1.7-1.1-3.5-0.4-1.8-0.4-3.7c0-5.2 1.9-9.6 5.9-13.3q1.3-1.3 2.9-2.4 1.6-1 3.4-1.8 1.8-0.7 3.6-1 1.9-0.4 3.8-0.4 1.4 0 2.8 0.2 1.4 0.1 2.7 0.4 1.4 0.3 2.7 0.8 1.3 0.5 2.6 1.1l1.1 0.8-4.1 8.4q-0.7-0.4-1.4-0.8-0.7-0.3-1.5-0.5-0.7-0.2-1.5-0.3-0.8-0.1-1.6-0.1zm11.6 26.5v-59.5h12.3v59.5zm19.5-4.3q-1.2-1.4-2.2-3-1-1.5-1.6-3.2-0.6-1.7-0.9-3.6-0.3-1.8-0.3-3.6c0-5.2 1.7-9.7 5-13.3q1.2-1.4 2.6-2.4 1.5-1.1 3.1-1.8 1.7-0.7 3.4-1 1.8-0.3 3.5-0.3 1.6-0.1 3.2 0.2 1.6 0.3 3.1 0.8 1.5 0.6 2.9 1.5 1.3 0.8 2.5 1.9v-3.4h12.2v35.5h-12.1v-4h-0.1q-1.1 1.2-2.5 2.2-1.3 1-2.8 1.6-1.5 0.7-3.1 1-1.6 0.3-3.3 0.3-1.7 0-3.5-0.3-1.7-0.4-3.4-1.1-1.6-0.7-3.1-1.7-1.4-1-2.6-2.3zm10.4-19.4q-0.6 0.6-1.1 1.3-0.4 0.7-0.7 1.5-0.3 0.7-0.5 1.6-0.1 0.8-0.1 1.6 0 0.8 0.1 1.7 0.1 0.8 0.4 1.6 0.3 0.7 0.8 1.4 0.4 0.7 1 1.3 0.6 0.6 1.3 1.1 0.7 0.4 1.5 0.7 0.7 0.3 1.6 0.4 0.8 0.1 1.6 0.1c1.1 0 2.2-0.2 3.2-0.6 1-0.4 1.9-1 2.7-1.8 0.8-0.8 1.4-1.7 1.8-2.7 0.4-1 0.6-2.1 0.5-3.2q0.1-0.8-0.1-1.6-0.1-0.9-0.4-1.6-0.3-0.8-0.8-1.5-0.5-0.7-1.1-1.3-0.5-0.6-1.2-1-0.7-0.5-1.4-0.8-0.8-0.3-1.6-0.4-0.8-0.2-1.6-0.2-0.8 0-1.6 0.2-0.8 0.1-1.6 0.4-0.8 0.3-1.5 0.8-0.7 0.4-1.2 1zm30.9 23.7v-35.5h12.3v5.2h0.1q0.1-0.1 0.1-0.2 0.1-0.1 0.1-0.2 0.1-0.1 0.1-0.2 0.1-0.1 0.1-0.1 0.4-0.5 0.9-0.9 0.4-0.5 0.9-0.9 0.4-0.4 0.9-0.8 0.4-0.4 0.9-0.8 0.4-0.2 0.7-0.4 0.4-0.2 0.8-0.4 0.4-0.2 0.8-0.3 0.4-0.2 0.8-0.3c1.2-0.5 2.5-0.7 3.8-0.7q0.9 0 1.7 0.1 0.9 0.1 1.8 0.3 0.8 0.2 1.7 0.5 0.8 0.3 1.6 0.8l0.9 0.5-5.1 10.4q-0.7-0.5-1.4-0.9-0.8-0.4-1.6-0.7-0.8-0.2-1.7-0.3-0.8-0.1-1.7 0-0.5-0.1-0.9 0-0.5 0-1 0.2-0.5 0.1-1 0.3-0.4 0.2-0.9 0.4-0.3 0.2-0.7 0.5-0.3 0.2-0.6 0.5-0.3 0.3-0.5 0.7-0.2 0.3-0.4 0.7-0.2 0.3-0.3 0.5-0.1 0.3-0.2 0.6-0.1 0.3-0.2 0.6-0.2 0.3-0.2 0.6-0.1 0.2-0.1 0.4-0.1 0.2-0.1 0.4-0.1 0.2-0.1 0.4 0 0.2 0 0.3v18.7z"/>
			</g>
			<g id="g">
				<path fill-rule="evenodd" class="s1" d="m163 177.1q0 0.7 0.1 1.4 0.2 0.7 0.5 1.4 0.2 0.6 0.6 1.2 0.4 0.6 1 1.1 0.5 0.5 1 0.9 0.6 0.4 1.3 0.7 0.7 0.3 1.4 0.4 0.7 0.1 1.4 0.1 0.7 0 1.4-0.1 0.7-0.1 1.4-0.4 0.6-0.3 1.2-0.7 0.6-0.4 1.1-0.9 0.5-0.5 0.9-1.1 0.4-0.6 0.7-1.2 0.3-0.7 0.4-1.4 0.1-0.7 0.1-1.4 0-0.7-0.1-1.4-0.1-0.7-0.4-1.4-0.3-0.7-0.7-1.3-0.4-0.5-0.9-1c-1.5-1.5-3.1-2.2-5.1-2.2-2 0-3.8 0.8-5.1 2.2-1.5 1.4-2.2 3.1-2.2 5.1zm1 14.6v35.5h12.2v-35.5z"/>
			</g>
			<g id="j">
				<path class="s1" d="m183.5 191.7v-13.2h12.2v13.2h7.5v9.4h-7.5v11.2c0 3.3 0.9 5 2.8 5q0.3-0.1 0.7-0.1 0.3-0.1 0.7-0.2 0.3-0.1 0.6-0.2 0.3-0.2 0.6-0.4l0.4-0.2 3.1 9.8q-1.7 1-3.6 1.5-1.9 0.5-3.8 0.7-1.9 0.1-3.8-0.2-2-0.2-3.8-0.9-0.5-0.3-1.1-0.6-0.5-0.4-1-0.8-0.5-0.4-0.9-0.9-0.4-0.4-0.8-1-0.3-0.5-0.5-1-0.3-0.5-0.5-1-0.3-0.6-0.4-1.1-0.2-0.6-0.4-1.2-0.1-0.6-0.2-1.2-0.1-0.6-0.2-1.2-0.1-0.6-0.1-1.2 0-0.6 0-1.2v-13.6h-5.1v-9.4z"/>
			</g>
			<g id="k">
				<path class="s1" d="m231.9 191.7l14.1-0.2-27.4 53.7-14.1 0.2 12.1-23.7-17.1-29.8 14.1-0.1 10.1 18.1z"/>
			</g>
			<g id="o">
				<path class="s2" d="m253.5 212.4q0.7 0 1.5 0.1 0.8 0.2 1.5 0.5 0.7 0.3 1.4 0.8 0.6 0.4 1.2 1 0.5 0.5 1 1.2 0.4 0.6 0.7 1.3 0.3 0.7 0.5 1.5 0.1 0.8 0.1 1.6 0 0.8-0.1 1.5-0.2 0.8-0.5 1.5-0.3 0.7-0.7 1.4-0.5 0.6-1 1.2-0.6 0.5-1.2 1-0.7 0.4-1.4 0.7-0.7 0.3-1.5 0.4-0.8 0.2-1.5 0.2-1.6 0-3.1-0.6-1.4-0.6-2.6-1.7-1.1-1.1-1.7-2.6-0.5-1.5-0.5-3 0-0.8 0.1-1.6 0.1-0.7 0.4-1.5 0.3-0.7 0.8-1.3 0.4-0.7 1-1.2 0.5-0.6 1.1-1 0.7-0.5 1.4-0.8 0.7-0.3 1.5-0.4 0.8-0.2 1.6-0.2z"/>
			</g>
		</g>
	</g>
	<g id="Clip-Path" clip-path="url(#cp4)">
		<g>
			<path fill-rule="evenodd" class="s1" d="m353.1 38.8c1.6 1.3 2.7 2.8 3.8 4.9 0.7 1.3 1.5 3.5 1.7 5.6 0.2 2.7-0.4 5-1.2 7.1-1 3-2.3 4.8-4.7 6.6-1.3 0.9-2.6 1.9-4.3 2.3-2 0.5-4.4 0.2-6.6-0.2-0.1 2.9-1.3 4.8-2.8 6.6-2 2.3-4.4 4.6-7.7 5.6-0.8 0.2-1.8 0.4-2.6 0.6-0.9 0.3-1.9 0.5-2.7 0.6-3.2 0.3-6.7-0.7-9.3-1.9-1.2-0.5-2.5-1.1-3.5-1.9-1.9-1.5-3.3-3-4.7-5.1-1.1-1.6-1.9-3.4-2.3-5.9-6.8 1-11.9-1.2-13.7-5.8-0.3-0.2-0.5 0.3-0.8 0.4-1.8 1-4.4 1.8-7.7 1.3-0.7-0.1-1.6-0.5-2.3-0.7-0.4 2.2-1.6 3.9-2.4 5.9-0.9 2-2.3 3.6-3.9 5.1q-1 0.9-2.3 1.5c-0.8 0.4-1.7 1-2.4 1.2-1 0.3-2.5 0.4-3.6 0.3-2.5-0.1-5.3-0.5-7.5-1.4-1-0.4-2-0.9-3-1.4-1-0.5-2.1-1-2.8-1.6-0.8-0.6-1.4-1.6-2.1-2.6-1.5-2.1-2.8-4.6-3.4-7.7-1.2 0-2.4-0.4-3.5-0.9-1.1-0.5-2.4-1-3.3-1.8-0.5-0.4-0.9-1-1.4-1.6-1.2-1.2-2.3-2.5-3.1-4.3-1.2-2.4-2-6.9-1.6-10.2 0.3-2.7 1-4.6 2.2-6.5 0.5-0.8 1-1.7 1.6-2.1 0.4-0.4 1.1-0.6 1.6-1 1.5-1 3.6-1.9 6.1-1.9-0.5-2.2-0.1-3.8 0.6-5.5 1.5-3.2 3.7-6.3 6.7-8.1 1-0.6 1.9-1 3.3-1.6 1.8-0.6 4.9-0.8 7.6-0.5 1.4 0.1 2.6 0.8 3.7 1.5q0.6 0.3 1.1 0.6 0.5 0.3 1 0.7 0.5 0.3 1 0.7 0.5 0.4 1 0.8c1.2 0.9 2.1 2.1 3 3.3 0.9-0.1 1.5-0.9 2.3-1.3 3.5-1.9 10.1-1.4 13.2 0.3 0.9-3 3.3-5.1 5.9-6.7 1.6-1 2.7-1.4 4.8-1.6 1.8-0.2 2.9 0.1 4.5 0.4 1.6 0.4 3.2 0.8 4.3 1.5 0.5 0.3 1 0.9 1.5 1.3 1 0.8 1.8 1 2.7 1.9 0.4 0.3 0.8 1 0.9 1 0.3-0.1 0.6-0.9 0.7-1 1.3-1.4 3.6-2.3 5.9-3.1 2.9-1 5.8-1.6 9.8-1.3 3.1 0.2 6 1.6 8.6 2.7 1.4 0.6 2.5 1.3 3.7 2.1 1.4 1.1 2.9 2.1 4.1 3.4 1.9 2.1 3.1 4.5 3.8 8 0.1 0.5 0.1 1.2 0.3 1.6 0.2 0.4 1 0.8 1.4 1.4 1.4 2.5 0.4 6.5-1.2 8.4zm-45.1 26.3c0.4 1.7 1 2.7 1.9 4 0.6 0.8 1.2 1.8 1.8 2.4 0.6 0.6 1.4 1.2 2 1.8 0.8 0.6 1.6 1 2.5 1.5 2.4 1.2 5.1 2.1 8.4 2.3 2 0.1 3.3-0.5 5.1-0.9 3.6-0.9 5.7-2.5 7.7-4.9 1-1.3 2.6-2.8 2.8-4.8 0.1-1.5-0.3-3.1 0.5-3.3 0.6-0.2 1.3 0.5 1.5 0.5 1.3 0.5 3.2 0.5 4.6 0.4 2.4-0.2 3.8-1.4 5.2-2.5 0.7-0.5 1.5-0.9 1.9-1.4 0.8-0.9 1.3-2 1.8-3.2 0.1-0.4 0.4-0.8 0.5-1.2 0.8-2.3 1.2-5.4 0.6-7.9-0.2-0.7-0.2-1.4-0.4-2-0.1-0.5-0.5-0.9-0.8-1.5-0.3-0.5-0.4-1.1-0.7-1.5-0.5-0.8-1.7-2.2-2.3-2.7-0.6-0.4-1.4-0.6-1.4-1.4 0-0.5 0.6-0.7 0.9-1 0.6-0.7 1.2-2.1 1.3-3.3 0.2-1.1 0-2.9-0.4-3.6-0.4-0.5-1.3-0.5-1.6-1.4-0.1-0.2 0-0.7 0-1-0.3-2.4-1.1-4.5-2.3-6.2-1.1-1.8-2.5-3-4.3-4.3-3-2.4-7.4-4.7-11.9-5.3-5-0.7-9.1 0.8-12.3 2.3-1.5 0.6-2.6 1.1-3.4 2.4-0.2 0.4-0.4 1.1-1 1.1-0.7 0-2.4-2.2-2.9-2.5-0.6-0.4-1.1-0.8-1.6-1.1-0.5-0.4-1-0.9-1.5-1.2-1.4-0.9-4-1.6-5.8-1.7-1.2-0.1-2.5-0.1-3.7 0.1-0.8 0.1-1.8 0.7-2.5 1.2q-0.5 0.2-0.9 0.5-0.4 0.3-0.8 0.6-0.4 0.3-0.8 0.6-0.4 0.4-0.7 0.7c-1.2 1.2-1.9 2-2.3 4.1 1.1 1 2.1 2.1 2.7 3.5 0.6 0.1 1.2 0.3 1.3 1 0.1 0.5-0.7 0.1-0.6 0.5 0.8 0.8 1.8 1.6 2.6 2.3 0.3 0.3 0.9 0.4 0.8 0.9-1.4 0.3-1.8-1.2-2.8-1.5 0 0.4 0.1 0.8 0 1.4 1.1 0.8 2.2 1.6 3.2 2.4 0.4 0.2 1 0.6 0.9 1.1-0.8 0.3-1.5-0.5-2.2-1-0.5-0.4-0.9-0.9-1.4-1.2 0-0.1-0.4-0.4-0.5-0.1 0.1 0.4-0.1 0.5 0 0.8 1.2 1.2 2.5 2.3 3.8 3.3 0.4 0.3 1.1 0.6 1.1 1.3-0.5 0.4-1.1-0.2-1.4-0.5-1.3-1-2.5-2.2-3.7-3.1q-0.1 0.2-0.1 0.4-0.1 0.2-0.1 0.4 0 0.2-0.1 0.4 0 0.2-0.1 0.3c1.6 1.2 3.3 2.7 4.9 3.9 0.4 0.3 1.4 0.7 1.2 1.6-0.7 0.1-1.2-0.6-1.6-1-1.6-1.2-3.2-2.5-4.8-3.6-0.1 0.5-0.3 0.9-0.5 1.5q0.7 0.6 1.3 1.2 0.7 0.6 1.3 1.2 0.7 0.6 1.4 1.2 0.7 0.6 1.4 1.1c0.5 0.5 1.6 1 1.4 1.9-0.5 0.1-0.8-0.3-1.1-0.6-1.5-1.2-3-2.4-4.3-3.7-0.6-0.5-1.1-1.1-1.8-1.5-0.1 0.6-0.5 0.9-0.8 1.4 1.6 0.8 3.1 2.2 4.5 3.4 1.1 0.9 2.3 1.7 3.2 2.7 0.2 0.2 1 0.7 0.5 1.2-0.5 0.2-0.8-0.4-1.1-0.6-1-1-2.1-1.9-3.1-2.8-1.5-1.2-2.8-2.4-4.4-3.3q-0.1 0.4-0.5 0.6c0.7 0.8 1.5 1.4 2.3 2.1 2.1 1.7 4.2 3.3 6.2 4.9 0.3 0.3 1.1 0.6 0.8 1.3-0.6 0.2-1-0.5-1.4-0.8-0.4-0.3-0.9-0.7-1.3-1q-0.6-0.5-1.3-1-0.7-0.5-1.3-1-0.7-0.5-1.3-1.1-0.7-0.5-1.3-1c-0.6-0.6-1.8-2.2-2.6-1.2 2.7 0.9 4 3.2 5.4 5.4 0-0.3 0.3-0.3 0.6-0.3 1.8 1.1 3.7 2.6 5.3 3.9 0.5 0.4 1.5 0.8 1.3 1.6-0.8 0.2-1.3-0.6-1.8-1-1.7-1.4-3.4-2.6-5.2-3.8 0.3 0.7 0.5 1.6 0.5 2.7 0 0.1 0.3-0.2 0.5 0 1.5 1.1 3 2.4 4.4 3.5 0.4 0.3 1.4 0.7 1 1.5-0.7 0-1.1-0.7-1.6-1-1.2-1-2.5-2.1-3.7-2.9-0.2-0.2-0.7-0.6-0.7-0.3-0.2 0.7-0.2 1.5-0.4 2.1 1.8 1.6 3.9 3.3 5.6 5 0.5 0.5 1.5 1.4 1.1 2.1-0.8-0.2-1.2-1.1-1.8-1.6q-0.5-0.6-1.1-1.1-0.5-0.6-1.1-1.1-0.6-0.5-1.2-1-0.5-0.5-1.1-1c-0.2-0.2-0.5-0.5-0.8-0.4-0.1 0.3-0.1 0.6-0.4 0.8 0.9 1 2.1 2 3.2 2.9q0.2 0.2 0.4 0.4 0.2 0.2 0.4 0.3 0.2 0.2 0.4 0.4 0.2 0.2 0.4 0.3c0.4 0.4 1.5 0.9 1 1.7-0.7-0.1-1.1-0.8-1.6-1.2-1.5-1.4-3-2.7-4.6-3.8-0.7 1.4-1.7 2.4-2.7 3.5 0.5 0.8 0.8 1.7 1.4 2.4 0.5 0.7 1.2 1 1.8 1.4 0.4 0.3 0.7 0.7 1.1 0.9 1.4 0.7 4.9 1.1 7.2 0.8 0.8-0.1 1.7-0.6 2.3 0.1 0.1 1.2 0.2 1.7 0.5 2.5zm-57.5-4.2c0.5 1.2 0.9 1.8 1.4 2.7 0.3 0.4 0.5 0.9 0.8 1.3 0.5 0.8 1.1 1.7 1.7 2.3 0.7 0.6 1.8 1.1 2.8 1.6 0.9 0.5 1.9 0.9 2.9 1.3 2.3 0.9 4.9 1.3 7.3 1.4 2.2 0.1 3.2-0.4 4.5-1 1.5-0.8 2.5-1.5 3.6-2.7 1.3-1.4 1.8-2.3 2.6-3.9 0.7-1.5 1.7-3.1 2-4.7 0.2-1.1 0.1-2.1 0.7-2.3 0.6-0.2 1.4 0.6 2.3 1 2.7 0.9 6 0.2 7.9-0.8 2.4-1.4 4.9-4.5 5.5-7.6 0.3-1.7 0-3.1-0.4-4.1-0.4-0.8-0.6-1.1-1.1-1.7-1.3-1.6-2-2.5-4-3.1-0.9-0.3-1.5-0.3-1.5-0.9-0.1-0.7 0.7-0.9 1.1-1.1 1.3-0.8 1.7-1.3 2.5-2.6 0.8-1.2 1.3-2.6 1.7-4 0.2-0.8 0.4-1.7 0.5-2.4 0.1-2-0.2-3.5-0.8-4.9-0.8-1.9-1.6-2.9-3-3.9-0.9-0.8-1.6-1.2-2.8-1.5-1.6-0.5-5.9-0.7-7.5-0.3-0.8 0.2-1.9 0.5-2.4 0.7-0.9 0.5-2 1.9-3 1.8 0 0-0.7-0.3-0.7-0.3-0.7-0.4-0.9-1.4-1.3-1.9-0.9-1.1-2.2-2.2-3.4-3-1.1-0.8-2.8-1.9-4-2.4-1.5-0.5-4-0.6-6.4-0.3-1.1 0.1-1.9 0.5-2.8 0.8-0.4 0.2-1 0.3-1.4 0.5-0.2 0.1-0.5 0.4-0.8 0.6-0.4 0.3-0.7 0.4-1 0.6-0.6 0.5-1.2 1.2-1.9 1.9-1.6 1.6-3.8 5.1-4 7.4-0.1 1.2 0.7 3 0.3 3.6-0.4 0.5-1.6 0.2-2.6 0.4-0.4 0-0.9 0.2-1.3 0.3-1.4 0.4-1.9 0.7-2.9 1.3-0.5 0.4-1.2 0.6-1.4 0.9-0.5 0.4-1.1 1.2-1.5 1.8-1.9 2.9-2.4 7.8-1.4 12.1 0.7 3 1.7 4.9 3.4 6.7 1.4 1.5 2.1 2.3 4 3.2 1.5 0.7 2.3 1.1 4.3 0.9 0.9 1.4 1 2.9 1.5 4.3zm59.4-45c-0.6 0.4-1.1-0.3-1.6-0.6-0.5-0.2-1.2-0.6-1.7-0.7-1.3-0.2-3-0.1-4.2 0-2.3 0.3-4.1 1.6-5.3 2.8-0.3 0.2-0.4 0.9-0.9 0.6-0.4-0.6 0.3-1.2 0.8-1.6 1.3-1.2 3.3-2.4 5.4-2.7 2.3-0.2 4.7 0 6.1 0.8 0.2 0.1 0.6 0.4 0.9 0.6 0.3 0.2 0.7 0.4 0.5 0.8zm27.3-0.3c-1 0.3-1.8-0.5-2.9-0.7-2-0.4-5.6-0.1-7.4 0.2-0.4 0.1-0.9 0.1-1.3 0.2-1.2 0.4-2.1 1.3-3.2 1.2-0.1-0.7 0.7-1 1.2-1.3 1-0.4 1.9-0.5 3.2-0.8 0.4-0.1 0.7-0.2 1-0.3 0.7-0.1 1.8-0.1 2.6-0.2 1.7-0.2 3.5 0.1 4.9 0.5 0.8 0.2 1.9 0.4 1.9 1.2zm-68.3 3.1c-0.9 0-1.6-1-2.2-1.7-1.7-1.2-4.3-1.7-6.9-1-2 0.5-4.3 2-5.4 3.4-0.8 0.9-1.3 2-1.8 3.2-0.2 0.4-0.5 0.7-0.6 1.1-0.2 0.5 0.1 1.4-0.7 1.6-0.5-0.1-0.3-1.1-0.1-1.6 0.2-0.7 0.7-1.9 1.1-2.6 0.9-1.7 1.6-2.6 3.2-3.8 0.6-0.5 1.4-1 2-1.3 1.3-0.6 2.4-0.9 4.1-1 2.4-0.2 4.8 0.4 6 2 0.5 0.4 1.6 0.8 1.3 1.7zm71.3-2.4c0 0.4-0.1 0.7-0.6 0.6-0.4-0.3 0.1-1 0.6-0.6zm-27.7 1.6c0.1 0.3-0.1 0.5-0.5 0.4-0.1-0.1-0.1-0.1-0.2-0.2-0.2-0.6 0.6-0.7 0.7-0.2zm37.4 18.2c-0.4-0.5-0.2-1.3-0.2-1.9 0-2.3-0.3-4-0.7-5.9-0.5-2.4-1.2-4.4-2.6-6-0.6-0.8-1.3-1.7-1.7-2.7v-0.2c0.7-0.4 1.1 0.8 1.6 1.4 0.6 0.8 1.2 1.4 1.7 2.3 0.9 1.5 1.6 3.5 2 5.7 0.3 1.9 0.6 3.2 0.5 5.6 0 0.7 0.1 1.7-0.6 1.7zm-78.8-16.1v0.5c-0.2 0.1-0.6 0.1-0.7 0-0.2-0.4 0.3-0.9 0.7-0.5zm18.2 2.3c-0.7 0.2-1-0.5-1.5-0.7-1.1-0.4-3.3-0.7-5-0.6-1.5 0.2-3.2 0.8-4.3 1.4-1 0.6-1.5 1.5-2.1 2.2-0.1 0.4-0.4 1.1-0.8 0.8-0.6-0.2 0-0.9 0.1-1.2 1.4-2.4 4.8-4.2 9.4-3.9 0.8 0 1.9 0.2 2.7 0.5 0.6 0.2 1.7 0.6 1.5 1.5zm0.9 0.5q0.6-0.1 0.7 0.3c-0.1 0.4-0.4 0.5-0.7 0.4-0.1-0.2-0.1-0.6 0-0.7zm2.1 2.5c0.2 0.3 0.2 0.8 0 1-0.8 0.1-0.9-1.1 0-1zm1.6 3.4c0.5 0.9 0.3 2.1 0.1 3-0.1 1.2-0.6 2.3-1.1 3.2-0.3 0.5-0.5 0.6-0.9 1.1-0.5 0.6-0.8 1.1-1.6 1.7-0.4 0.2-0.8 0.7-1.3 0.3 0.2-0.8 1.1-1 1.6-1.5 0.2-0.2 0.4-0.5 0.6-0.8 1.3-1.5 2.2-3.6 2.1-6.6-0.1-0.3 0.2-0.2 0.2-0.4 0 0 0.3 0 0.3 0zm-47.6 1.2c-0.3 0.7-1 0.9-1.6 1.2-1.6 1-3.1 2.3-4.4 3.8-0.4 1.2-1.3 2.6-1.5 4.4 0 0.7 0.4 2-0.3 2.6-0.8-0.3-0.6-1.4-0.5-2.4 0.1-1.4 0.6-2.7 1.1-3.8 0.2-0.4 0.3-0.8 0.5-1.1 0.6-1 1.7-2 2.6-2.7 1.1-0.9 2.3-1.5 3.3-2.1 0.2-0.1 0.6-0.4 0.8 0.1zm103.4 8.7h-0.5c-0.5-1 1.2-0.8 0.5 0zm2.3 17.5c-0.1-1 0.5-1.8 0.8-2.7 0.4-1.6 0.8-3.3 0.6-5.5-0.2-3.2-2.3-5.3-3.8-7.1q0 0 0 0 0.1 0 0.1-0.1 0 0 0-0.1 0 0 0 0c0.6-0.4 1.2 0.4 1.8 1.2 1.1 1.5 2.5 3.4 2.7 5.7 0.3 3.2-0.4 5.5-1.2 7.6-0.2 0.5-0.3 1.2-1 1zm-64.4-15.2c0.5 0 0.7 0.1 0.6 0.6-0.2 0.1-0.3 0.2-0.6 0.1-0.1-0.1-0.1-0.5 0-0.7zm-4.4 14.6c0.3-0.8 1.4-0.1 2-0.1 0.8 0.1 1.5 0 2.1-0.3 1.8-0.7 4.2-2.3 5-4.3 0.2-0.8 0.5-2.8 0.3-3.9-0.1-0.9-1-2.4-1.6-3-0.5-0.4-1.1-0.5-1.4-1 0.2-0.9 1.5 0 2 0.6 0.7 0.7 1.1 1.4 1.5 2.4 0.5 1.2 0.4 3.7-0.1 5.1-0.5 1.3-1.6 2.6-2.6 3.3-0.4 0.3-0.9 0.4-1.3 0.7-1 0.6-1.9 1.4-3.6 1.3-0.4-0.1-0.9-0.2-1.3-0.3-0.3-0.1-1 0.1-1-0.5zm67-10.9q0 0.5-0.3 0.6c-1 0.1-0.4-1.4 0.3-0.6zm-110.9 1.6v0.4c-0.3 0.3-0.9 0.1-0.7-0.4q0.3-0.3 0.7 0zm49.8 0.4c-0.2 0.2-0.6 0.1-0.8-0.1-0.1-0.7 1-0.7 0.8 0.1zm61.7-0.3c0.5 0 0.7 0.7 0.9 1.2 0.3 1 0.6 2.5 0.4 4.1-0.1 1.1-1.1 2.8-1.7 3.8-0.9 1.4-1.9 2.3-3.6 2.9-1.5 0.6-3.4 1-5.5 1.2-0.4 0.1-1.2 0.3-1.4-0.2 0.3-0.8 1.3-0.5 1.9-0.6 1.9-0.2 4-0.7 5.7-1.5 1-0.5 1.5-1.3 2.2-2.3 0.9-1.4 2-2.9 1.7-5.5-0.1-1-0.7-1.6-0.9-2.9 0-0.1 0.1-0.1 0.1-0.2 0 0 0.2 0 0.2 0zm-61.6 1.7c0.5 0.8 0.3 2.1-0.1 2.9-0.2 0.5-1.4 1.8-1.9 2.2-1 0.8-2.5 0.8-4.3 1-0.9 0.1-2.5 0.5-2.7-0.6 0.6-0.3 1.3-0.1 1.9-0.1 1.7-0.1 3.6-0.2 4.6-1 1.1-0.9 2-2 2-4.1-0.1-0.2 0.2-0.2 0.2-0.3 0 0 0.3 0 0.3 0zm-42.7 6.1c-0.4 0.4-0.9 0.2-1.3 0-1-0.4-2.7-1.6-3.5-2.3-0.3-0.4-0.7-0.9-1-1.3-0.3-0.5-0.7-0.9-0.6-1.4-0.1-0.2 0.1-0.2 0.1-0.3q0.2 0 0.2 0.1c0.8 0.6 1.2 1.6 1.9 2.3 0.7 0.4 1.3 1.1 2.1 1.5 0.7 0.4 1.7 0.6 2.1 1.4zm32.3-0.6c0 0.3-0.2 0.5-0.5 0.4-0.1-0.1-0.1-0.1-0.2-0.2-0.2-0.6 0.6-0.7 0.7-0.2zm-1.3 0.7c0.7 1.4 0 3.1-0.5 4.4-0.4 1.4-0.9 2.8-1.5 3.8-0.9 1.3-3.4 3.3-4.9 4.1q-0.2 0-0.4 0.1-0.2 0.1-0.4 0.2-0.2 0-0.5 0.1-0.2 0.1-0.4 0.1c-0.5 0.1-1.4 0.4-1.8-0.3 0.3-0.8 1-0.3 1.4-0.4 2.2-0.4 4.7-2.3 6.1-4.1 0.5-0.6 1-2 1.4-3 0.4-1 0.8-2.1 0.9-3.1 0.1-0.6-0.1-1.1 0.1-1.7q0.2-0.2 0.5-0.2zm24.2 6.1c-0.7 0.1-1.2-0.6-1.7-1q-0.4-0.4-0.8-0.7-0.4-0.3-0.7-0.7-0.4-0.3-0.8-0.7-0.4-0.3-0.8-0.7c-0.4-0.4-1.2-0.8-1.3-1.5 0.1-0.1 0.3-0.1 0.3-0.2q0.2 0 0.2 0.1c1.1 0.6 2 1.7 3 2.6 0.4 0.4 1.1 0.8 1.6 1.2 0.4 0.4 1.2 0.8 1 1.6zm-22.7-4.7c0.3 0 0.5 0 0.7 0.1 0 0.2 0 0.5-0.1 0.6-0.6 0.1-0.8-0.3-0.6-0.7zm20.8 5.5c-0.6 0.4-1-0.5-1.4-0.8-0.4-0.4-0.8-0.7-1.3-1.1-0.3-0.3-0.7-0.8-1.2-1.3-0.5-0.5-1.2-0.7-1.2-1.4q0-0.1 0.1-0.1 0 0 0 0 0.1 0 0.1 0 0 0 0.1 0c1.4 0.5 2.2 2 3.3 3 0.6 0.5 1.6 0.8 1.5 1.7zm-37.5 7.1c-0.3 0.5-0.8 0-1-0.1-1.6-0.6-3.3-1.5-4.5-2.6-1.1-1-2-1.8-3-3.1-1.2-1.5-2.3-3.3-3-5.5q0 0 0.1 0 0-0.1 0-0.1 0 0 0.1-0.1 0 0 0-0.1h0.2c0.6 0.4 0.8 1.1 1 1.6 1.5 3.2 3.8 6.1 6.8 7.9 0.8 0.4 1.5 0.8 2.4 1.2 0.3 0.2 1.1 0.3 0.9 0.9zm16.9-10.9c0.2 2.1-0.5 4.3-1.4 5.9-0.1 0.2-0.4 0.4-0.6 0.6-0.3 0.5-0.5 1.1-0.9 1.5-0.3 0.3-0.7 0.5-1.1 0.8-0.4 0.2-0.7 0.6-1.1 0.8-0.6 0.4-1.5 0.6-2.3 1-0.6 0.4-1.5 1.4-2.2 0.6 0.1-0.5 0.8-0.6 1.2-0.8 0.4-0.2 0.8-0.6 1.2-0.8 0.4-0.2 0.9-0.2 1.3-0.4 0.4-0.3 0.8-0.6 1.2-0.9 1.1-0.8 1.9-1.6 2.6-2.9 0.9-1.5 1.3-3 1.3-5 0.1 0 0.1-0.1 0.1-0.1q0.1-0.1 0.1-0.1 0 0 0-0.1 0 0 0 0 0-0.1 0-0.1zm71.7 1.5c0 0.4-0.2 0.5-0.6 0.5 0-0.1-0.1-0.2-0.2-0.2-0.2-0.6 0.7-0.8 0.8-0.3zm-4.3 1.8c-0.4 0.8-2.3 0.4-3 0.2 0-0.3 0-0.5 0.1-0.6 0.7 0 2.5-0.3 2.9 0.4zm-10.6 1.2c0.5-0.1 0.7 0.1 0.7 0.5-0.3 0.2-0.4 0.3-0.7 0.1-0.1-0.1-0.1-0.5 0-0.6zm-0.9 1c0.6 0.2 0.1 0.7 0.1 1-0.4 1.4-1.3 2.6-2.4 3.8-0.5 0.5-1.1 1-1.7 1.6-1.2 1-2.4 1.8-4.4 2.2-0.9 0.2-1.7 0.4-2.5 0.5-0.9 0-1.9-0.3-2.8-0.6-0.8-0.2-2-0.2-2.1-1.2 0.5-0.3 1.2 0.1 1.7 0.3 0.9 0.3 1.9 0.7 3.3 0.6 3.5-0.1 5.9-1.8 7.8-3.9 1.2-1.4 2.2-2.8 2.6-4.2 0-0.1 0.4-0.3 0.4-0.1zm-25.1 0c0.7 1 0.9 2.1 1.4 3.1 1.2 2.1 2.7 3.4 4.5 4.9 1 0.8 2 1.6 2.9 2.1 0.5 0.2 1.5 0.2 1.3 0.9-0.1 0.6-0.7 0.1-1 0-1.7-0.7-3.3-1.9-4.8-3.1-1.4-1.3-2.3-2.4-3.4-4.3-0.5-1-1.6-2.7-1.1-3.6zm28.4 2.6c-0.2 1.5-1.1 2.7-1.8 3.8-0.7 0.9-1.1 1.4-2.1 2.1-0.4 0.4-1 0.6-1.5 0.9-0.3 0.1-0.6 0.4-0.9 0.6-0.3 0.2-0.8 0.2-1.2 0.4-0.3 0.1-0.6 0.4-0.9 0.5-0.7 0.3-1.7 0.8-2.3 0.2 0.1-0.7 0.8-0.5 1.2-0.6 2.3-0.8 4.5-2.1 6.3-3.5 0.8-1.5 2.1-2.4 2.4-4.4 0-0.1 0.2-0.1 0.2-0.3 0.4 0 0.3 0.3 0.6 0.3zm-73.4 2.5q0.1 0.6-0.2 0.7c-0.4 0-0.4-0.3-0.4-0.7 0.1-0.1 0.5-0.1 0.6 0zm-14.3 14.2c-0.8-0.5-1.8-0.8-2.5-1.4-0.7-0.8-1.7-2.8-1.3-4.6 0.4-1.5 2.9-2.9 4.6-3.1 2.2-0.2 3.3 0.7 4.2 1.9 0.4 0.5 0.9 1 1.1 1.6 0.3 0.8 0.8 2.8 0.3 4.1-0.7 1.9-4.2 1.4-6.4 1.5zm4.7-5.3c-0.2-0.4-1.1-1.7-1.5-1.9-1.1-0.8-3.3-0.5-4.4 0.2-0.3 0.3-1.1 1-1.2 1.5-0.2 1 0.3 2.3 0.9 2.9 1.1 1.2 3.2 1.5 5.3 1.2 0.5-0.1 1-0.4 1.3-0.7-0.1-1.3 0-2.2-0.4-3.2zm91-3.3c0.4-0.1 1.3 0 1.8 0.3 0.9 0.6 1.4 1.8 1.6 3.5 0.2 2.1-0.4 3.1-1.4 4.4-0.8 1.1-1.7 2-2.8 2.9-1.1 0.9-2.1 1.7-4.2 1.2-0.3-0.1-1.1-0.4-1.4-0.8-0.2-0.4 0-0.8-0.1-1.4 0-0.4-0.3-0.8-0.3-1.1-0.2-1.7 0.4-3.8 1.1-5.2 0.8-1.5 2.7-3 4.2-3.6 0.5-0.2 1-0.2 1.5-0.2zm-1.3 9.8c1-0.9 1.7-1.8 2.4-2.8 0.7-1 0.9-1.3 0.9-2.8-0.1-1.7-0.6-3.1-2.2-2.8-1.1 0.1-2.8 1.3-3.6 2.2-0.8 0.9-1.9 3.5-1.6 5.2 0 0.4 0.4 0.8 0.4 1.2 0.1 0.3-0.2 0.5-0.1 0.8 1.8 0.5 2.7-0.1 3.8-1zm-22-9.2c0 0.5-0.6 0.6-0.9 0.3-0.2-0.8 0.8-0.8 0.9-0.3zm25.4 16.3c-0.5-1.1-1.1-2-0.8-3.4 0.3-1.6 2.2-3.1 4-2.4 1 0.3 1.3 2.1 1 3.5-0.1 0.6-0.8 1.6-1.1 1.8-0.7 0.6-2 0.6-3.1 0.5zm0.6-2.1c0.3 0.2 0.5 0.5 0.7 0.8 1.3-0.2 1.9-1.8 1.4-3.2q-2.2 0-2.1 2.4zm-103.6 0.9c-1-0.8-1.6-2.9-0.8-3.9 1.3-1.5 5.1 0.1 4.3 2.5-0.3 0.8-2.2 1.7-3.5 1.4zm0.2-2.8c0 0.7 0.4 1.1 1 1.4 0.2-0.3 0.6-0.4 1-0.6-0.2-0.7-1.3-1.5-2-0.8z"/>
		</g>
	</g>
	<g id="Clip-Path" clip-path="url(#cp5)">
		<g>
			<path fill-rule="evenodd" class="s1" d="m70 262.7c-0.4 0.5-1 0.4-1.4 0.5-0.8 0.2-1.5 0.6-2.3 0.8-1.4 0.4-2.8 0.9-4 1.6-0.9 0.4-1.8 1.2-2.6 1.9-0.7 0.6-1.3 1-2 1.7-0.2 0.2-0.4 0.4-0.6 0.6-0.9 0.8-1.7 2-2.4 3.1q-0.4 0.6-0.8 1.4c-0.2 0.4-0.2 1.1-0.8 1.1-0.4-0.3 0.1-1 0.3-1.5 0.3-0.5 0.6-1 0.8-1.4 0.3-0.4 0.6-0.9 0.9-1.3 0.6-0.8 0.9-1.2 1.6-1.8 0.8-0.8 1.6-1.6 2.6-2.4q0.4-0.3 0.8-0.6c0.6-0.5 1.2-1 1.7-1.3 0.4-0.2 0.9-0.4 1.4-0.6 0.4-0.2 0.8-0.5 1.3-0.6 0.7-0.3 1.5-0.4 2.3-0.7 0.4-0.2 0.9-0.4 1.5-0.6 0.7-0.2 1.4-0.5 1.7 0.1zm20.2 8.5c2.1 2.3 4.3 4 5.6 6.9 0.1 0.3 0.2 0.6 0.4 1 1.2 3.1 1.3 8 0.9 12.5-0.2 1.4-0.6 3-1.2 4.5-0.4 1.4-0.9 2.9-1.5 4-0.7 1.3-1.5 2.4-2.2 3.5-0.7 1.2-1.5 2.5-2.3 3.3-0.8 0.7-2 1.2-3.1 1.7-0.4 0.2-0.6 0.6-0.9 0.7-0.4 0.1-0.9 0.1-1.4 0.3-0.8 0.3-1.6 0.7-2.5 1-0.9 0.2-1.9 0.3-3 0.5-3.7 0.5-8.1 0.6-11.3-0.6-1.1 0.9-2 2-4.1 1.8-0.7 1.3-1.2 2.8-1.9 4.1-0.2 0.4-0.5 0.8-0.7 1.2-0.2 0.4-0.2 0.8-0.4 1.2-0.2 0.4-0.6 0.7-0.8 1.2-0.8 1.2-1.5 2.5-2.4 3.7q-0.8 1.2-1.6 2.4c-1.1 1.7-2.3 3.1-3.5 4.7-1.4 2-3 3.8-4.9 5.2-0.7 0.5-1.6 1.2-2.4 1.5-0.8 0.3-1.3 0.3-2.2 0.2-0.4-0.1-0.8 0-1-0.1-0.8-0.2-2.1-1.4-2.7-2.1-1-1.3-1.6-2.8-1.3-5.1 0.1-0.5 0.3-1 0.5-1.6 0.5-1.3 1.4-2.6 2.1-3.8 0.6-0.9 1-1.7 1.6-2.4 1.2-1.6 2.4-2.8 3.9-4.3 1.3-1.3 2.8-2.5 4.1-3.8 1.1-1.1 1.9-2.1 3.2-3.1 0.8-0.6 1.8-1.2 2.6-2 0.4-0.4 0.7-0.8 1.2-1.1-0.1-0.5-0.6-1.1-0.7-1.8-0.2-1.4 0.5-2.7 1-3.6-0.9-1.4-1.6-3.1-2.5-4.8-1.1-2.4-2.2-4.5-2-8.3 0.1-1.3 0.3-2.8 0.4-4.2 0.1-1.4 0.2-2.9 0.5-4 0.2-0.6 0.6-1.2 0.8-1.8 0.2-0.6 0.3-1.4 0.6-2 0.1-0.3 0.4-0.6 0.6-1 1-1.6 2.1-3.4 3.4-4.7 0.3-0.3 0.7-0.5 1-0.7 0.4-0.4 0.6-0.8 1.2-1.1 0.1-0.1 0.2 0 0.3-0.1 0 0 0-0.2 0.1-0.2 0.8-0.5 1.8-0.9 2.8-1.3 0.6-0.3 1.3-0.6 2-0.8 1.4-0.6 2.6-0.9 4.4-1.2 0.8-0.2 1.6-0.4 2.4-0.5 0.9 0 1.9 0 2.9 0 2.9-0.2 5.4 0.3 7.6 1.2 0.5-0.2 0.8-0.8 1.2-1.1 1-0.9 3.1-2.7 5-1.4 0.6 0.5 1.2 2 1.2 3.1-0.1 0.6-0.3 1.1-0.5 1.7-0.1 0.5-0.1 1.1-0.5 1.5zm-25.2 39.9c0.5 0.1 1.1-0.7 1.5-1.1-0.9-0.5-2-0.7-2.8-1.2 0.3 0.6 0.8 2.2 1.3 2.3zm-2.4-1.2c0.3 0.6 0.8 1.3 1.2 1.4 0.1 0 0.3 0 0.5-0.1-0.6-0.8-1.2-1.6-1.3-2.8-0.4 0-0.8-0.6-1.1-0.6 0.2 0.5 0.4 1.4 0.7 2.1zm-5.1-4.9c-0.3 1 0 1.7 0.3 2.3 0.4 1.1 0.8 1.5 1.6 2 0.5 0.4 0.9 0.8 1.4 0.8-0.3-0.2-0.4-0.6-0.6-1-0.2-0.3-0.5-0.8-0.2-1.1 0.6 0.1 0.7 0.8 1 1.3 0.4 0.9 0.7 1.8 1.6 1.7-0.5-0.9-1.1-1.7-1.2-3 0.1-0.2 0.3-0.2 0.4-0.3q-0.5-0.4-1-0.8-0.5-0.5-1-0.9-0.5-0.5-1-1-0.4-0.5-0.8-1.1c-0.1 0.5-0.4 0.8-0.5 1.1zm14.6-37.5c-1.2 0.2-2.3 0.4-3.4 0.7-1.6 0.5-3.1 1.1-4.4 1.7-0.5 0.3-1 0.4-1.5 0.7-0.2 0.1-0.4 0.4-0.7 0.6-0.3 0.1-0.6 0.3-0.8 0.5-0.3 0.1-0.5 0.4-0.7 0.6-0.2 0.2-0.6 0.4-0.8 0.6-0.3 0.3-0.6 0.9-1 1.3-0.3 0.5-0.7 0.9-1 1.3-0.3 0.4-0.6 1-0.9 1.5-0.3 0.5-0.7 1-0.9 1.4-0.3 0.7-0.3 1.3-0.5 1.9-0.3 0.6-0.7 1.3-0.8 1.8-0.5 1.8-0.5 4.3-0.6 6.3 0 1.1-0.2 2.2-0.2 3.2 0.1 2.2 0.8 3.7 1.6 5.3 0.7 1.5 1.4 3.2 2.3 4.5 0.4 0.8 0.8 1.4 1.3 2.1 0.5 0.7 1 1.4 1.5 1.8 0.7 0.6 1.3 1.1 1.9 1.5 1.4 1 2.9 1.5 4.7 2.3 0.8 0.3 1.6 0.6 2.5 0.8 3.8 0.7 9 0.4 12.3-0.6 0.9-0.2 1.7-0.6 2.5-0.9 0.4-0.1 0.9-0.2 1.3-0.4q0.6-0.3 1.2-0.6c0.7-0.4 1.5-0.8 2.1-1.3 0.4-0.3 0.5-0.6 0.8-1 0.6-0.8 1.2-1.6 1.6-2.4 0.7-1.2 1.4-2.1 1.9-3.3 0.3-0.7 0.6-1.2 0.8-1.9 0.7-1.9 1.6-4 1.8-6.1 0.3-2.8 0.3-5.3 0.1-8-0.2-2.5-1.1-4.4-2.1-6.2-0.5-0.9-1-1.6-1.8-2.3-1-1.1-2-2.2-3.1-3.1-1.2-0.9-2.4-1.9-3.6-2.6-2.3-1.2-6-2.2-9.4-1.9-1.5 0.1-2.8 0-4 0.2zm18 0.2c0-0.7-0.5-1.7-0.8-1.9-1.1-0.8-2.3 0.2-2.9 0.8-0.5 0.4-1.2 0.9-1.3 1.3 1.7 0.6 2.9 1.8 4.3 2.7 0.1-0.9 0.7-1.9 0.7-2.9zm-32.6 41.6c-0.6 0.3-1.1 1.1-1.7 1.6-0.5 0.4-1.1 0.7-1.6 1.1-1.3 0.9-2.2 1.9-3.2 3.1-0.6 0.6-1.3 1.1-1.9 1.7-1.3 1.1-2.4 2.4-3.7 3.5-1.2 1.2-2.3 2.5-3.3 4-0.7 1.1-1.4 2.2-2 3.3-0.4 0.8-1 1.9-1.2 2.8-0.3 2.6 0.7 4.1 1.9 5.2 0.8 0.7 1.5 1.2 3 1.1 1.2-0.1 2-1 2.8-1.5 0.3-0.2 0.6-0.4 0.9-0.6 0.7-0.5 1.3-1.3 2-2.1 0.2-0.1 0.4-0.2 0.6-0.4 0.1-0.2 0.2-0.4 0.4-0.6 1.5-1.9 3.1-4.2 4.3-6-1.4-0.6-2.1-2.3-2.6-3.8-0.1-0.3-0.6-0.9 0-1.1 0.6 0.5 0.6 1.4 1.1 2.2 0.3 0.6 0.9 1.7 1.4 2 0.2 0 0.4 0 0.6 0.1q0.5-0.7 1-1.5 0.5-0.7 0.9-1.4 0.5-0.8 1-1.5 0.5-0.8 0.9-1.5c0.2-0.3 0.5-0.6 0.6-0.9 0.1-0.3 0.1-0.7 0.3-1 0.4-0.8 1.1-1.4 1.2-2.3 0 0.2-0.3 0.1-0.4 0-0.3-0.4-0.3-0.8-0.5-1.2-0.4-0.5-1.2-0.9-0.9-1.5 0.6 0.1 0.9 0.6 1.2 1 0.3 0.5 0.6 1 0.7 1.6 0.4-0.8 0.7-1.7 1.1-2.5-2-0.7-3.5-1.8-4.9-2.9zm3.7 5.5q0 0 0 0 0 0 0 0zm5.3-47.6c0 0.5-0.6 0.3-1 0.3-1.3 0.2-2.6 0.7-3.7 1.2-0.7 0.3-1.3 0.7-1.8 1.1-0.8 0.6-1.3 1.4-2.2 2-0.2 0.1-0.5 0.6-0.8 0.2 0-0.6 0.8-0.8 1.2-1.2 0.5-0.5 0.8-1.1 1.4-1.5 0.6-0.5 1.7-1.1 2.7-1.4 1-0.4 2.1-0.8 3.1-1 0.3 0 0.8-0.3 1.1 0.3zm23.2 1.4c-0.5-0.2-0.8-0.7-1.1-1.2-0.1-0.2 0.1-0.1 0.1-0.2 0.7 0.1 1.4 0.7 1 1.4zm-0.3 1.3c-0.6 0-0.7-0.5-1-0.8-0.3-0.2-0.6-0.3-0.8-0.7 0-0.1 0.1-0.1 0.1-0.2 0.7-0.2 1.9 1 1.7 1.7zm-14.1-0.5c0.2 0 1-0.2 1.5-0.1 1.9 0.2 3.9 0.9 5.7 1.6 0.8 0.3 1.6 0.7 2.4 1.1 1.9 1.1 3.3 1.9 4.7 3.6 0.6 0.7 0.7 1.1 1.2 2 0.4 0.7 0.6 1.3 1 2.2 0.2 0.4 0.2 0.8 0.4 1.2 0.1 0.4 0.3 0.7 0.5 1.1 0.1 0.5 0.1 0.9 0.2 1.3 0.3 0.8 0.7 1.6 0.9 2.4 0.4 1.6 0.3 3.5 0.1 5.3-0.2 1.7-0.5 3.4-1.1 4.8-0.3 0.7-0.8 1.4-1.1 2.2-1.1 2.1-2.2 4.4-4.1 5.7-1.1 0.8-2.8 1.4-4.2 2-1.1 0.4-2.5 1.1-3.9 1.3-0.7 0.2-1.6 0.1-2.5 0.2-1.4 0.1-2.7 0.5-4.4 0.3-0.8 0-1.7-0.3-2.6-0.5-0.8-0.3-1.7-0.4-2.5-0.7-0.5-0.2-1.1-0.6-1.7-0.9-0.3-0.2-0.6-0.2-0.9-0.4-0.2-0.1-0.4-0.4-0.7-0.5-0.6-0.4-1.2-0.6-1.7-1q-0.4-0.2-0.8-0.5c-0.3-0.1-0.6-0.3-0.8-0.5-0.4-0.3-0.8-1-1.3-1.5q-0.1-0.2-0.3-0.4-0.1-0.2-0.3-0.4-0.1-0.2-0.3-0.4-0.1-0.3-0.2-0.5c-0.7-1.2-1.1-2.6-1.4-4.1-0.7-3.1-1.5-6.4-1.1-10.2 0.1-1.2 0.5-2.4 1-3.4 0.6-1.3 1.1-2.5 1.9-3.5 0.3-0.5 0.6-0.8 0.9-1.3 1.3-1.6 2.8-3.1 4.6-4.2q0.4-0.2 0.9-0.5 0.4-0.2 0.9-0.4 0.4-0.3 0.9-0.5 0.5-0.2 0.9-0.4c2.2-0.8 4.1-1.4 7.2-1.5q0 0 0.1 0zm13.8 7.2c-0.9-1.1-2.5-2.3-3.8-3.1-1.5-0.9-3.3-1.7-5-2.3-0.5-0.1-1-0.2-1.5-0.3-1.1-0.3-2.1-0.6-3.2-0.5-1.2 0.1-2.6 0.2-3.8 0.4-0.6 0.1-1.3 0.4-1.9 0.6q-1 0.4-1.9 0.8c-2.5 1.1-4.7 2.2-6.3 4.1-0.4 0.4-0.7 1-1.1 1.5-0.4 0.5-0.8 1-1.1 1.5q-0.2 0.2-0.3 0.4-0.1 0.2-0.2 0.4-0.2 0.3-0.3 0.5-0.1 0.2-0.2 0.4c-0.3 0.6-0.7 1.2-0.9 1.9-1 3-0.5 7.4 0.1 10.5 0.4 2.1 0.9 3.8 1.6 5.3 0.5 0.9 1 1.4 1.5 2.1 0.6 0.6 0.8 0.9 1.5 1.4 0.6 0.5 1.2 0.8 2 1.2 0.4 0.3 0.8 0.5 1.2 0.7 1.6 0.9 2.8 1.4 4.7 1.9 0.7 0.2 1.4 0.4 2.1 0.5 1.8 0.2 3.2-0.1 4.6-0.3 1.2-0.1 2.5-0.2 3.4-0.4 1-0.3 1.5-0.6 2.4-1 0.4-0.2 0.9-0.3 1.4-0.5 0.4-0.1 0.8-0.4 1.3-0.6 0.6-0.3 1.1-0.5 1.5-0.7 1.2-0.8 1.8-1.7 2.5-2.9 0.6-1.1 1.1-2.4 1.7-3.5 0.3-0.5 0.7-1 0.9-1.6 0.4-1.1 0.6-2.4 0.7-3.7 0.2-1.4 0.4-2.8 0.2-4.2-0.1-1.1-0.5-2.2-0.9-3.2-0.2-0.6-0.3-1.1-0.5-1.6-0.1-0.5-0.5-0.9-0.5-1.4-0.6-1.5-1-3-1.9-4.3zm-16.8-5.7c0.6 0.4 0.6 1.4 0.8 2.1 0.2 0.7 0.8 1.6 0.2 2.1-0.5-0.1-0.3-0.7-0.5-1.2-0.1-0.4-0.3-0.8-0.4-1.3-0.2-0.6-0.5-1.2-0.2-1.7zm2.3 0.2c0.3 0.5 0.4 1.2 0.5 1.8 0.2 0.6 0.6 1.3 0.2 1.8-0.5 0-0.4-0.6-0.5-0.9-0.2-0.7-0.5-1.6-0.7-2.4 0-0.2 0.2-0.2 0.2-0.3zm1.6 0c0.2 0.7 0.7 1.8 0.7 2.6 0.1 0.3 0.2 1-0.3 1.1-0.4-0.1-0.2-0.5-0.2-0.8-0.2-0.9-0.5-1.8-0.7-2.6 0-0.2 0.1-0.2 0.1-0.3zm-5.5 0.3c0.6 0.3 0.5 1.1 0.7 1.8 0.2 0.7 0.6 1.4 0.4 2-0.6 0.2-0.7-0.8-0.9-1.5-0.1-0.3-0.1-0.7-0.2-1-0.2-0.6-0.5-1-0.1-1.3zm7.2 0.1c0.2 0.5 0.2 1.2 0.4 1.9 0.1 0.6 0.5 1.2 0.3 1.7-0.5 0.1-0.6-0.5-0.7-0.8q-0.1-0.3-0.1-0.6-0.1-0.3-0.2-0.6-0.1-0.4-0.1-0.7-0.1-0.3-0.1-0.6c-0.1-0.2 0.1-0.1 0.1-0.3zm-8.6 0.4c0.4 0.1 0.3 0.7 0.4 1 0.2 0.8 0.3 1.5 0.5 2.4 0.1 0.3 0.3 0.8-0.1 0.9-0.6-0.1-0.5-1-0.7-1.8-0.1-0.8-0.5-1.7-0.4-2.2 0-0.1 0-0.3 0.3-0.3zm10.2 0.3c0.3 0.2 0.2 0.5 0.3 0.9 0.1 0.6 0.4 1.6 0 2-0.8-0.3-0.5-1.8-0.7-2.6 0.2-0.1 0.1-0.3 0.4-0.3zm-11.7 0.7c0.4 0.2 0.3 0.6 0.4 0.9 0.2 0.7 0.6 1.5 0.5 2.2q-0.1 0-0.1 0.1c-0.6-0.1-0.6-0.8-0.7-1.2-0.1-0.6-0.4-1.3-0.4-1.9 0.1 0 0.3-0.3 0.3-0.1zm12.7 0c0.2 0.4 0.2 1 0.3 1.5 0 0.5 0.3 1.2-0.1 1.5-0.5 0-0.5-1.2-0.6-1.9 0-0.5-0.3-0.9 0.2-1.1 0.1-0.1 0.1 0 0.2 0zm1.9 0.2c0 0.3 0 0.5-0.4 0.5 0-0.1 0-0.1-0.1-0.1-0.1-0.4 0.2-0.6 0.5-0.4zm-15.2 3.8c-0.6 0.1-0.6-0.7-0.8-1.2-0.2-0.7-0.4-1.5-0.3-2.3 0.3 0 0.2-0.1 0.5 0 0.1 0.6 0.2 1.3 0.3 1.9 0.2 0.6 0.6 1.1 0.3 1.6zm14.5-2.7c0.1 0.4 0.6 1.9-0.3 1.8-0.1-0.4-0.6-1.8 0.3-1.8zm1 0.2c-0.1 0.9 0.6 1.9 0.1 2.4-0.4 0.1-0.3-0.3-0.4-0.6-0.1-0.4-0.3-0.9-0.2-1.5 0-0.2 0.1-0.2 0.1-0.3zm-18 0.3c0.3 0.5 0.3 1.2 0.5 1.8 0.1 0.6 0.4 1.3 0.3 1.9-0.7 0.1-0.7-0.8-0.8-1.3-0.2-0.7-0.4-1.4-0.4-2.2 0-0.1 0.1-0.2 0.1-0.2zm20.5 1c0 0.1-0.1 0.1-0.1 0.2-1.3 0 0-1.5 0.1-0.2zm-1.6-0.1c0.2 0.2 0.3 0.5 0.4 0.8 0.1 0 0.3 0 0.4 0q0 0.4-0.2 0.5c-0.4-0.1-0.4-0.3-0.7-0.2-0.2-0.3-0.3-0.5-0.3-0.9 0.1-0.1 0.1-0.3 0.4-0.2zm-20.3 0.3c0.2 0.5 0.2 1 0.3 1.6 0.2 0.8 0.8 1.6 0.4 2.2-0.6-0.1-0.6-1.1-0.8-1.7-0.2-0.6-0.4-1.3-0.4-2.1 0.2-0.1 0.3-0.1 0.5 0zm27.4 7.4c-0.5-0.2-0.4-0.9-0.5-1.3-0.3-1.6-1.3-2.6-2.2-3.8-0.3-0.4-0.6-0.7-1-1 0-0.2 0.1-0.3 0.2-0.4q0.2 0 0.2 0.1c0.7 0.1 0.9 0.7 1.3 1.3 0.3 0.3 0.7 0.6 0.9 0.9 0.1 0.1 0.1 0.4 0.3 0.6 0.1 0.2 0.3 0.3 0.4 0.5 0.3 0.5 0.4 1.3 0.5 1.9 0.1 0.3 0.5 1-0.1 1.2zm-5.3-5.2c-0.6 0.1-0.6-0.4-0.9-0.7 0.3-0.8 1.2 0.2 0.9 0.7zm-23.4-0.9c0.2 0.8 0.3 1.8 0.5 2.6 0.1 0.5 0.5 1.1 0.1 1.5-0.5-0.1-0.6-0.8-0.7-1.3-0.2-0.7-0.4-1.5-0.3-2.6 0-0.1 0.1-0.1 0.1-0.2zm-1.3 1.7c0.3 0.2 0.1 0.6 0.2 1 0.1 0.9 0.5 1.8 0.5 2.7-0.5 0.1-0.7-0.5-0.8-1-0.2-0.7-0.4-1.7-0.3-2.5 0-0.1 0.1-0.1 0.1-0.2zm28.4 1.5c0 0.7-0.1 1.6-0.8 1.5-0.2-0.5 0.2-1.1 0.3-1.6 0.2 0 0.4 0 0.5 0.1zm-29.2 1c0.2 0.3 0.2 0.6 0.3 1 0.1 0.8 0.6 1.5 0.4 2.1-0.6 0.1-0.9-1-1-1.6-0.1-0.5-0.2-1.2 0-1.5zm29.6 0.4c0.3 0.6-0.3 2.1-1.1 1.6 0.2-0.6 0.6-1 0.7-1.6zm0.6 1.8c-0.2 0.5-0.3 1.4-1 1.2 0 0.3 0 0.6-0.1 0.7-0.6 0-0.5-0.4-0.5-0.9 0.9 0.1 0.9-1.8 1.6-1zm-30.2 2.6c-0.6 0.1-0.7-0.5-0.8-0.9-0.2-0.4-0.4-0.9-0.4-1.4 0.1 0 0.2 0 0.2-0.1q0.1 0 0.1 0 0 0 0 0 0.1 0.1 0.1 0.1 0 0 0 0c0.3 0.7 0.9 1.5 0.8 2.3zm30.6-1.8c0.1 0.5 0 0.8-0.5 0.7-0.3-0.4 0.1-1.1 0.5-0.7zm-0.5 1.1c0.1 0.2 0.1 0.5 0.1 0.8 0.1 0.1 0.4-0.1 0.5 0.1 0 0.8 0.3 1.2 0.4 1.8 0 0-0.1 0.1-0.1 0.2-0.7-0.1-0.7-0.9-0.9-1.5 0-0.2-0.2 0-0.4 0-0.2-0.4-0.3-1.8 0.4-1.4zm1.5 0.6c0.3 0.1 0.3 0.7 0.1 1-0.7 0.2-0.6-1.1-0.1-1zm-2.2 0.8v0.3c-0.1 0.1-0.3 0.2-0.5 0.1 0.2 0.7 0.9 1.2 0.7 2.1-0.6 0-0.6-0.6-0.8-1-0.2-0.4-0.6-0.7-0.6-1.2 0.1-0.2 0.5-0.2 0.6 0-0.1-0.5 0.4-0.6 0.6-0.3zm-30.1 0.2c0.2 0.1 0.3 0.9-0.1 0.8-0.5 0.1-0.5-1 0.1-0.8zm28.6 1c0.4 0.3 0.6 0.9 0.8 1.4 0.2 0.5 0.8 0.9 0.7 1.4-0.7 0.2-1.1-0.9-1.4-1.5-0.2-0.4-0.6-0.8-0.4-1.3zm-28.4 1.3c0.3 0.4 0.3 1.7-0.2 1.9-0.6-0.2-0.3-1.5 0-1.9zm1 2.9c0.2 0.7 0.1 1.9 0.2 3.1 0.1 0.5 0.5 1.1 0 1.4h-0.1c-0.4-0.3-0.5-1.1-0.5-1.8 0-0.3 0-0.6 0-0.9-0.1-0.2-0.2 0.2-0.5 0-0.3-0.3-0.6-1.2-0.1-1.6 0.6-0.1 0.3 0.7 0.5 1.1 0.2-0.4-0.3-1.5 0.5-1.3zm1 1.3c0.5 0.1 0.3 0.7 0.3 1 0 1.5 0.3 3 0.3 4.2-0.6 0.1-0.6-0.6-0.6-1-0.2-1.1-0.3-2.6-0.3-4 0.1-0.1 0.2-0.1 0.2-0.2 0 0 0.1 0 0.1 0zm1.4 6.7c-0.6 0.4-1.4-0.7-0.6-0.9 0.3 0.2 0.6 0.4 0.6 0.9zm32.6 3.5h0.3c0.2 0.9-0.6 1.4-1.1 1.9-0.9 0.9-1.9 1.8-2.9 2.7-1 0.9-2.2 1.5-3.4 2.2-2.5 1.3-5 2.7-8.1 3-0.9 0.1-1.9 0-3 0-1 0-2 0.1-2.9 0-0.6 0-1.1-0.2-1.7-0.3-0.4 0-1.2 0.1-1.3-0.5 0.5-0.5 1.1 0 1.6 0 1.2 0.2 2.7 0.2 4.3 0.2 1.7 0 3.3 0 4.7-0.3 0.6-0.1 1.2-0.4 1.8-0.6 0.5-0.2 1.2-0.4 1.6-0.6 0.5-0.2 0.9-0.6 1.4-0.9 1.3-0.7 2.9-1.4 4.1-2.3 0.8-0.6 1.6-1.3 2.4-2 0.9-0.8 1.7-1.6 2.2-2.5zm-19.3 1.7v0.3c-0.1 0.2-0.6 0.2-0.8 0-0.1-0.5 0.6-0.6 0.8-0.3zm20.2 2.3c0.2 0.6-0.5 0.9-0.8 1.2-0.9 0.6-1.7 1.1-2.7 1.7-0.4 0.3-0.8 0.6-1.3 0.9-1.3 0.7-2.9 1.3-4.4 2.1-0.8 0.4-1.4 0.7-2.3 0.9-0.5 0.2-1 0.3-1.8 0.2-0.3 0-0.8 0.2-0.8-0.2 0.2-0.6 1.1-0.3 1.6-0.3 0.3-0.1 0.7-0.3 1.2-0.5 0.2 0 0.4 0 0.5 0 0.7-0.2 1.3-0.7 2-1 0.3-0.2 0.7-0.3 1-0.5 0.9-0.4 2-0.9 2.9-1.4 0.4-0.2 0.7-0.5 1.1-0.8 0.4-0.2 0.9-0.4 1.2-0.6 0.9-0.6 1.6-1.2 2.3-1.8 0.2-0.1 0.1 0.1 0.3 0.1zm-31.5 1.7c0.1 0.4 0.8 1 0.3 1.4-0.6-0.2-0.7-0.7-0.8-1.3 0.1-0.1 0.3-0.1 0.5-0.1zm-3.6 4.4c-0.4 0-0.4-0.4-0.5-0.6-0.1-0.3-0.7-0.8-0.3-1.2 0.2-0.1 0.2 0.1 0.4 0 0.1 0.6 1 1.3 0.4 1.8zm31.8-1.2c-0.1 0.4-0.6 0.6-1 0.9-0.6 0.5-1.2 1-2 1.5-0.3 0.1-0.7 0.6-1.1 0.1 0-0.4 0.4-0.4 0.6-0.5q0.4-0.3 0.8-0.5 0.4-0.3 0.7-0.6 0.4-0.3 0.7-0.5 0.4-0.3 0.8-0.6 0.4-0.1 0.5 0.2zm-33.5 2.9c-0.1 0.1-0.3 0-0.5 0-0.6-0.6 0.7-0.9 0.5 0zm-0.9 0.7c-0.1 0.1-0.4 0.1-0.5 0q0.1 0 0.1-0.1 0.1 0 0.2 0 0.1 0 0.1 0 0.1 0.1 0.1 0.1zm-0.4 1.2c-0.1 0.1-0.3 0.1-0.5 0.1-0.2-0.4-0.4-0.7-0.5-1.1 0.5-0.6 0.9 0.4 1 1zm-1.2-0.1c0.2 0.6 0.8 1 0.6 1.7-0.7 0-1-1-1.1-1.6 0.1-0.1 0.3-0.1 0.5-0.1zm-1.2 0.9c0.3 0.4 0.4 0.9 0.7 1.3 0.2 0.2 0.5 0.4 0.6 0.7-1 0.7-1.4-1.2-1.8-1.7 0-0.2 0.1-0.2 0.1-0.3zm-1.2 0.6c0.3 0.6 0.4 1.1 0.7 1.7 0.3 0.5 0.8 0.8 1 1.4-0.6 0.4-1.1-0.4-1.4-0.9-0.4-0.7-0.8-1.5-0.6-2.2zm0.6 4.5c-0.7-0.2-1-0.9-1.4-1.3-0.3-0.6-0.7-1.1-0.7-1.9 0.1 0 0.3-0.3 0.3-0.1 0.3 0.2 0.4 0.6 0.5 0.9q0.2 0.4 0.5 0.8c0.4 0.5 1.1 1 0.8 1.6zm-4.8-1.7c0.5 0.1 0.3 0.6 0.4 0.9 0.5 1.2 1.4 2.3 2.1 3.3 0.2 0 0.5 0 0.6 0.1 0.1 0.4-0.1 0.5-0.3 0.6-0.7 0-1.2-0.9-1.7-1.6-0.5-0.7-1-1.5-1.2-2.2-0.2-0.3-0.2-0.9 0-1.1zm1.3 6.3c-0.5 0.3-0.9-0.2-1.1-0.6-0.5-0.8-0.8-1.5-1.2-2.3-0.2-0.4-0.6-0.9-0.4-1.3-0.1-0.1 0.2-0.3 0.2-0.1 0.6 0.4 0.7 1.1 1 1.8 0.3 0.6 0.8 1.1 1 1.8 0.2 0.3 0.7 0.3 0.5 0.7zm-3.2-1.7c0.5 0.2 0.5 0.7 0.8 1.1 0.4 0.6 1.2 1.1 1.1 1.9-0.7-0.1-1-0.8-1.3-1.2q-0.1-0.2-0.3-0.3-0.1-0.2-0.2-0.4-0.1-0.2-0.2-0.4-0.1-0.2-0.2-0.5c0-0.1 0.2-0.1 0.2-0.2zm0.8 4.5c-0.8 0-1.2-0.9-1.5-1.5-0.4-0.6-0.9-1.3-0.9-2.2 0.1 0 0.3-0.2 0.4-0.1 0.3 0.3 0.3 0.7 0.5 1q0.1 0.3 0.2 0.5 0.1 0.3 0.3 0.5 0.1 0.2 0.3 0.5 0.1 0.2 0.3 0.4c0.2 0.2 0.6 0.5 0.4 0.9zm-1.2 1.4c-0.5 0.2-0.7-0.5-0.9-0.9-0.6-1.1-1.4-2.4-1.9-3.7 0.4-0.9 0.8 0.4 1 0.9q0.2 0.4 0.3 0.7 0.2 0.3 0.4 0.6 0.1 0.3 0.3 0.6 0.2 0.3 0.3 0.6c0.3 0.4 0.8 0.7 0.5 1.2zm-3.5-3.9c0.3 0.3 0.1 0.7 0.2 1 0.2 0.3 0.4 0.6 0.6 1 0.2 0.3 0.3 0.7 0.4 1 0.3 0.7 1 1.3 0.9 2-0.5 0.1-0.7-0.4-0.9-0.8-0.4-0.7-0.6-1.3-1-2.2-0.3-0.6-0.7-0.8-0.6-1.8 0-0.1 0.1-0.1 0.1-0.2zm1.1 6c-0.5 0-0.8-0.5-1.1-0.8-0.5-0.8-0.9-1.6-1.3-2.5-0.2-0.5-0.6-0.8-0.5-1.3 0-0.2 0.2-0.2 0.3-0.2 0.7 1.2 1.3 2.5 2.1 3.7 0.2 0.3 0.8 0.7 0.5 1.1zm-3.2-3.2c0.4 0.1 0.3 0.7 0.4 0.9 0.1 0.4 0.3 0.7 0.5 1 0.3 0.5 0.9 1 0.8 1.6-0.4 0.3-0.6-0.2-0.8-0.5-0.5-0.7-1.2-1.7-1.2-2.8 0-0.2 0.2-0.2 0.3-0.2zm-1 1.3c0.4 0.3 0.5 0.9 0.7 1.4 0.2 0.4 0.7 0.8 0.5 1.3-0.3 0.2-0.7-0.4-1-0.9-0.3-0.6-0.8-1.6-0.2-1.8zm27-28.4c0.2-0.5-0.2-1.1-0.2-1.7-0.5 0.2-0.2 1-0.5 1.3-0.7-0.2-0.7-1.1-0.8-1.8-0.3 0.2-0.1 0.8-0.7 0.8 0.1 0.2 0.1 0.4-0.1 0.5-0.7-0.1-0.6-1-0.8-1.5-0.2-0.7-0.8-1.7-0.7-2.7-0.2 0.7 0.1 1.4 0.1 2-1.1 0-1.1-1.7-1.2-2.8q-0.2 0.2-0.4 0.4c0 0.6 0.5 1.4 0.2 1.9-0.7 0-0.6-1.1-0.8-1.7-0.2-1.1-0.6-2.4-0.3-3.9h0.4c0.1 0.7 0 1.6 0.1 2.3 0.2-0.2 0.2-0.6 0.5-0.5q0.3 0.2 0.3 0.8c-0.1 0.1 0.3-0.2 0.3 0 0.3 0 0.2-0.4 0.6-0.3 0.3 0.3 0.1 1.1 0.1 1.6 0.6-0.2-0.1-1.6 0.6-1.8 0.5 0.1 0.2 0.7 0.3 1 0.1 1.3 0.4 2.8 0.6 4.1 0.5-0.7 0.5-2.3 0.5-3.7 0-0.5-0.2-1.4 0.4-1.4 0.5 0.8 0.2 1.9 0.3 2.9 0 0.8 0.3 1.5 0.3 2.2 0.7-0.8 0.4-1.9 0.2-3.1-0.2-0.6-0.7-1.5 0-1.8 0.4 0.2 0.3 0.5 0.3 0.8 0.2 0.6 0.3 1.4 0.4 2.1 0.1 0.2 0.2 0.3 0.3 0.5 0 0.5-0.1 1.1 0.1 1.6 0.2-0.6 0.6-1.1 0.7-1.7 0.1-1-0.5-2.1-0.3-3.1 0.8 0 0.7 1 0.7 1.6 0.1 0.7 0.3 1.4 0.3 2 0.6-0.7 0.2-2.1 0.2-3.3 0-0.3-0.3-0.9 0.3-0.9 0.4 0.1 0.2 0.6 0.2 0.9 0.2 1 0.3 2.3 0.5 3.3 0.2-0.3 0.2-0.9 0.3-1.3 1.2 0.2 0.1 1.5 0.1 2.2 0.3 0.1 0.5-0.4 0.9-0.4-0.2-1.6-1-3-1-4.5 0.6-0.1 0.6 0.5 0.7 0.9 0.2 0.6 0.5 1.1 0.5 1.9 0.1 0.1 0.3 0 0.5 0.2-0.1 0.4 0 0.9-0.1 1.2 0.2 0.1 0.3-0.4 0.8-0.2-0.1-1.7-0.7-3.1-0.7-4.6 0.7-0.1 0.6 0.4 0.7 1 0.1 0.7 0.4 1.6 0.4 2.3 0.2-0.1 0.3-0.3 0.5-0.4-0.1-0.4-0.2-1-0.3-1.6-0.1-0.4-0.4-1 0-1.3h0.2c0.4 0.3 0.4 0.9 0.5 1.5 0.1 0.5 0.1 1.1 0.3 1.6 0.1-0.2 0.1-0.4 0.5-0.3 0.3 0.5-0.1 1.3-0.2 1.8 0 0.2 0.4 0.1 0.3 0.4 0.8-1 0.3-2.8 0-4.2-0.1-0.6-0.7-1.4-0.1-1.8 0.5 0.2 0.4 0.8 0.5 1.3 0.3 1.2 0.7 2.8 1 4.2 0.2-0.4 0.4-0.8 0.5-1.2 0.1-0.3 0.4-0.8 0.4-1.2 0-0.5-0.4-1.2-0.6-1.6-0.2-0.5-0.6-1-0.6-1.5 0.4-0.3 0.7 0.2 0.8 0.5 0.5 0.8 0.9 2.1 1.2 3.1 0.2-0.1-0.1-0.9 0.3-0.9 0.5 0 0.4 0.5 0.4 0.8 0 0.5-0.4 1.3-0.3 1.8 0.4-0.4 0.6-1.4 0.5-2-0.1-0.7-0.5-1.6-0.7-2.3-0.1-0.4-0.2-0.9-0.3-1.2-0.1-0.4-0.5-0.9 0-1.1 0.5 0.2 0.6 0.9 0.7 1.4 0.2 0.5 0.3 1.1 0.4 1.6 0.1 0.2 0.4 0.1 0.5 0.2 0 1.3 0.3 2.3 0.7 3.4 0.1-1.1 0.4-2.1 0.3-3 0-0.7-0.6-1.4-0.8-2-0.2-0.3-0.4-0.7-0.5-1 0-0.3-0.3-0.8 0.1-1 0.5 0.2 0.6 0.8 0.8 1.3 0.2 0.5 0.4 1.1 0.6 1.5 0.1 0.2 0.3 0.2 0.5 0.3q-0.1 0.6 0 1c0.2-0.3 0.1-0.8 0.5-0.7 0.5 0.4 0.2 1.6 0.3 2.4 0 0.1 0.6-0.1 0.5 0.2 0.1-0.3 0.1-0.8 0.4-1 0.2-2.6-0.8-3.9-1.9-5.2-0.2-0.1-0.6-0.1-0.5-0.6 0.5-0.3 0.8 0.1 1.1 0.4 0.6 0.6 1.2 1.5 1.5 2.4q0.4 0 0.6 0.2c-0.1 0.9-0.1 1.8 0.4 2.3 0.4-2.4-0.8-3.7-1.6-5.4-0.1-0.3-0.5-0.9 0-1.2 0.3 0 0.4 0.5 0.5 0.7 0.4 0.8 0.7 1.7 1.2 2.5 0 0.1 0.3-0.2 0.5 0 0 1.1 0.2 2 0.5 2.8 0.2-0.7 0-1.7 0-2.6 0.2-0.1 0.1-0.3 0.4-0.3-0.6-1-1.3-2-1.9-3-0.2-0.3-0.7-0.6-0.4-1 0.4-0.1 0.7 0.4 0.9 0.7 0.7 1 1.4 2.2 2 3.3 0.2-0.3-0.1-1.1 0.5-1 0.3 0 0.2 0.5 0.3 0.9 0-0.2 0.1-0.4 0.5-0.3 0.2 0.5 0.2 1.3 0.3 1.9 0.3-0.4 0.3-1.1 0.6-1.5-0.5-0.2-0.6-0.8-0.6-1.5-0.4 0-0.5 0.3-0.8 0.3-0.8-0.9-1.2-2-1.9-3-0.2-0.3-0.6-0.6-0.6-1 0.8-0.2 1.3 0.9 1.6 1.4 0.4 0.6 0.8 1.3 1 2 0.2 0 0.3-0.4 0.6-0.2 0-0.2 0.2-0.6 0.5-0.4-0.1-0.6-0.6-1.3-0.4-2.1 0.1 0 0.2 0.1 0.2 0 0.5 0.1 0.4 0.8 0.5 1.2 0.1 0.4 0.5 0.8 0.3 1.2-0.1 0.1-0.3 0.1-0.5 0.1 0.1 0.3 0.2 0.7 0.2 1.1 0.3-0.7 0.5-1.6 0.7-2.6-0.1-0.1-0.4 0-0.5-0.1-0.1-0.8-0.7-1.6-0.5-2.5 0.9 0.1 0.7 1.5 1 2.1 0.4-0.3-0.1-1.6 0.5-1.7 0.4 0.1 0.3 1.1 0.3 1.7-0.1 0.3-0.2 0.8-0.3 1.2-0.1 0.7-0.4 1.3-0.6 2-0.1 0.4 0 0.8-0.1 1.1-0.1 0.3-0.3 0.6-0.4 0.9-0.2 0.7-0.4 2-1.3 2.1-0.2-0.2 0-0.6 0.2-0.7-0.3-0.3-0.3-0.9-0.3-1.4-0.3 0-0.6 0.1-0.8 0.1-0.2-0.2-0.4-0.5-0.4-0.8-0.2 0.5-0.1 1.2-0.1 1.8 0.2 0.1 0.3-0.6 0.7-0.5 0.3 0.2 0.2 1.1 0.2 1.8 0 0.6 0.2 1.7-0.5 1.6-0.1-0.5 0-1.3-0.1-1.9-0.7 0.3-1 1.1-0.8 2.3 0.2 0.2 0.1-0.5 0.6-0.3 0.3 0.4 0 1-0.5 1-0.2 0 0 0.4-0.3 0.5-0.7 0-0.2-1.2-0.4-1.8-0.2 0.2-0.9 0.7-0.7 1.5 0 0.1 0.5-0.1 0.6 0.1 0 0.7-0.6 0.7-0.7 1.3-0.5-0.1-0.5 0.2-0.8 0.4-0.3 0.3-0.7 0.3-0.7 0.8-0.3 0.1-0.3-0.1-0.5-0.1-0.7 0.4-1.7 1.3-2.8 1.5-0.3 0-1 0.1-1.3-0.3-0.1-0.3 0.3-0.3 0.5-0.4-0.1-0.3 0.1-0.4 0.1-0.8-0.2-0.1-0.5 0.2-0.7 0.3 0.1 0.5-0.2 0.9-0.6 0.7-0.2-0.1-0.1-0.4 0-0.5-0.2-0.1-0.6 0.1-0.9 0-0.2 0.5-0.1 1.2-0.9 1.1-0.2-0.4 0.2-0.6 0.2-1.1-0.4-0.1-0.2 0.4-0.3 0.5-0.4 0-0.8 0-1-0.2 0-0.4 0.2-0.6 0-0.8h-0.4c-0.2 0.4-0.3 0.9-0.9 1-0.2-0.2-0.2-0.6-0.2-0.9-0.5 0-0.1 0.9-0.5 1-0.8-0.1-0.4-1.3-0.8-1.8-0.4 0.3-0.1 1.3-0.9 1.2-0.4-0.4 0.2-0.8 0.2-1.3-0.1-0.1-0.3 0.3-0.5 0.4 0.1 0.3 0.2 1.2-0.2 1.2-0.4 0-0.3-0.4-0.3-0.8-0.2 0.3-0.6 0.7-1 0.5-0.3 0-0.3-0.2-0.3-0.5-0.1-0.1-0.4-0.1-0.5-0.3 0.3-0.4 0.5-1 0.3-1.7-0.4 0.8-1 1.7-0.4 2.7 0.6 0.1 1.3 0.4 2.1 0.5 0.6 0.1 1.3-0.2 1.8 0.2-0.1 0.7-1.3 0.5-1.8 0.4-0.3 0-0.5-0.1-1-0.2-0.8-0.1-1.2-0.3-1.8-0.6-0.2 0-0.5 0-0.7-0.1-0.2-0.1-0.4-0.3-0.6-0.4-0.8-0.3-2.3-0.1-2.1-1.1 1.2 0.3 2.3 0.5 3.2 1zm11.2-0.9c0-0.1 0.1-0.1 0.1-0.2-0.1 0 0-0.2-0.2-0.2 0 0.1-0.1 0.4 0.1 0.4zm-9.2-0.5c0 0.3 0.1 0.6 0.2 0.7-0.1-0.3 0.3-0.6 0.1-0.9 0 0.2-0.2 0.1-0.3 0.2zm11.7-0.2c0 0.5-0.1 1.1 0 1.4 0.4-0.3 0.9-0.6 1.3-0.9 0.1-0.6-0.2-0.7-0.5-1-0.1 0.3-0.3 0.6-0.8 0.5zm-8.5 0c-0.1-0.2 0.2-0.5 0.1-0.6-0.1 0.2-0.4 0.4-0.1 0.6zm-2.9-0.6c0.2 0.1 0.2-0.3 0.1-0.3q0 0.2-0.1 0.3zm6.5 0c0.2-0.2 0.1-0.5 0-0.7 0 0.2-0.1 0.6 0 0.7zm7-0.7c-0.1 0.3-0.3 1-0.1 1.4q0.4-0.4 0.8-0.7c0-0.3 0.1-0.8 0-0.9-0.1 0.2-0.3 0.3-0.7 0.2zm-1.6 0c0.1-0.1 0.2-0.7 0-0.8 0.1 0.3-0.2 0.6 0 0.8zm-7.7-0.2c0.2 0.1 0.2 0.3 0.4 0.3 0.1-0.3 0-0.7-0.1-1q-0.2 0.4-0.3 0.7zm5.8 0.2c0.1-0.2 0.3-0.8 0-1 0.1 0.4-0.2 0.8 0 1zm3.1-0.5c0-0.2 0.2-0.6 0.1-0.7-0.1 0.2-0.3 0.5-0.1 0.7zm-5.2 0.7c0.5-0.3 0.6-1.1 0.3-1.7-0.2 0.6-0.6 1.2-0.3 1.7zm3.8-1.5c0.2 0 0.2 0.1 0.3 0.2 0.1-0.5-0.1-0.8-0.3-1.1 0 0.3-0.1 0.5 0 0.9zm6-4.8c0-0.1 0-0.5 0-0.3-0.1 0.1-0.1 0.5 0 0.3zm-7.8 8.1c-0.1 0.5-0.2 0.9-0.2 1.4 0.4-0.1 0.6-0.3 1-0.4 0-0.4 0.1-1.1 0-1.4-0.2 0.2-0.7 0.2-0.8 0.4z"/>
		</g>
	</g>
</svg>
