<?xml version="1.0" encoding="UTF-8" standalone="no"?>
<!DOCTYPE svg PUBLIC "-//W3C//DTD SVG 1.1//EN" "http://www.w3.org/Graphics/SVG/1.1/DTD/svg11.dtd">
<svg xmlns="http://www.w3.org/2000/svg" xmlns:xlink="http://www.w3.org/1999/xlink" version="1.1" width="1200" height="1200" viewBox="0 0 1041.6666 1041.6666">
<g enable-background="new">
<clipPath id="cp0">
<path transform="matrix(.6666666,0,0,.6666666,0,0)" d="M 0 0 L 1562.5 0 L 1562.5 1562.5 L 0 1562.5 Z " fill-rule="evenodd"/>
</clipPath>
<g clip-path="url(#cp0)">
<path transform="matrix(2.0833333,0,0,2.0833333,0,0)" d="M 0 0 L 500 0 L 500 500 L 0 500 Z " fill="none"/>
</g>
<clipPath id="cp1">
<path transform="matrix(.6666666,0,0,.6666666,0,0)" d="M 0 0 L 1562.5 0 L 1562.5 1562.5 L 0 1562.5 Z " fill-rule="evenodd"/>
</clipPath>
<g clip-path="url(#cp1)">
<path transform="matrix(2.0833333,0,0,2.0833333,0,0)" d="M 0 0 L 500 0 L 500 500 L 0 500 Z " fill="none"/>
</g>
<clipPath id="cp2">
<path transform="matrix(.6666666,0,0,.6666666,0,0)" d="M 0 0 L 1562.5 0 L 1562.5 1562.5 L 0 1562.5 Z " fill-rule="evenodd"/>
</clipPath>
<g clip-path="url(#cp2)">
<g id="Layer-1" data-name="H1">
<g id="Layer-2" data-name="P">
</g>
<symbol id="font_3_5a">
<path d="M .39500005 0 L .27500005 0 L 0 .513 L .20400001 .513 L .32900004 .23600002 L .45200003 .513 L .574 .513 L .697 .23600002 L .822 .513 L 1.026 .513 L .751 0 L .631 0 L .513 .26500003 L .39500005 0 Z "/>
</symbol>
<symbol id="font_3_48">
<path d="M .55600008 .24700001 L .18400002 .24700001 C .18400002 .21100001 .19566667 .18433334 .21900001 .16700001 C .24233334 .14966667 .26766668 .141 .29500003 .141 C .3236667 .141 .34633336 .14466667 .363 .15200001 C .3796667 .16000001 .3986667 .17533334 .42000003 .19800002 L .54800006 .134 C .4946667 .044666668 .40600003 0 .282 0 C .20466668 0 .13833334 .026333334 .083000008 .079 C .027666668 .13233334 0 .19633335 0 .27100004 C 0 .34566669 .027666668 .4096667 .083000008 .463 C .13833334 .51633337 .20466668 .543 .282 .543 C .36333335 .543 .42933337 .5193333 .48000003 .472 C .5313334 .42533336 .55700007 .35833336 .55700007 .27100004 C .55700007 .25900004 .5566667 .25100003 .55600008 .24700001 M .18900001 .34500004 L .384 .34500004 C .38000003 .37166668 .36933337 .392 .35200004 .40600003 C .33533336 .4206667 .31366668 .42800007 .287 .42800004 C .25766669 .42800007 .23433334 .4203334 .21700001 .40500004 C .19966668 .3896667 .19033335 .3696667 .18900001 .34500004 Z "/>
</symbol>
<use xlink:href="#font_3_5a" transform="matrix(192.10416,0,0,-192.10416,128.64173,571.875)" fill="#a8eb12"/>
<use xlink:href="#font_3_48" transform="matrix(192.10416,0,0,-192.10416,316.69728,574.7566)" fill="#a8eb12"/>
<g id="Layer-2" data-name="P">
</g>
<symbol id="font_3_11a">
<path d="M .030000002 .333 C .05 .3536667 .07433333 .364 .103 .36400003 C .13166668 .364 .15633334 .3536667 .17700002 .333 C .19766669 .31233339 .208 .2876667 .208 .259 C .208 .17100002 .15733333 .08466669 .056 0 L .009000003 .037 C .013000001 .041000029 .018000002 .046333374 .024000004 .053000034 C .03066667 .060333354 .040333336 .07500001 .053000004 .097 C .06566667 .119666699 .074 .14233338 .07800001 .16500002 C .055333336 .17033337 .036666667 .18166669 .022 .199 C .007333333 .21633335 0 .23633336 0 .259 C 0 .28833337 .010000001 .31300003 .030000002 .333 Z "/>
</symbol>
<symbol id="font_3_45">
<path d="M .528 .46400006 C .57600006 .41133333 .6 .347 .6 .27100004 C .6 .19500001 .57600006 .13066668 .528 .078 C .48000003 .026 .41900004 0 .34500004 0 C .277 0 .221 .024333334 .17700002 .073 L .17500001 .073 L .17500001 .015000001 L 0 .015000001 L 0 .875 L .17700002 .875 L .17700002 .47900004 C .221 .5216667 .277 .543 .34500004 .543 C .41900004 .543 .48000003 .51666668 .528 .46400006 M .379 .18400002 C .40100003 .20666667 .41200004 .23566668 .41200004 .27100004 C .41200004 .30633334 .40033338 .33533336 .377 .35800005 C .35433338 .3806667 .326 .39200006 .29200004 .39200003 C .25866667 .39200006 .23033335 .3806667 .20700002 .35800005 C .18433334 .33533336 .17300003 .30633334 .17300001 .27100004 C .17300003 .23633336 .18400002 .20766668 .206 .185 C .22866667 .16233334 .25733338 .15100001 .29200004 .15100001 C .32800005 .15100001 .35700003 .16200002 .379 .18400002 Z "/>
</symbol>
<symbol id="font_3_4f">
<path d="M 0 0 L 0 .86 L .17700002 .86 L .17700002 0 L 0 0 Z "/>
</symbol>
<symbol id="font_3_52">
<path d="M .085 .076000008 C .028333335 .12666668 0 .19166668 0 .27100004 C 0 .35033337 .029666668 .41533337 .089 .46600003 C .14833333 .5173333 .22166668 .543 .30900003 .543 C .395 .543 .46733336 .5173333 .526 .46600003 C .58533337 .41466666 .615 .34966669 .615 .27100004 C .615 .19233334 .586 .12733335 .528 .076000008 C .47066669 .025333336 .3976667 0 .30900003 0 C .21700001 0 .14233335 .025333336 .085 .076000008 M .222 .35800005 C .19933336 .33533336 .18800001 .30633334 .18800001 .27100004 C .18800001 .23566668 .199 .20666667 .22100002 .18400002 C .24300002 .16200002 .272 .15100001 .30800004 .15100001 C .34266673 .15100001 .37100003 .16233334 .393 .185 C .41566668 .20766668 .42700003 .23633336 .42700003 .27100004 C .42700003 .30633334 .41533337 .33533336 .39200003 .35800005 C .36933337 .3806667 .34133337 .39200006 .30800004 .39200003 C .27400003 .39200006 .24533333 .3806667 .222 .35800005 Z "/>
</symbol>
<symbol id="font_3_4a">
<path d="M .013999999 .149 L .15900001 .22 C .18566668 .176 .23200001 .154 .298 .154 C .3286667 .154 .35700003 .16399999 .38300003 .184 C .4096667 .20333334 .423 .23333335 .423 .27400003 L .423 .312 C .39166669 .27733336 .3356667 .26 .25500003 .26 C .18100001 .26 .120000008 .28599999 .072000008 .338 C .024000003 .39066664 0 .455 0 .531 C 0 .607 .024000003 .6713333 .072000008 .72400006 C .120000008 .77666667 .18100001 .803 .25500003 .803 C .321 .803 .37600003 .7826667 .42000003 .742 L .423 .742 L .423 .788 L .6 .788 L .6 .261 C .6 .17766667 .57233336 .11333332 .517 .06799999 C .46166668 .022666663 .38866667 0 .298 0 C .15133333 0 .05666667 .04966667 .013999999 .149 M .222 .61800006 C .19933336 .59533336 .18800001 .56633338 .18800001 .531 C .18800001 .49566666 .199 .4666667 .22100002 .444 C .24300002 .42200003 .272 .411 .30800004 .411 C .34266673 .411 .37100003 .42233334 .393 .445 C .41566668 .46766673 .42700003 .49633337 .42700003 .531 C .42700003 .56633338 .41533337 .59533336 .39200003 .61800006 C .36933337 .64066669 .34133337 .652 .30800004 .652 C .27400003 .652 .24533333 .64066669 .222 .61800006 Z "/>
</symbol>
<use xlink:href="#font_3_11a" transform="matrix(192.10416,0,0,-192.10416,430.04524,480.4334)"/>
<use xlink:href="#font_3_45" transform="matrix(192.10416,0,0,-192.10416,476.33784,574.7566)"/>
<use xlink:href="#font_3_4f" transform="matrix(192.10416,0,0,-192.10416,597.9297,571.875)"/>
<use xlink:href="#font_3_52" transform="matrix(192.10416,0,0,-192.10416,638.26699,574.7566)"/>
<use xlink:href="#font_3_4a" transform="matrix(192.10416,0,0,-192.10416,755.6329,624.7036)"/>
</g>
</g>
</g>
</svg>
